<?xml version="1.0" standalone="no"?>
<!DOCTYPE svg PUBLIC "-//W3C//DTD SVG 20010904//EN"
 "http://www.w3.org/TR/2001/REC-SVG-20010904/DTD/svg10.dtd">
<svg version="1.0" xmlns="http://www.w3.org/2000/svg"
 width="1144.000000pt" height="1144.000000pt" viewBox="0 0 1144.000000 1144.000000"
 preserveAspectRatio="xMidYMid meet">
<metadata>
Created by potrace 1.11, written by Peter Selinger 2001-2013
</metadata>
<g transform="translate(0.000000,1144.000000) scale(0.100000,-0.100000)"
fill="#000000" stroke="none">
<path d="M2050 10277 c0 -7 4 -17 8 -22 5 -6 17 -30 27 -55 9 -25 22 -56 28
-70 5 -14 11 -30 12 -35 2 -6 11 -28 21 -50 18 -38 21 -40 67 -40 26 0 47 -4
47 -8 0 -5 6 -5 12 0 14 8 348 11 348 3 0 -3 19 -5 43 -6 80 -2 208 -29 287
-61 8 -4 17 -7 20 -7 3 -1 15 -7 28 -14 12 -7 22 -10 22 -8 0 3 17 -4 38 -15
20 -12 55 -31 77 -42 22 -12 42 -24 45 -27 3 -3 24 -18 46 -33 23 -15 55 -40
72 -55 17 -15 39 -34 49 -43 56 -49 183 -206 183 -227 0 -5 4 -12 9 -14 7 -2
62 -100 66 -118 1 -3 11 -27 23 -53 12 -27 22 -50 22 -53 0 -2 11 -27 24 -56
13 -29 61 -141 106 -248 45 -107 93 -219 106 -248 13 -29 24 -59 24 -66 0 -7
7 -19 15 -26 8 -7 13 -16 10 -20 -3 -5 -1 -11 5 -15 5 -3 10 -15 10 -26 0 -10
5 -19 10 -19 6 0 9 -3 8 -7 -1 -8 11 -42 31 -88 5 -11 16 -36 24 -55 8 -19 24
-55 35 -80 11 -25 38 -90 62 -145 41 -99 54 -127 83 -195 8 -19 79 -186 157
-370 78 -184 154 -360 167 -390 14 -30 26 -59 28 -65 1 -5 13 -35 27 -65 28
-63 40 -91 44 -105 1 -5 16 -41 34 -80 17 -38 35 -79 39 -90 5 -11 21 -46 35
-78 14 -32 26 -60 26 -63 0 -3 8 -24 19 -47 10 -23 31 -71 46 -107 15 -36 38
-87 50 -115 13 -27 40 -90 60 -140 20 -49 44 -108 55 -130 10 -22 41 -96 70
-165 29 -69 61 -144 71 -167 10 -24 28 -63 39 -88 11 -25 20 -52 20 -60 0 -8
5 -15 11 -15 5 0 7 -4 4 -10 -3 -5 -1 -10 4 -10 6 0 10 -3 9 -7 -2 -5 8 -33
22 -63 13 -30 24 -57 25 -60 1 -3 9 -23 18 -44 16 -37 59 -137 78 -181 4 -11
21 -50 38 -87 16 -37 27 -69 23 -72 -3 -3 0 -6 6 -6 7 0 12 -4 12 -10 0 -8
102 -255 155 -375 8 -16 36 -84 64 -150 28 -66 56 -128 62 -139 6 -10 12 -26
14 -35 2 -9 17 -46 34 -82 17 -36 31 -69 31 -73 0 -4 8 -26 19 -49 10 -23 28
-64 40 -92 12 -27 26 -59 31 -70 38 -85 52 -120 50 -120 -2 0 3 -11 10 -25 8
-14 14 -28 15 -31 0 -5 9 -27 65 -154 27 -62 46 -104 75 -175 15 -36 36 -85
47 -110 41 -91 48 -108 48 -113 0 -3 16 -40 35 -81 19 -42 35 -83 35 -91 0 -8
5 -15 10 -15 6 0 10 -6 10 -14 0 -7 14 -44 31 -82 36 -79 51 -115 54 -129 2
-5 14 -35 28 -65 46 -101 67 -150 67 -154 0 -2 10 -25 22 -52 12 -27 23 -51
23 -54 3 -9 40 -96 72 -167 9 -21 18 -42 19 -48 5 -18 72 -166 78 -172 3 -4 6
-12 6 -19 0 -7 13 -41 29 -76 32 -70 37 -83 127 -295 8 -18 20 -48 28 -65 17
-38 65 -153 77 -185 l8 -21 -762 -1 c-419 0 -790 0 -825 -1 l-63 0 2 -52 c3
-61 29 -129 61 -161 30 -30 88 -70 88 -61 0 3 7 1 16 -7 23 -19 5422 -19 5504
0 123 29 236 94 308 177 23 27 48 56 55 64 24 27 66 124 83 190 20 77 14 264
-9 286 -4 4 -7 15 -7 24 0 13 -41 117 -109 275 -5 11 -19 45 -31 75 -13 30
-30 71 -38 90 -9 19 -17 40 -18 45 -2 9 -26 67 -54 130 -5 11 -21 49 -36 85
-14 36 -32 79 -39 95 -7 17 -34 82 -60 145 -55 135 -90 219 -116 277 -11 24
-19 45 -19 48 0 3 -9 24 -19 48 -23 52 -33 78 -37 96 -1 8 -6 17 -11 20 -4 3
-9 11 -10 16 -1 6 -38 98 -83 205 -45 107 -83 200 -84 205 -1 6 -12 33 -25 60
-29 66 -32 73 -82 195 -23 58 -52 128 -64 155 -12 28 -27 66 -35 85 -7 19 -17
39 -22 45 -4 5 -8 18 -8 30 0 12 -6 27 -12 34 -7 6 -13 15 -14 19 0 4 -8 25
-18 47 -10 22 -19 45 -20 50 -1 6 -10 27 -19 49 -9 21 -17 40 -17 42 0 2 -10
26 -21 52 -36 81 -46 105 -79 187 -17 44 -35 85 -40 90 -5 6 -8 12 -8 15 -1 3
-5 18 -11 33 -6 16 -11 30 -11 31 0 2 -10 25 -22 52 -12 27 -23 54 -24 59 -1
6 -25 63 -53 129 -28 65 -51 124 -51 132 0 8 -4 14 -9 14 -5 0 -11 10 -14 23
-4 18 -45 120 -120 297 -6 14 -11 27 -12 30 -1 3 -7 18 -13 33 -7 16 -12 33
-12 38 0 5 -4 9 -10 9 -5 0 -10 6 -10 14 0 13 -25 78 -94 239 -38 90 -44 104
-57 137 -7 19 -23 58 -35 85 -12 28 -37 86 -54 130 -17 44 -38 96 -47 115 -18
41 -22 52 -63 150 -17 41 -39 93 -48 115 -9 21 -17 42 -18 45 -1 8 -22 57 -44
102 -11 23 -20 50 -20 60 0 10 -4 18 -10 18 -5 0 -10 7 -10 15 0 8 -4 23 -10
33 -5 9 -26 58 -46 107 -20 50 -43 106 -51 125 -28 65 -32 75 -59 140 -14 36
-31 76 -37 90 -6 14 -11 27 -12 30 -1 3 -9 23 -19 45 -10 22 -41 99 -71 170
-59 145 -72 176 -91 220 -7 17 -29 71 -48 120 -20 50 -41 98 -46 107 -5 9 -6
19 -2 21 12 7 953 0 1027 -7 62 -7 148 -22 225 -40 298 -70 545 -262 710 -553
29 -50 51 -95 50 -99 -1 -4 2 -10 7 -13 7 -5 73 -150 103 -226 25 -63 51 -138
71 -200 30 -99 31 -100 75 -100 l39 0 0 762 c0 502 -3 764 -10 766 -5 1 -1164
2 -2574 2 l-2564 -1 -30 66 c-16 36 -40 89 -53 118 -13 29 -24 54 -24 56 0 3
-16 38 -35 80 -19 42 -51 110 -70 152 -19 42 -35 78 -35 80 0 2 -18 43 -40 90
-22 47 -40 91 -40 98 0 7 -6 18 -12 24 -7 7 -13 16 -13 20 -1 4 -11 30 -24 57
-13 28 -38 84 -56 125 -17 41 -41 95 -53 120 -11 25 -48 108 -81 185 -34 77
-67 150 -73 162 -6 13 -8 26 -4 30 10 10 146 10 146 -1 0 -5 6 -4 13 1 6 5
121 8 255 8 l242 -2 1 46 c1 43 0 217 -1 234 0 4 -882 7 -1960 7 -1602 0
-1960 -2 -1960 -13z m4475 -2040 c156 -20 362 -94 466 -167 15 -11 32 -20 38
-20 6 0 11 -4 11 -8 0 -4 15 -16 33 -27 34 -20 227 -210 227 -224 0 -4 11 -21
25 -37 14 -16 25 -34 25 -40 0 -6 6 -17 14 -23 11 -10 54 -87 61 -111 1 -3 10
-23 20 -45 18 -41 37 -86 40 -95 1 -3 8 -18 15 -35 7 -16 14 -32 15 -35 1 -3
6 -16 12 -30 6 -14 23 -54 37 -90 15 -36 31 -74 36 -85 7 -16 65 -156 120
-290 14 -35 37 -89 59 -137 12 -26 21 -50 21 -53 0 -3 8 -25 19 -48 10 -23 53
-125 95 -227 86 -208 86 -206 116 -275 12 -27 23 -54 25 -60 1 -5 12 -32 23
-58 12 -27 22 -50 22 -52 0 -1 8 -20 17 -41 9 -22 17 -41 18 -44 1 -3 9 -23
19 -45 9 -22 38 -89 63 -150 25 -60 51 -123 58 -140 8 -16 37 -86 65 -155 72
-175 79 -191 95 -223 8 -16 15 -37 15 -48 0 -10 5 -19 10 -19 6 0 10 -9 10
-19 0 -11 4 -22 9 -25 5 -3 12 -17 15 -31 4 -14 17 -49 30 -78 21 -47 37 -84
41 -97 1 -3 6 -16 12 -30 6 -14 28 -65 48 -115 20 -49 43 -103 50 -120 8 -16
26 -59 40 -95 15 -36 34 -81 42 -100 9 -19 21 -48 28 -65 8 -16 28 -66 45
-110 17 -44 39 -96 48 -115 9 -19 17 -37 18 -40 0 -3 8 -22 17 -44 9 -21 17
-40 17 -42 0 -4 35 -82 86 -192 19 -41 34 -75 34 -78 0 -3 13 -32 76 -172 14
-31 61 -136 104 -233 43 -96 87 -195 98 -220 33 -72 72 -158 114 -254 22 -49
51 -115 66 -145 14 -30 26 -57 27 -60 3 -10 25 -60 46 -108 12 -26 31 -69 44
-97 12 -27 32 -72 45 -100 12 -27 31 -69 41 -93 11 -23 29 -63 41 -90 12 -26
22 -49 23 -52 0 -3 10 -25 22 -50 24 -52 56 -123 58 -130 0 -3 10 -25 22 -50
11 -25 30 -67 42 -95 12 -27 28 -63 36 -78 8 -16 15 -35 15 -43 0 -8 4 -14 9
-14 5 0 12 -12 15 -26 4 -14 18 -48 31 -75 17 -36 20 -51 12 -55 -23 -8 -422
4 -467 14 -25 6 -56 13 -70 16 -66 13 -133 37 -210 74 -57 27 -151 82 -160 92
-3 4 -25 20 -50 37 -37 25 -164 153 -205 205 -48 62 -111 178 -164 301 -27 62
-59 133 -97 215 -19 40 -34 75 -34 78 0 3 -10 26 -22 52 -12 26 -23 49 -23 52
-3 10 -58 135 -141 318 -13 29 -36 80 -50 115 -14 34 -36 85 -49 112 -35 77
-70 155 -150 340 -53 122 -63 145 -126 290 -24 55 -44 102 -44 105 -1 3 -11
26 -23 52 -22 46 -44 98 -47 108 0 3 -10 25 -22 50 -34 74 -56 124 -59 138 -1
7 -9 23 -16 35 -8 12 -20 41 -28 65 -7 23 -17 42 -22 42 -4 0 -8 11 -8 25 0
14 -4 25 -10 25 -5 0 -10 6 -10 13 0 8 -6 27 -14 43 -8 16 -22 47 -31 69 -9
22 -23 54 -31 70 -28 62 -47 110 -46 118 1 4 -3 7 -8 7 -6 0 -10 8 -10 18 0
10 -5 23 -12 30 -7 7 -8 12 -4 12 5 0 4 6 -2 13 -5 6 -38 77 -72 157 -34 80
-72 168 -85 195 -12 28 -42 95 -65 150 -23 55 -54 125 -67 155 -14 30 -32 71
-40 90 -8 19 -27 61 -41 94 -15 32 -27 62 -28 65 0 3 -7 22 -16 41 -26 58 -59
133 -73 165 -7 17 -23 52 -35 80 -26 58 -43 98 -44 105 -1 3 -14 31 -29 64
-15 32 -27 60 -27 62 0 2 -11 27 -24 56 -13 29 -38 87 -56 128 -18 41 -40 93
-50 115 -10 22 -32 74 -50 115 -18 41 -40 93 -50 115 -42 95 -141 324 -145
335 -2 5 -23 53 -55 125 -10 22 -32 74 -50 115 -18 41 -40 93 -50 115 -21 46
-197 453 -246 566 -18 42 -43 101 -57 130 -48 106 -66 96 165 93 112 -1 221
-5 243 -7z"/>
<path d="M3350 7185 c-12 -31 -24 -60 -59 -137 -11 -26 -21 -55 -21 -63 0 -8
-5 -15 -11 -15 -5 0 -7 -4 -4 -10 3 -5 2 -10 -3 -10 -5 0 -9 -6 -9 -12 -1 -11
-102 -259 -148 -363 -32 -73 -130 -309 -130 -315 0 -3 -3 -9 -7 -15 -3 -5 -22
-50 -42 -100 -20 -49 -41 -99 -46 -110 -29 -65 -73 -170 -74 -181 -1 -6 -8
-19 -15 -28 -7 -9 -11 -16 -8 -16 3 0 -6 -26 -20 -57 -14 -32 -41 -96 -60
-143 -19 -47 -41 -98 -48 -115 -7 -16 -41 -97 -75 -180 -34 -82 -71 -169 -81
-192 -10 -24 -19 -45 -19 -47 0 -2 -8 -21 -17 -42 -9 -22 -17 -41 -18 -44 -2
-7 -20 -48 -40 -95 -10 -22 -19 -44 -20 -50 -2 -9 -28 -68 -81 -192 -8 -17
-14 -36 -14 -42 0 -6 -4 -11 -8 -11 -5 0 -9 -6 -9 -12 0 -10 -203 -505 -243
-593 -35 -79 -80 -191 -80 -202 0 -7 -4 -13 -8 -13 -5 0 -9 -6 -9 -12 -1 -7
-24 -67 -53 -133 -29 -66 -52 -126 -53 -132 0 -7 -5 -13 -10 -13 -6 0 -8 -3
-4 -6 3 -4 0 -19 -9 -35 -8 -16 -14 -31 -14 -34 0 -3 -6 -18 -14 -33 -15 -29
-124 -290 -155 -372 -10 -25 -25 -61 -34 -80 -9 -19 -28 -64 -42 -100 -14 -36
-32 -78 -40 -95 -7 -16 -23 -54 -35 -84 -11 -30 -31 -75 -42 -100 -12 -25 -21
-52 -21 -58 0 -7 -4 -13 -9 -13 -4 0 -8 -6 -8 -14 0 -8 -13 -44 -30 -79 -16
-36 -30 -67 -30 -70 0 -2 -6 -20 -14 -38 -8 -19 -15 -38 -16 -44 -1 -5 -8 -21
-15 -35 -8 -14 -31 -65 -51 -115 -74 -178 -179 -323 -301 -416 -32 -24 -60
-47 -63 -51 -3 -4 -17 -12 -30 -18 -14 -5 -49 -24 -79 -40 -30 -16 -57 -27
-59 -25 -3 3 -10 1 -16 -4 -9 -7 -76 -32 -96 -36 -5 -1 -28 -7 -90 -21 -14 -4
-124 -8 -245 -10 -121 -2 -223 -4 -227 -4 -13 0 -9 -92 5 -131 7 -20 19 -44
26 -53 7 -9 10 -16 6 -16 -18 0 83 -82 108 -87 15 -3 30 -9 33 -14 3 -5 459
-9 1014 -9 l1010 0 0 62 c0 83 -14 131 -52 174 -25 29 -106 81 -115 75 -2 0
-4 -1 -5 0 -2 0 -32 2 -68 4 -69 3 -154 28 -181 51 -8 8 -20 14 -26 14 -30 0
-153 175 -159 225 0 5 -2 12 -3 15 -2 3 -4 30 -5 60 -2 62 7 120 25 165 7 17
13 35 15 40 1 6 19 48 39 95 20 47 45 108 57 135 11 28 25 61 31 75 6 14 11
27 12 30 1 3 6 16 12 30 6 14 34 81 63 150 28 69 58 139 65 155 7 17 20 50 30
75 10 25 29 69 43 99 14 30 25 61 25 68 0 7 4 13 9 13 4 0 8 6 8 14 0 8 16 52
36 98 20 45 37 88 38 93 1 6 12 33 25 60 12 28 26 59 31 70 15 33 74 180 75
185 1 3 9 23 19 45 9 22 33 78 52 125 19 47 44 104 55 127 10 24 19 45 19 48
0 9 77 192 107 255 65 137 185 258 318 320 28 13 57 26 65 30 9 4 35 11 58 15
23 4 42 11 42 15 0 5 345 9 767 10 422 0 769 2 771 5 5 5 -37 116 -50 132 -6
7 -8 13 -5 13 2 0 -12 39 -33 88 l-38 87 -306 0 c-168 0 -306 3 -306 7 0 4 -7
5 -16 1 -23 -8 -954 -10 -954 -1 0 12 62 163 72 176 6 6 8 12 5 12 -5 0 18 58
53 135 5 11 25 61 45 110 21 50 41 99 46 110 4 11 27 65 50 120 22 55 50 119
60 142 10 23 19 46 19 52 0 5 7 22 15 38 8 15 31 69 51 118 19 50 42 104 49
120 8 17 53 125 100 240 48 116 91 219 95 230 49 110 110 268 110 281 0 8 -9
34 -19 57 -10 23 -31 71 -46 107 -14 36 -33 80 -41 97 -8 18 -21 50 -28 70 -7
21 -23 61 -36 88 -12 28 -28 64 -35 80 l-13 30 -12 -30z"/>
</g>
</svg>
