<?xml version="1.0" encoding="utf-8"?>
<!-- Generator: Adobe Illustrator 22.1.0, SVG Export Plug-In . SVG Version: 6.00 Build 0)  -->
<svg version="1.1" id="Capa_1" xmlns="http://www.w3.org/2000/svg" xmlns:xlink="http://www.w3.org/1999/xlink" x="0px" y="0px"
	 viewBox="0 0 1109.7 149.7" style="enable-background:new 0 0 1109.7 149.7;" xml:space="preserve">
<style type="text/css">
	.st0{fill:#EEBD1F;}
	.st1{fill:#FFFFFF;}
	.st2{fill:#848F9E;}
</style>
<g>
	<path class="st0" d="M117.8,91.3c-0.9,0-1.8-0.7-2-1.6c-0.2-1.1,0.5-2.1,1.6-2.4c34.3-7.1,68.9-13.3,105.8-19
		c1.1-0.2,2.1,0.6,2.3,1.7c0.2,1.1-0.6,2.1-1.7,2.3c-36.8,5.7-71.3,11.9-105.6,19C118,91.3,117.9,91.3,117.8,91.3z"/>
</g>
<g>
	<path class="st0" d="M375,53.7c-1,0-1.9-0.8-2-1.8c-0.1-1.1,0.7-2.1,1.8-2.2c32.7-3,65.7-5.3,98-6.8c1.1,0,2,0.8,2.1,1.9
		c0.1,1.1-0.8,2-1.9,2.1c-32.3,1.6-65.2,3.9-97.9,6.8C375.1,53.7,375,53.7,375,53.7z"/>
</g>
<g>
	<path class="st0" d="M734.4,51.3c-0.1,0-0.1,0-0.2,0c-36.8-3.2-73.8-5.3-109.8-6.3c-1.1,0-2-1-1.9-2.1c0-1.1,1-2,2.1-1.9
		c36.1,1,73.1,3.1,110.1,6.3c1.1,0.1,1.9,1.1,1.8,2.2C736.3,50.5,735.4,51.3,734.4,51.3z"/>
</g>
<g>
	<g>
		<path class="st0" d="M991.6,90.4c-0.1,0-0.3,0-0.4,0c-33.9-7.5-69.3-14.3-105.3-20.2c-1.1-0.2-1.8-1.2-1.7-2.3
			c0.2-1.1,1.2-1.8,2.3-1.7C922.6,72.2,958.1,79,992,86.5c1.1,0.2,1.8,1.3,1.5,2.4C993.4,89.8,992.5,90.4,991.6,90.4z"/>
	</g>
	<g>
		<path class="st0" d="M988.2,99.2c-0.7,0-1.4-0.4-1.7-1c-0.6-1-0.2-2.2,0.7-2.7c4.6-2.7,10.5-3,14.9-2.9c-4.4-5.1-5.8-9.9-5.9-10.1
			c-0.3-1.1,0.3-2.2,1.4-2.5c1.1-0.3,2.2,0.3,2.5,1.4c0,0.1,1.7,5.5,6.9,10.6c0.9,0.8,1.1,2.2,0.6,3.2c-0.5,1.1-1.7,1.8-2.9,1.6
			c-3.7-0.4-10.7-0.6-15.4,2.1C988.9,99.1,988.5,99.2,988.2,99.2z M1004.1,94.8L1004.1,94.8L1004.1,94.8z"/>
	</g>
</g>
<g>
	<path class="st0" d="M1109.7,107.4c0,23.4-19,42.4-42.4,42.4c-23.4,0-42.4-19-42.4-42.4c0-23.4,19-42.4,42.4-42.4
		C1090.8,65,1109.7,84,1109.7,107.4"/>
</g>
<g>
	<path class="st1" d="M1091,101.3c-0.1,0-0.6,0-0.6,0c-0.5,0.1-0.9-0.2-1-0.6c-0.3-1.1-0.8-2.1-1.3-3.1c-0.7-1.5-0.8-1.5,0.4-2.8
		c1.8-2,1.8-4.3-0.1-6.2c-0.9-0.9-1.8-1.8-2.7-2.6c-1.6-1.5-3.8-1.5-5.5-0.1c-0.4,0.3-0.8,0.7-1.1,1c-0.4,0.5-0.7,0.5-1.3,0.2
		c-0.9-0.6-1.9-0.9-2.9-1.3c-1.7-0.6-1.7-0.6-1.8-2.5c-0.1-2.2-1.5-3.8-3.6-4.1c-0.9-0.2-1.9-0.1-2.8-0.1c-4.3,0-5.6,1.2-5.7,5.5
		c0,0.5-0.2,0.7-0.7,0.9c-1,0.3-2,0.7-3,1.1c-0.6,0.2-1.2,0.8-1.7,0.7c-0.5-0.1-0.9-0.8-1.4-1.2c-1.8-1.7-4.2-1.7-6,0
		c-0.9,0.9-1.8,1.8-2.7,2.7c-0.9,1-1.3,2.1-1.1,3.4c0.1,1,0.7,1.9,1.4,2.6c1.1,1.1,1.1,1.1,0.4,2.6c-0.4,0.8-0.7,1.5-1,2.3
		c-0.5,1.5-0.5,1.5-2.1,1.5c-2.6,0.1-4.4,1.7-4.5,4.1c-0.1,1.3-0.1,2.7,0,4c0.1,1.9,1.4,3.5,3.2,3.9c0.6,0.1,1.2,0.2,1.9,0.1
		c0.8-0.1,1.2,0.2,1.4,1c0.3,1,0.7,2,1.2,3c0.7,1.5,0.7,1.5-0.4,2.7c-1.9,1.9-1.9,4.3,0,6.3c0.8,0.8,1.6,1.6,2.4,2.4
		c1.1,1.1,2.4,1.5,3.9,1.3c1.1-0.2,1.9-0.8,2.6-1.7c0.6-0.7,1.1-0.8,1.9-0.3c0.8,0.5,1.6,0.8,2.5,1.1c1.8,0.7,1.8,0.7,1.9,2.6
		c0.1,2.4,1.8,4.1,4.2,4.2c1.3,0,2.6,0,3.9,0c1.9-0.1,3.4-1.3,3.9-3.2c0.2-0.7,0.2-1.4,0.1-2c0-0.6,0.1-1,0.8-1.1
		c1.1-0.2,2.1-0.7,3.1-1.2c1.5-0.7,1.5-0.7,2.8,0.4c2,1.9,4.4,1.9,6.3-0.1c0.8-0.8,1.7-1.6,2.4-2.5c1.3-1.4,1.6-3.3,0.7-4.9
		c-0.4-0.7-0.9-1.2-1.5-1.7c-0.5-0.4-0.6-0.8-0.2-1.4c0.7-1.2,1.3-2.5,1.6-3.9c0.2-0.6,0.5-0.8,1.1-0.8c0.7,0,2.2,0.1,2.9-0.1
		c1.6-0.4,2.9-1.6,3.9-3.1v-5.4C1095.9,102.1,1094,101.3,1091,101.3 M1090.8,109.6c-1,0-1.9,0-2.9,0c-1.1,0-1.7,0.5-2,1.5
		c-0.6,2.5-1.5,4.7-2.9,6.9c-0.6,1-0.4,1.7,0.3,2.6c0.7,0.7,1.4,1.4,2.1,2.1c0.4,0.4,0.4,0.7,0,1c-0.7,0.7-1.4,1.4-2.1,2.1
		c-0.4,0.4-0.7,0.4-1.1,0c-0.6-0.7-1.3-1.4-2-2c-0.9-0.9-1.7-1-2.7-0.3c-2.1,1.3-4.3,2.2-6.7,2.8c-1.2,0.3-1.6,1-1.7,2.2
		c0,0.9,0,1.8,0,2.7c0,0.5-0.1,0.8-0.7,0.8c-1,0-2,0-3,0c-0.5,0-0.7-0.2-0.7-0.7c0-0.9,0-1.8,0-2.7c0-1.4-0.5-2-1.8-2.3
		c-2.3-0.6-4.4-1.4-6.4-2.7c-1.2-0.7-1.9-0.6-2.9,0.4c-0.6,0.6-1.2,1.2-1.8,1.8c-0.4,0.4-0.7,0.5-1.1,0c-0.6-0.7-1.3-1.4-2-2
		c-0.5-0.4-0.4-0.7,0-1.2c0.6-0.6,1.3-1.2,1.9-1.9c0.9-0.9,1.1-1.7,0.4-2.8c-1.3-2.1-2.2-4.3-2.8-6.6c-0.3-1.2-0.9-1.7-2.2-1.7
		c-0.9,0-1.9,0-2.8,0c-0.5,0-0.7-0.2-0.7-0.7c0-1,0-2.1,0-3.1c0-0.5,0.2-0.6,0.7-0.6c0.9,0,1.8,0,2.7,0c1.3,0,2-0.5,2.3-1.8
		c0.6-2.3,1.4-4.5,2.7-6.5c0.7-1.1,0.6-1.9-0.3-2.9c-0.6-0.7-1.3-1.3-1.9-1.9c-0.4-0.4-0.4-0.6,0-1c0.7-0.7,1.4-1.3,2.1-2.1
		c0.4-0.4,0.7-0.4,1.1,0c0.6,0.7,1.3,1.3,2,2c0.8,0.8,1.6,0.9,2.6,0.3c2.1-1.3,4.3-2.2,6.7-2.8c1.2-0.3,1.7-0.9,1.7-2.2
		c0-0.9,0-1.8,0-2.6c0-0.6,0.2-0.9,0.8-0.8c0.9,0,1.8,0,2.7,0c0.6,0,0.3,0.2,0.2,0.8c0,0.5-0.7,0.9-0.7,1.4v0.6c0,2.2,1,2.6,3.1,3.1
		c2,0.5,4.3,1.3,6.1,2.5c1.3,0.8,2.2,0.7,3.2-0.4c0.6-0.6,1.3-1.2,1.9-1.8c0.4-0.4,0.7-0.5,1.1,0c0.7,0.7,1.4,1.4,2.1,2.1
		c0.4,0.4,0.4,0.7,0,1.1c-0.7,0.6-1.3,1.3-1.9,1.9c-0.9,0.9-1,1.7-0.3,2.8c1.3,2,2.2,4.2,2.7,6.5c0.3,1.4,0.9,1.8,2.4,1.8
		c0.9,0,1.8,0,2.6,0c0.5,0,0.7,0.2,0.7,0.7c0,1,0,2,0,3C1091.6,109.5,1091.3,109.7,1090.8,109.6"/>
</g>
<g>
	<path class="st1" d="M1067.1,95.8c-6.3,0-11.5,5.2-11.5,11.5c0,6.3,5.2,11.5,11.5,11.5c6.3,0,11.5-5.1,11.6-11.4
		C1078.6,101.1,1073.5,95.9,1067.1,95.8 M1067.1,115c-4.2,0-7.6-3.4-7.6-7.7c0-4.2,3.5-7.6,7.7-7.6c4.2,0,7.5,3.5,7.5,7.6
		C1074.7,111.6,1071.3,115,1067.1,115"/>
</g>
<g>
	<path class="st1" d="M1067.4,145.6c-21.1,0-38.2-17.1-38.2-38.2s17.1-38.2,38.2-38.2c21.1,0,38.2,17.1,38.2,38.2
		S1088.4,145.6,1067.4,145.6z M1067.4,71.2c-20,0-36.2,16.2-36.2,36.2s16.2,36.2,36.2,36.2c20,0,36.2-16.2,36.2-36.2
		S1087.3,71.2,1067.4,71.2z"/>
</g>
<g>
	<path class="st0" d="M590.7,42.4c0,23.4-19,42.4-42.4,42.4c-23.4,0-42.4-19-42.4-42.4S525,0,548.4,0C571.8,0,590.7,19,590.7,42.4"
		/>
</g>
<g>
	<path class="st1" d="M572,36.3c-0.1,0-0.6,0-0.6,0c-0.5,0.1-0.9-0.2-1-0.6c-0.3-1.1-0.8-2.1-1.3-3.1c-0.7-1.5-0.8-1.5,0.4-2.8
		c1.8-2,1.8-4.3-0.1-6.2c-0.9-0.9-1.8-1.8-2.7-2.6c-1.6-1.5-3.8-1.5-5.5-0.1c-0.4,0.3-0.8,0.7-1.1,1c-0.4,0.5-0.7,0.5-1.3,0.2
		c-0.9-0.6-1.9-0.9-2.9-1.3c-1.7-0.6-1.7-0.6-1.8-2.5c-0.1-2.2-1.5-3.8-3.6-4.1c-0.9-0.2-1.9-0.1-2.8-0.1c-4.3,0-5.6,1.2-5.7,5.5
		c0,0.5-0.2,0.7-0.7,0.9c-1,0.3-2,0.7-3,1.1c-0.6,0.2-1.2,0.8-1.7,0.7c-0.5-0.1-0.9-0.8-1.4-1.2c-1.8-1.7-4.2-1.7-6,0
		c-0.9,0.9-1.8,1.8-2.7,2.7c-0.9,1-1.3,2.1-1.1,3.4c0.1,1,0.7,1.9,1.4,2.6c1.1,1.1,1.1,1.1,0.4,2.6c-0.4,0.8-0.7,1.5-1,2.3
		c-0.5,1.5-0.5,1.5-2.1,1.5c-2.6,0.1-4.4,1.7-4.5,4.1c-0.1,1.3-0.1,2.7,0,4c0.1,1.9,1.4,3.5,3.2,3.9c0.6,0.1,1.2,0.2,1.9,0.1
		c0.8-0.1,1.2,0.2,1.4,1c0.3,1,0.7,2,1.2,3c0.7,1.5,0.7,1.5-0.4,2.7c-1.9,1.9-1.9,4.3,0,6.3c0.8,0.8,1.6,1.6,2.4,2.4
		c1.1,1.1,2.4,1.5,3.9,1.3c1.1-0.2,1.9-0.8,2.6-1.7c0.6-0.7,1.1-0.8,1.9-0.3c0.8,0.5,1.6,0.8,2.5,1.1c1.8,0.7,1.8,0.7,1.9,2.6
		c0.1,2.4,1.8,4.1,4.2,4.2c1.3,0,2.6,0,3.9,0c1.9-0.1,3.4-1.3,3.9-3.2c0.2-0.7,0.2-1.4,0.1-2c0-0.6,0.1-1,0.8-1.1
		c1.1-0.2,2.1-0.7,3.1-1.2c1.5-0.7,1.5-0.7,2.7,0.4c2,1.9,4.4,1.9,6.3-0.1c0.8-0.8,1.7-1.6,2.4-2.5c1.3-1.4,1.6-3.3,0.7-4.9
		c-0.4-0.7-0.9-1.2-1.5-1.7c-0.5-0.4-0.6-0.8-0.2-1.4c0.7-1.2,1.3-2.5,1.6-3.9c0.2-0.6,0.5-0.8,1.1-0.8c0.7,0,2.2,0.1,2.9-0.1
		c1.6-0.4,2.9-1.6,3.9-3.1v-5.4C576.9,37.1,575,36.3,572,36.3 M571.8,44.6c-1,0-1.9,0-2.9,0c-1.1,0-1.7,0.5-2,1.5
		c-0.6,2.5-1.5,4.7-2.9,6.9c-0.6,1-0.4,1.7,0.3,2.6c0.7,0.7,1.4,1.4,2.1,2.1c0.4,0.4,0.4,0.7,0,1c-0.7,0.7-1.4,1.4-2.1,2.1
		c-0.4,0.4-0.7,0.4-1.1,0c-0.6-0.7-1.3-1.4-2-2c-0.9-0.9-1.7-1-2.7-0.3c-2.1,1.3-4.3,2.2-6.7,2.8c-1.1,0.3-1.6,1-1.7,2.2
		c0,0.9,0,1.8,0,2.7c0,0.5-0.1,0.8-0.7,0.8c-1,0-2,0-3,0c-0.5,0-0.7-0.2-0.7-0.7c0-0.9,0-1.8,0-2.7c0-1.4-0.5-2-1.8-2.3
		c-2.3-0.6-4.4-1.4-6.4-2.7c-1.2-0.7-1.9-0.6-2.9,0.4c-0.6,0.6-1.2,1.2-1.8,1.8c-0.4,0.4-0.7,0.5-1.1,0c-0.6-0.7-1.3-1.4-2-2
		c-0.5-0.4-0.4-0.7,0-1.2c0.6-0.6,1.3-1.2,1.9-1.9c0.9-0.9,1.1-1.7,0.4-2.8c-1.3-2.1-2.2-4.3-2.8-6.6c-0.3-1.2-0.9-1.7-2.2-1.7
		c-0.9,0-1.9,0-2.8,0c-0.5,0-0.7-0.2-0.7-0.7c0-1,0-2.1,0-3.1c0-0.5,0.2-0.6,0.7-0.6c0.9,0,1.8,0,2.7,0c1.3,0,2-0.5,2.3-1.8
		c0.6-2.3,1.4-4.5,2.7-6.5c0.7-1.1,0.6-1.9-0.3-2.9c-0.6-0.7-1.3-1.3-1.9-1.9c-0.4-0.4-0.4-0.6,0-1c0.7-0.7,1.4-1.3,2.1-2.1
		c0.4-0.4,0.7-0.4,1.1,0c0.6,0.7,1.3,1.3,2,2c0.9,0.8,1.6,0.9,2.6,0.3c2.1-1.3,4.3-2.2,6.7-2.8c1.2-0.3,1.7-0.9,1.7-2.2
		c0-0.9,0-1.8,0-2.6c0-0.6,0.2-0.9,0.8-0.8c0.9,0,1.8,0,2.7,0c0.6,0,0.3,0.2,0.2,0.8c0,0.5-0.7,0.9-0.7,1.4v0.6c0,2.2,1,2.6,3.1,3.1
		c2,0.5,4.3,1.3,6.1,2.5c1.3,0.8,2.2,0.7,3.2-0.4c0.6-0.6,1.3-1.2,1.9-1.8c0.4-0.4,0.7-0.5,1.1,0c0.7,0.7,1.4,1.4,2.1,2.1
		c0.4,0.4,0.4,0.7,0,1.1c-0.7,0.6-1.3,1.3-1.9,1.9c-0.9,0.9-1,1.7-0.3,2.8c1.3,2,2.2,4.2,2.7,6.5c0.3,1.4,0.9,1.8,2.4,1.8
		c0.9,0,1.8,0,2.6,0c0.5,0,0.7,0.2,0.7,0.7c0,1,0,2,0,3C572.6,44.5,572.3,44.7,571.8,44.6"/>
</g>
<g>
	<path class="st1" d="M548.1,30.8c-6.3,0-11.5,5.2-11.5,11.5c0,6.3,5.2,11.5,11.5,11.5c6.3,0,11.5-5.1,11.6-11.4
		C559.6,36.1,554.5,30.9,548.1,30.8 M548.1,50c-4.2,0-7.6-3.4-7.6-7.7c0-4.2,3.5-7.6,7.7-7.6c4.2,0,7.5,3.5,7.5,7.6
		C555.7,46.6,552.3,50,548.1,50"/>
</g>
<g>
	<path class="st1" d="M548.4,80.6c-21.1,0-38.2-17.1-38.2-38.2s17.1-38.2,38.2-38.2c21.1,0,38.2,17.1,38.2,38.2
		S569.4,80.6,548.4,80.6z M548.4,6.2c-20,0-36.2,16.2-36.2,36.2s16.2,36.2,36.2,36.2s36.2-16.2,36.2-36.2S568.3,6.2,548.4,6.2z"/>
</g>
<g>
	<path class="st0" d="M341.7,59.4c0,23.4-19,42.4-42.4,42.4c-23.4,0-42.4-19-42.4-42.4S276,17,299.4,17
		C322.8,17,341.7,36,341.7,59.4"/>
</g>
<g>
	<path class="st1" d="M323,53.3c-0.1,0-0.6,0-0.6,0c-0.5,0.1-0.9-0.2-1-0.6c-0.3-1.1-0.8-2.1-1.3-3.1c-0.7-1.5-0.8-1.5,0.4-2.8
		c1.8-2,1.8-4.3-0.1-6.2c-0.9-0.9-1.8-1.8-2.7-2.6c-1.6-1.5-3.8-1.5-5.5-0.1c-0.4,0.3-0.8,0.7-1.1,1c-0.4,0.5-0.7,0.5-1.3,0.2
		c-0.9-0.6-1.9-0.9-2.9-1.3c-1.7-0.6-1.7-0.6-1.8-2.5c-0.1-2.2-1.5-3.8-3.6-4.1c-0.9-0.2-1.9-0.1-2.8-0.1c-4.3,0-5.6,1.2-5.7,5.5
		c0,0.5-0.2,0.7-0.7,0.9c-1,0.3-2,0.7-3,1.1c-0.6,0.2-1.2,0.8-1.7,0.7c-0.5-0.1-0.9-0.8-1.4-1.2c-1.8-1.7-4.2-1.7-6,0
		c-0.9,0.9-1.8,1.8-2.7,2.7c-0.9,1-1.3,2.1-1.1,3.4c0.1,1,0.7,1.9,1.4,2.6c1.1,1.1,1.1,1.1,0.4,2.6c-0.4,0.8-0.7,1.5-1,2.3
		c-0.5,1.5-0.5,1.5-2.1,1.5c-2.6,0.1-4.4,1.7-4.5,4.1c-0.1,1.3-0.1,2.7,0,4c0.1,1.9,1.4,3.5,3.2,3.9c0.6,0.1,1.2,0.2,1.9,0.1
		c0.8-0.1,1.2,0.2,1.4,1c0.3,1,0.7,2,1.2,3c0.7,1.5,0.7,1.5-0.4,2.7c-1.9,1.9-1.9,4.3,0,6.3c0.8,0.8,1.6,1.6,2.4,2.4
		c1.1,1.1,2.4,1.5,3.9,1.3c1.1-0.2,1.9-0.8,2.6-1.7c0.6-0.7,1.1-0.8,1.9-0.3c0.8,0.5,1.6,0.8,2.5,1.1c1.8,0.7,1.8,0.7,1.9,2.6
		c0.1,2.4,1.8,4.1,4.2,4.2c1.3,0,2.6,0,3.9,0c1.9-0.1,3.4-1.3,3.9-3.2c0.2-0.7,0.2-1.4,0.1-2c0-0.6,0.1-1,0.8-1.1
		c1.1-0.2,2.1-0.7,3.1-1.2c1.5-0.7,1.5-0.7,2.7,0.4c2,1.9,4.4,1.9,6.3-0.1c0.8-0.8,1.7-1.6,2.4-2.5c1.3-1.4,1.6-3.3,0.7-4.9
		c-0.4-0.7-0.9-1.2-1.5-1.7c-0.5-0.4-0.6-0.8-0.2-1.4c0.7-1.2,1.3-2.5,1.6-3.9c0.2-0.6,0.5-0.8,1.1-0.8c0.7,0,2.2,0.1,2.9-0.1
		c1.6-0.4,2.9-1.6,3.9-3.1v-5.4C327.9,54.1,326,53.3,323,53.3 M322.8,61.6c-1,0-1.9,0-2.9,0c-1.1,0-1.7,0.5-2,1.5
		c-0.6,2.5-1.5,4.7-2.9,6.9c-0.6,1-0.4,1.7,0.3,2.6c0.7,0.7,1.4,1.4,2.1,2.1c0.4,0.4,0.4,0.7,0,1c-0.7,0.7-1.4,1.4-2.1,2.1
		c-0.4,0.4-0.7,0.4-1.1,0c-0.6-0.7-1.3-1.4-2-2c-0.9-0.9-1.7-1-2.7-0.3c-2.1,1.3-4.3,2.2-6.7,2.8c-1.1,0.3-1.6,1-1.7,2.2
		c0,0.9,0,1.8,0,2.7c0,0.5-0.1,0.8-0.7,0.8c-1,0-2,0-3,0c-0.5,0-0.7-0.2-0.7-0.7c0-0.9,0-1.8,0-2.7c0-1.4-0.5-2-1.8-2.3
		c-2.3-0.6-4.4-1.4-6.4-2.7c-1.2-0.7-1.9-0.6-2.9,0.4c-0.6,0.6-1.2,1.2-1.8,1.8c-0.4,0.4-0.7,0.5-1.1,0c-0.6-0.7-1.3-1.4-2-2
		c-0.5-0.4-0.4-0.7,0-1.2c0.6-0.6,1.3-1.2,1.9-1.9c0.9-0.9,1.1-1.7,0.4-2.8c-1.3-2.1-2.2-4.3-2.8-6.6c-0.3-1.2-0.9-1.7-2.2-1.7
		c-0.9,0-1.9,0-2.8,0c-0.5,0-0.7-0.2-0.7-0.7c0-1,0-2.1,0-3.1c0-0.5,0.2-0.6,0.7-0.6c0.9,0,1.8,0,2.7,0c1.3,0,2-0.5,2.3-1.8
		c0.6-2.3,1.4-4.5,2.7-6.5c0.7-1.1,0.6-1.9-0.3-2.9c-0.6-0.7-1.3-1.3-1.9-1.9c-0.4-0.4-0.4-0.6,0-1c0.7-0.7,1.4-1.3,2.1-2.1
		c0.4-0.4,0.7-0.4,1.1,0c0.6,0.7,1.3,1.3,2,2c0.9,0.8,1.6,0.9,2.6,0.3c2.1-1.3,4.3-2.2,6.7-2.8c1.2-0.3,1.7-0.9,1.7-2.2
		c0-0.9,0-1.8,0-2.6c0-0.6,0.2-0.9,0.8-0.8c0.9,0,1.8,0,2.7,0c0.6,0,0.3,0.2,0.2,0.8c0,0.5-0.7,0.9-0.7,1.4v0.6c0,2.2,1,2.6,3.1,3.1
		c2,0.5,4.3,1.3,6.1,2.5c1.3,0.8,2.2,0.7,3.2-0.4c0.6-0.6,1.3-1.2,1.9-1.8c0.4-0.4,0.7-0.5,1.1,0c0.7,0.7,1.4,1.4,2.1,2.1
		c0.4,0.4,0.4,0.7,0,1.1c-0.7,0.6-1.3,1.3-1.9,1.9c-0.9,0.9-1,1.7-0.3,2.8c1.3,2,2.2,4.2,2.7,6.5c0.3,1.4,0.9,1.8,2.4,1.8
		c0.9,0,1.8,0,2.6,0c0.5,0,0.7,0.2,0.7,0.7c0,1,0,2,0,3C323.6,61.5,323.3,61.7,322.8,61.6"/>
</g>
<g>
	<path class="st1" d="M299.1,47.8c-6.3,0-11.5,5.2-11.5,11.5c0,6.3,5.2,11.5,11.5,11.5c6.3,0,11.5-5.1,11.6-11.4
		C310.6,53.1,305.5,47.9,299.1,47.8 M299.1,67c-4.2,0-7.6-3.4-7.6-7.7c0-4.2,3.5-7.6,7.7-7.6c4.2,0,7.5,3.5,7.5,7.6
		C306.7,63.6,303.3,67,299.1,67"/>
</g>
<g>
	<path class="st1" d="M299.4,97.6c-21.1,0-38.2-17.1-38.2-38.2c0-21.1,17.1-38.2,38.2-38.2s38.2,17.1,38.2,38.2
		C337.6,80.4,320.4,97.6,299.4,97.6z M299.4,23.2c-20,0-36.2,16.2-36.2,36.2c0,20,16.2,36.2,36.2,36.2s36.2-16.2,36.2-36.2
		C335.6,39.4,319.3,23.2,299.4,23.2z"/>
</g>
<g>
	<path class="st0" d="M84.7,107.4c0,23.4-19,42.4-42.4,42.4C19,149.7,0,130.8,0,107.4C0,84,19,65,42.4,65
		C65.8,65,84.7,84,84.7,107.4"/>
</g>
<g>
	<path class="st1" d="M66,101.3c-0.1,0-0.6,0-0.6,0c-0.5,0.1-0.9-0.2-1-0.6c-0.3-1.1-0.8-2.1-1.3-3.1c-0.7-1.5-0.8-1.5,0.4-2.8
		c1.8-2,1.8-4.3-0.1-6.2c-0.9-0.9-1.8-1.8-2.7-2.6c-1.6-1.5-3.8-1.5-5.5-0.1c-0.4,0.3-0.8,0.7-1.1,1c-0.4,0.5-0.7,0.5-1.3,0.2
		C52,86.5,51,86.1,50,85.7c-1.7-0.6-1.7-0.6-1.8-2.5c-0.1-2.2-1.5-3.8-3.6-4.1c-0.9-0.2-1.9-0.1-2.8-0.1c-4.3,0-5.6,1.2-5.7,5.5
		c0,0.5-0.2,0.7-0.7,0.9c-1,0.3-2,0.7-3,1.1c-0.6,0.2-1.2,0.8-1.7,0.7c-0.5-0.1-0.9-0.8-1.4-1.2c-1.8-1.7-4.2-1.7-6,0
		c-0.9,0.9-1.8,1.8-2.7,2.7c-0.9,1-1.3,2.1-1.1,3.4c0.1,1,0.7,1.9,1.4,2.6C22,96,22,96,21.3,97.4c-0.4,0.8-0.7,1.5-1,2.3
		c-0.5,1.5-0.5,1.5-2.1,1.5c-2.6,0.1-4.4,1.7-4.5,4.1c-0.1,1.3-0.1,2.7,0,4c0.1,1.9,1.4,3.5,3.2,3.9c0.6,0.1,1.2,0.2,1.9,0.1
		c0.8-0.1,1.2,0.2,1.4,1c0.3,1,0.7,2,1.2,3c0.7,1.5,0.7,1.5-0.4,2.7c-1.9,1.9-1.9,4.3,0,6.3c0.8,0.8,1.6,1.6,2.4,2.4
		c1.1,1.1,2.4,1.5,3.9,1.3c1.1-0.2,1.9-0.8,2.6-1.7c0.6-0.7,1.1-0.8,1.9-0.3c0.8,0.5,1.6,0.8,2.5,1.1c1.8,0.7,1.8,0.7,1.9,2.6
		c0.1,2.4,1.8,4.1,4.2,4.2c1.3,0,2.6,0,3.9,0c1.9-0.1,3.4-1.3,3.9-3.2c0.2-0.7,0.2-1.4,0.1-2c0-0.6,0.1-1,0.8-1.1
		c1.1-0.2,2.1-0.7,3.1-1.2c1.5-0.7,1.5-0.7,2.7,0.4c2,1.9,4.4,1.9,6.3-0.1c0.8-0.8,1.7-1.6,2.4-2.5c1.3-1.4,1.6-3.3,0.7-4.9
		c-0.4-0.7-0.9-1.2-1.5-1.7c-0.5-0.4-0.6-0.8-0.2-1.4c0.7-1.2,1.3-2.5,1.6-3.9c0.2-0.6,0.5-0.8,1.1-0.8c0.7,0,2.2,0.1,2.9-0.1
		c1.6-0.4,2.9-1.6,3.9-3.1v-5.4C70.9,102.1,69,101.3,66,101.3 M65.8,109.6c-1,0-1.9,0-2.9,0c-1.1,0-1.7,0.5-2,1.5
		c-0.6,2.5-1.5,4.7-2.9,6.9c-0.6,1-0.4,1.7,0.3,2.6c0.7,0.7,1.4,1.4,2.1,2.1c0.4,0.4,0.4,0.7,0,1c-0.7,0.7-1.4,1.4-2.1,2.1
		c-0.4,0.4-0.7,0.4-1.1,0c-0.6-0.7-1.3-1.4-2-2c-0.9-0.9-1.6-1-2.7-0.3c-2.1,1.3-4.3,2.2-6.7,2.8c-1.1,0.3-1.6,1-1.7,2.2
		c0,0.9,0,1.8,0,2.7c0,0.5-0.1,0.8-0.7,0.8c-1,0-2,0-3,0c-0.5,0-0.7-0.2-0.7-0.7c0-0.9,0-1.8,0-2.7c0-1.4-0.5-2-1.8-2.3
		c-2.3-0.6-4.4-1.4-6.4-2.7c-1.2-0.7-1.9-0.6-2.9,0.4c-0.6,0.6-1.2,1.2-1.8,1.8c-0.4,0.4-0.7,0.5-1.1,0c-0.6-0.7-1.3-1.4-2-2
		c-0.5-0.4-0.4-0.7,0-1.2c0.6-0.6,1.3-1.2,1.9-1.9c0.9-0.9,1.1-1.7,0.4-2.8c-1.3-2.1-2.2-4.3-2.8-6.6c-0.3-1.2-0.9-1.7-2.2-1.7
		c-0.9,0-1.9,0-2.8,0c-0.5,0-0.7-0.2-0.7-0.7c0-1,0-2.1,0-3.1c0-0.5,0.2-0.6,0.7-0.6c0.9,0,1.8,0,2.7,0c1.3,0,2-0.5,2.3-1.8
		c0.6-2.3,1.4-4.5,2.7-6.5c0.7-1.1,0.6-1.9-0.3-2.9c-0.6-0.7-1.3-1.3-1.9-1.9c-0.4-0.4-0.4-0.6,0-1c0.7-0.7,1.4-1.3,2.1-2.1
		c0.4-0.4,0.7-0.4,1.1,0c0.6,0.7,1.3,1.3,2,2c0.9,0.8,1.6,0.9,2.6,0.3c2.1-1.3,4.3-2.2,6.7-2.8c1.2-0.3,1.7-0.9,1.7-2.2
		c0-0.9,0-1.8,0-2.6c0-0.6,0.2-0.9,0.8-0.8c0.9,0,1.8,0,2.7,0c0.6,0,0.3,0.2,0.2,0.8c0,0.5-0.7,0.9-0.7,1.4v0.6c0,2.2,1,2.6,3.1,3.1
		c2,0.5,4.3,1.3,6.1,2.5c1.3,0.8,2.2,0.7,3.2-0.4c0.6-0.6,1.3-1.2,1.9-1.8c0.4-0.4,0.7-0.5,1.1,0c0.7,0.7,1.4,1.4,2.1,2.1
		c0.4,0.4,0.4,0.7,0,1.1c-0.7,0.6-1.3,1.3-1.9,1.9c-0.9,0.9-1,1.7-0.3,2.8c1.3,2,2.2,4.2,2.7,6.5c0.3,1.4,0.9,1.8,2.4,1.8
		c0.9,0,1.8,0,2.6,0c0.5,0,0.7,0.2,0.7,0.7c0,1,0,2,0,3C66.6,109.5,66.3,109.7,65.8,109.6"/>
</g>
<g>
	<path class="st1" d="M42.1,95.8c-6.3,0-11.5,5.2-11.5,11.5c0,6.3,5.2,11.5,11.5,11.5c6.3,0,11.5-5.1,11.6-11.4
		C53.6,101.1,48.5,95.9,42.1,95.8 M42.1,115c-4.2,0-7.6-3.4-7.6-7.7c0-4.2,3.5-7.6,7.7-7.6c4.2,0,7.5,3.5,7.5,7.6
		C49.7,111.6,46.3,115,42.1,115"/>
</g>
<g>
	<path class="st1" d="M42.4,145.6c-21.1,0-38.2-17.1-38.2-38.2s17.1-38.2,38.2-38.2c21.1,0,38.2,17.1,38.2,38.2
		S63.4,145.6,42.4,145.6z M42.4,71.2c-20,0-36.2,16.2-36.2,36.2s16.2,36.2,36.2,36.2c20,0,36.2-16.2,36.2-36.2S62.3,71.2,42.4,71.2z
		"/>
</g>
<g>
	<path class="st2" d="M852.7,59.4c0,23.4-19,42.4-42.4,42.4c-23.4,0-42.4-19-42.4-42.4S787,17,810.4,17
		C833.8,17,852.7,36,852.7,59.4"/>
</g>
<g>
	<path class="st1" d="M810.4,97.6c-21.1,0-38.2-17.1-38.2-38.2c0-21.1,17.1-38.2,38.2-38.2c21.1,0,38.2,17.1,38.2,38.2
		C848.6,80.4,831.4,97.6,810.4,97.6z M810.4,23.2c-20,0-36.2,16.2-36.2,36.2c0,20,16.2,36.2,36.2,36.2c20,0,36.2-16.2,36.2-36.2
		C846.6,39.4,830.3,23.2,810.4,23.2z"/>
</g>
<g>
	<path class="st0" d="M847.2,59.4c0,20.3-16.5,36.8-36.8,36.8c-20.3,0-36.8-16.5-36.8-36.8c0-20.3,16.5-36.8,36.8-36.8
		C830.7,22.6,847.2,39,847.2,59.4"/>
</g>
<g>
	<path class="st1" d="M810.1,47.8c-6.3,0-11.5,5.2-11.5,11.5c0,6.3,5.2,11.5,11.5,11.5c6.3,0,11.5-5.1,11.6-11.4
		C821.6,53.1,816.5,47.9,810.1,47.8 M810.1,67c-4.2,0-7.6-3.4-7.6-7.7c0-4.2,3.5-7.6,7.7-7.6c4.2,0,7.5,3.5,7.5,7.6
		C817.7,63.6,814.3,67,810.1,67"/>
</g>
<g>
	<path class="st1" d="M834,53.3c-0.1,0-0.6,0-0.6,0c-0.5,0.1-0.9-0.2-1-0.6c-0.3-1.1-0.8-2.1-1.3-3.1c-0.7-1.5-0.8-1.5,0.4-2.8
		c1.8-2,1.8-4.3-0.1-6.2c-0.9-0.9-1.8-1.8-2.7-2.6c-1.6-1.5-3.8-1.5-5.5-0.1c-0.4,0.3-0.8,0.7-1.1,1c-0.4,0.5-0.7,0.5-1.3,0.2
		c-0.9-0.6-1.9-0.9-2.9-1.3c-1.7-0.6-1.7-0.6-1.8-2.5c-0.1-2.2-1.5-3.8-3.6-4.1c-0.9-0.2-1.9-0.1-2.8-0.1c-4.3,0-5.6,1.2-5.7,5.5
		c0,0.5-0.2,0.7-0.7,0.9c-1,0.3-2,0.7-3,1.1c-0.6,0.2-1.2,0.8-1.7,0.7c-0.5-0.1-0.9-0.8-1.4-1.2c-1.8-1.7-4.2-1.7-6,0
		c-0.9,0.9-1.8,1.8-2.7,2.7c-0.9,1-1.3,2.1-1.1,3.4c0.1,1,0.7,1.9,1.4,2.6c1.1,1.1,1.1,1.1,0.4,2.6c-0.4,0.8-0.7,1.5-1,2.3
		c-0.5,1.5-0.5,1.5-2.1,1.5c-2.6,0.1-4.4,1.7-4.5,4.1c-0.1,1.3-0.1,2.7,0,4c0.1,1.9,1.4,3.5,3.2,3.9c0.6,0.1,1.2,0.2,1.9,0.1
		c0.8-0.1,1.2,0.2,1.4,1c0.3,1,0.7,2,1.2,3c0.7,1.5,0.7,1.5-0.4,2.7c-1.9,1.9-1.9,4.3,0,6.3c0.8,0.8,1.6,1.6,2.4,2.4
		c1.1,1.1,2.4,1.5,3.9,1.3c1.1-0.2,1.9-0.8,2.6-1.7c0.6-0.7,1.1-0.8,1.9-0.3c0.8,0.5,1.6,0.8,2.5,1.1c1.8,0.7,1.8,0.7,1.9,2.6
		c0.1,2.4,1.8,4.1,4.2,4.2c1.3,0,2.6,0,3.9,0c1.9-0.1,3.4-1.3,3.9-3.2c0.2-0.7,0.2-1.4,0.1-2c0-0.6,0.1-1,0.8-1.1
		c1.1-0.2,2.1-0.7,3.1-1.2c1.5-0.7,1.5-0.7,2.8,0.4c2,1.9,4.4,1.9,6.3-0.1c0.8-0.8,1.7-1.6,2.4-2.5c1.3-1.4,1.6-3.3,0.7-4.9
		c-0.4-0.7-0.9-1.2-1.5-1.7c-0.5-0.4-0.6-0.8-0.2-1.4c0.7-1.2,1.3-2.5,1.6-3.9c0.2-0.6,0.5-0.8,1.1-0.8c0.7,0,2.2,0.1,2.9-0.1
		c1.6-0.4,2.9-1.6,3.9-3.1v-5.4C838.9,54.1,837,53.3,834,53.3 M833.8,61.6c-1,0-1.9,0-2.9,0c-1.1,0-1.7,0.5-2,1.5
		c-0.6,2.5-1.5,4.7-2.9,6.9c-0.6,1-0.4,1.7,0.3,2.6c0.7,0.7,1.4,1.4,2.1,2.1c0.4,0.4,0.4,0.7,0,1c-0.7,0.7-1.4,1.4-2.1,2.1
		c-0.4,0.4-0.7,0.4-1.1,0c-0.6-0.7-1.3-1.4-2-2c-0.9-0.9-1.7-1-2.7-0.3c-2.1,1.3-4.3,2.2-6.7,2.8c-1.2,0.3-1.6,1-1.7,2.2
		c0,0.9,0,1.8,0,2.7c0,0.5-0.1,0.8-0.7,0.8c-1,0-2,0-3,0c-0.5,0-0.7-0.2-0.7-0.7c0-0.9,0-1.8,0-2.7c0-1.4-0.5-2-1.8-2.3
		c-2.3-0.6-4.4-1.4-6.4-2.7c-1.2-0.7-1.9-0.6-2.9,0.4c-0.6,0.6-1.2,1.2-1.8,1.8c-0.4,0.4-0.7,0.5-1.1,0c-0.6-0.7-1.3-1.4-2-2
		c-0.5-0.4-0.4-0.7,0-1.2c0.6-0.6,1.3-1.2,1.9-1.9c0.9-0.9,1.1-1.7,0.4-2.8c-1.3-2.1-2.2-4.3-2.8-6.6c-0.3-1.2-0.9-1.7-2.2-1.7
		c-0.9,0-1.9,0-2.8,0c-0.5,0-0.7-0.2-0.7-0.7c0-1,0-2.1,0-3.1c0-0.5,0.2-0.6,0.7-0.6c0.9,0,1.8,0,2.7,0c1.3,0,2-0.5,2.3-1.8
		c0.6-2.3,1.4-4.5,2.7-6.5c0.7-1.1,0.6-1.9-0.3-2.9c-0.6-0.7-1.3-1.3-1.9-1.9c-0.4-0.4-0.4-0.6,0-1c0.7-0.7,1.4-1.3,2.1-2.1
		c0.4-0.4,0.7-0.4,1.1,0c0.6,0.7,1.3,1.3,2,2c0.8,0.8,1.6,0.9,2.6,0.3c2.1-1.3,4.3-2.2,6.7-2.8c1.2-0.3,1.7-0.9,1.7-2.2
		c0-0.9,0-1.8,0-2.6c0-0.6,0.2-0.9,0.8-0.8c0.9,0,1.8,0,2.7,0c0.6,0,0.3,0.2,0.2,0.8c0,0.5-0.7,0.9-0.7,1.4v0.6c0,2.2,1,2.6,3.1,3.1
		c2,0.5,4.3,1.3,6.1,2.5c1.3,0.8,2.2,0.7,3.2-0.4c0.6-0.6,1.3-1.2,1.9-1.8c0.4-0.4,0.7-0.5,1.1,0c0.7,0.7,1.4,1.4,2.1,2.1
		c0.4,0.4,0.4,0.7,0,1.1c-0.7,0.6-1.3,1.3-1.9,1.9c-0.9,0.9-1,1.7-0.3,2.8c1.3,2,2.2,4.2,2.7,6.5c0.3,1.4,0.9,1.8,2.4,1.8
		c0.9,0,1.8,0,2.6,0c0.5,0,0.7,0.2,0.7,0.7c0,1,0,2,0,3C834.6,61.5,834.3,61.7,833.8,61.6"/>
</g>
</svg>
