<?xml version="1.0" encoding="utf-8"?>
<!-- Generator: Adobe Illustrator 22.1.0, SVG Export Plug-In . SVG Version: 6.00 Build 0)  -->
<svg version="1.1" id="Capa_1" xmlns="http://www.w3.org/2000/svg" xmlns:xlink="http://www.w3.org/1999/xlink" x="0px" y="0px"
	 viewBox="0 0 951.7 121.4" style="enable-background:new 0 0 951.7 121.4;" xml:space="preserve">
<style type="text/css">
	.st0{fill:#425060;}
	.st1{fill:none;stroke:#425060;stroke-width:1.049;stroke-miterlimit:10;}
	.st2{fill:none;stroke:#EEBD1F;stroke-width:4.794;stroke-miterlimit:10;}
	.st3{fill:#848F9E;}
</style>
<g>
	<path class="st0" d="M252.4,69.5l20.2-49.2h1.8l21.4,49.2h5.8v0.9h-22.8v-0.9h6.3l-7.9-18.2H261l-7.5,18.2h6v0.9h-12.8v-0.9H252.4z
		 M261.3,50.4h15.6l-8-18.5L261.3,50.4z"/>
	<path class="st1" d="M252.4,69.5l20.2-49.2h1.8l21.4,49.2h5.8v0.9h-22.8v-0.9h6.3l-7.9-18.2H261l-7.5,18.2h6v0.9h-12.8v-0.9H252.4z
		 M261.3,50.4h15.6l-8-18.5L261.3,50.4z"/>
	<path class="st0" d="M325.3,22.2v1H319v46.4h11.2c1.5,0,3-0.2,4.5-0.7c1.5-0.5,2.9-1.3,4.3-2.5c1.3-1.2,2.5-2.6,3.6-4.5
		c1.1-1.8,1.9-4.1,2.5-6.7h0.9v15.3h-43v-0.9h6.2V23.1H303v-1H325.3z"/>
	<path class="st1" d="M325.3,22.2v1H319v46.4h11.2c1.5,0,3-0.2,4.5-0.7c1.5-0.5,2.9-1.3,4.3-2.5c1.3-1.2,2.5-2.6,3.6-4.5
		c1.1-1.8,1.9-4.1,2.5-6.7h0.9v15.3h-43v-0.9h6.2V23.1H303v-1H325.3z"/>
	<path class="st0" d="M392.5,36c-0.5-1.5-1.1-3.1-1.8-4.7c-0.7-1.6-1.6-3.2-2.7-4.5c-1.1-1.4-2.5-2.5-4.1-3.4
		c-1.7-0.9-3.7-1.3-6.1-1.3c-3.3,0-5.9,0.6-7.8,1.8c-1.9,1.2-3.3,2.9-4.3,5.1c-1,2.2-1.6,4.8-1.9,7.8c-0.3,3-0.4,6.3-0.4,9.9
		c0,4.7,0.3,8.6,0.8,11.7c0.5,3.1,1.4,5.5,2.5,7.3c1.2,1.8,2.6,3.1,4.5,3.8c1.8,0.7,4,1.1,6.5,1.1c2,0,3.9-0.4,5.5-1.2
		c1.7-0.8,3.1-1.9,4.4-3.2c1.3-1.3,2.3-2.9,3.2-4.6c0.9-1.7,1.5-3.5,1.9-5.4h1.1v14.4h-1.1c-0.2-0.5-0.5-0.9-0.8-1.1
		c-0.3-0.2-0.8-0.3-1.4-0.3c-0.5,0-1.2,0.1-2.1,0.4c-0.9,0.2-1.8,0.5-2.9,0.8c-1.1,0.3-2.3,0.6-3.6,0.8c-1.3,0.2-2.7,0.4-4.1,0.4
		c-3.3,0-6.5-0.6-9.6-1.9c-3.1-1.3-5.8-3-8.1-5.3c-2.3-2.2-4.2-4.9-5.6-7.9c-1.4-3-2.1-6.3-2.1-9.8c0-3.8,0.8-7.3,2.3-10.4
		c1.6-3.1,3.6-5.8,6-8c2.4-2.2,5.2-3.9,8.2-5.1c3-1.2,6-1.8,8.8-1.8c1.4,0,2.8,0.1,4,0.4c1.2,0.3,2.4,0.6,3.5,0.8
		c1.1,0.3,2,0.6,2.9,0.8c0.9,0.3,1.6,0.4,2.2,0.4c0.6,0,1.1-0.1,1.4-0.2c0.3-0.2,0.5-0.6,0.7-1.2h1.1V36H392.5z"/>
	<path class="st1" d="M392.5,36c-0.5-1.5-1.1-3.1-1.8-4.7c-0.7-1.6-1.6-3.2-2.7-4.5c-1.1-1.4-2.5-2.5-4.1-3.4
		c-1.7-0.9-3.7-1.3-6.1-1.3c-3.3,0-5.9,0.6-7.8,1.8c-1.9,1.2-3.3,2.9-4.3,5.1c-1,2.2-1.6,4.8-1.9,7.8c-0.3,3-0.4,6.3-0.4,9.9
		c0,4.7,0.3,8.6,0.8,11.7c0.5,3.1,1.4,5.5,2.5,7.3c1.2,1.8,2.6,3.1,4.5,3.8c1.8,0.7,4,1.1,6.5,1.1c2,0,3.9-0.4,5.5-1.2
		c1.7-0.8,3.1-1.9,4.4-3.2c1.3-1.3,2.3-2.9,3.2-4.6c0.9-1.7,1.5-3.5,1.9-5.4h1.1v14.4h-1.1c-0.2-0.5-0.5-0.9-0.8-1.1
		c-0.3-0.2-0.8-0.3-1.4-0.3c-0.5,0-1.2,0.1-2.1,0.4c-0.9,0.2-1.8,0.5-2.9,0.8c-1.1,0.3-2.3,0.6-3.6,0.8c-1.3,0.2-2.7,0.4-4.1,0.4
		c-3.3,0-6.5-0.6-9.6-1.9c-3.1-1.3-5.8-3-8.1-5.3c-2.3-2.2-4.2-4.9-5.6-7.9c-1.4-3-2.1-6.3-2.1-9.8c0-3.8,0.8-7.3,2.3-10.4
		c1.6-3.1,3.6-5.8,6-8c2.4-2.2,5.2-3.9,8.2-5.1c3-1.2,6-1.8,8.8-1.8c1.4,0,2.8,0.1,4,0.4c1.2,0.3,2.4,0.6,3.5,0.8
		c1.1,0.3,2,0.6,2.9,0.8c0.9,0.3,1.6,0.4,2.2,0.4c0.6,0,1.1-0.1,1.4-0.2c0.3-0.2,0.5-0.6,0.7-1.2h1.1V36H392.5z"/>
	<path class="st0" d="M401.7,69.5L422,20.3h1.8l21.4,49.2h5.8v0.9h-22.8v-0.9h6.3l-7.9-18.2h-16.3l-7.5,18.2h6v0.9H396v-0.9H401.7z
		 M410.7,50.4h15.6l-8-18.5L410.7,50.4z"/>
	<path class="st1" d="M401.7,69.5L422,20.3h1.8l21.4,49.2h5.8v0.9h-22.8v-0.9h6.3l-7.9-18.2h-16.3l-7.5,18.2h6v0.9H396v-0.9H401.7z
		 M410.7,50.4h15.6l-8-18.5L410.7,50.4z"/>
	<polygon class="st0" points="470,22.2 470,23.1 464.7,23.1 478.5,46.8 491,23.1 485.1,23.1 485.1,22.2 498,22.2 498,23.1 
		492.1,23.1 479,48 479,69.5 485.3,69.5 485.3,70.5 463,70.5 463,69.5 469.2,69.5 469.2,50.6 453.5,23.1 448.2,23.1 448.2,22.2 	"/>
	<polygon class="st1" points="470,22.2 470,23.1 464.7,23.1 478.5,46.8 491,23.1 485.1,23.1 485.1,22.2 498,22.2 498,23.1 
		492.1,23.1 479,48 479,69.5 485.3,69.5 485.3,70.5 463,70.5 463,69.5 469.2,69.5 469.2,50.6 453.5,23.1 448.2,23.1 448.2,22.2 	"/>
	<path class="st0" d="M500.9,69.5l20.2-49.2h1.8l21.4,49.2h5.8v0.9h-22.8v-0.9h6.3l-7.9-18.2h-16.3L502,69.5h6v0.9h-12.8v-0.9H500.9
		z M509.9,50.4h15.6l-8-18.5L509.9,50.4z"/>
	<path class="st1" d="M500.9,69.5l20.2-49.2h1.8l21.4,49.2h5.8v0.9h-22.8v-0.9h6.3l-7.9-18.2h-16.3L502,69.5h6v0.9h-12.8v-0.9H500.9
		z M509.9,50.4h15.6l-8-18.5L509.9,50.4z"/>
	<path class="st0" d="M569.5,23.9c-1.9,1.2-3.4,2.8-4.4,4.7c-1,1.9-1.7,4.1-2,6.6c-0.3,2.5-0.5,5-0.5,7.5v5.9
		c0,4.1,0.3,7.6,0.8,10.4c0.5,2.8,1.4,5.1,2.5,6.8c1.2,1.7,2.6,2.9,4.5,3.7c1.8,0.7,4,1.1,6.5,1.1c2.1,0,3.7-0.4,5-1.1
		c1.2-0.7,2.2-1.8,2.8-3.1c0.7-1.3,1.1-2.8,1.3-4.6c0.2-1.8,0.3-3.7,0.3-5.8v-2.6h-7v-0.9h21v0.9h-4.4v15.5h-1.2
		c-0.1-0.5-0.3-0.9-0.8-1.2c-0.4-0.2-0.9-0.4-1.5-0.4c-1.1,0-2.1,0.2-3.1,0.6c-1,0.4-2,0.9-3.2,1.4c-1.1,0.5-2.4,1-3.9,1.4
		c-1.5,0.4-3.2,0.6-5.3,0.6c-3.3,0-6.5-0.6-9.6-1.9c-3.1-1.3-5.8-3-8.1-5.3c-2.3-2.2-4.2-4.9-5.6-7.9c-1.4-3-2.1-6.3-2.1-9.8
		c0-3.8,0.8-7.3,2.3-10.4c1.6-3.1,3.6-5.8,6-8c2.4-2.2,5.2-3.9,8.2-5.1c3-1.2,6-1.8,8.8-1.8c1.4,0,2.7,0.1,3.9,0.4
		c1.3,0.3,2.4,0.6,3.5,0.8c1.1,0.3,2.1,0.6,2.9,0.8c0.9,0.3,1.6,0.4,2.2,0.4c0.6,0,1.1-0.1,1.4-0.3c0.3-0.2,0.5-0.6,0.7-1.1h1.2V36
		h-1c-1.2-4.4-2.9-7.9-5.3-10.3c-2.4-2.5-5.5-3.7-9.4-3.6C573.9,22.1,571.4,22.7,569.5,23.9"/>
	<path class="st1" d="M569.5,23.9c-1.9,1.2-3.4,2.8-4.4,4.7c-1,1.9-1.7,4.1-2,6.6c-0.3,2.5-0.5,5-0.5,7.5v5.9
		c0,4.1,0.3,7.6,0.8,10.4c0.5,2.8,1.4,5.1,2.5,6.8c1.2,1.7,2.6,2.9,4.5,3.7c1.8,0.7,4,1.1,6.5,1.1c2.1,0,3.7-0.4,5-1.1
		c1.2-0.7,2.2-1.8,2.8-3.1c0.7-1.3,1.1-2.8,1.3-4.6c0.2-1.8,0.3-3.7,0.3-5.8v-2.6h-7v-0.9h21v0.9h-4.4v15.5h-1.2
		c-0.1-0.5-0.3-0.9-0.8-1.2c-0.4-0.2-0.9-0.4-1.5-0.4c-1.1,0-2.1,0.2-3.1,0.6c-1,0.4-2,0.9-3.2,1.4c-1.1,0.5-2.4,1-3.9,1.4
		c-1.5,0.4-3.2,0.6-5.3,0.6c-3.3,0-6.5-0.6-9.6-1.9c-3.1-1.3-5.8-3-8.1-5.3c-2.3-2.2-4.2-4.9-5.6-7.9c-1.4-3-2.1-6.3-2.1-9.8
		c0-3.8,0.8-7.3,2.3-10.4c1.6-3.1,3.6-5.8,6-8c2.4-2.2,5.2-3.9,8.2-5.1c3-1.2,6-1.8,8.8-1.8c1.4,0,2.7,0.1,3.9,0.4
		c1.3,0.3,2.4,0.6,3.5,0.8c1.1,0.3,2.1,0.6,2.9,0.8c0.9,0.3,1.6,0.4,2.2,0.4c0.6,0,1.1-0.1,1.4-0.3c0.3-0.2,0.5-0.6,0.7-1.1h1.2V36
		h-1c-1.2-4.4-2.9-7.9-5.3-10.3c-2.4-2.5-5.5-3.7-9.4-3.6C573.9,22.1,571.4,22.7,569.5,23.9"/>
	<path class="st0" d="M605.2,69.5l20.2-49.2h1.8l21.4,49.2h5.8v0.9h-22.8v-0.9h6.3L630,51.3h-16.3l-7.5,18.2h6v0.9h-12.8v-0.9H605.2
		z M614.1,50.4h15.6l-8-18.5L614.1,50.4z"/>
	<path class="st1" d="M605.2,69.5l20.2-49.2h1.8l21.4,49.2h5.8v0.9h-22.8v-0.9h6.3L630,51.3h-16.3l-7.5,18.2h6v0.9h-12.8v-0.9H605.2
		z M614.1,50.4h15.6l-8-18.5L614.1,50.4z"/>
	<path class="st0" d="M711.3,54.6c0.7-2.2,1-5.1,1-8.5c0-1.9-0.1-3.4-0.4-4.6c-0.3-1.2-0.7-2-1.3-2.7c-0.6-0.6-1.3-1.1-2.2-1.3
		c-0.9-0.2-1.9-0.3-3.1-0.3v-0.9H719v0.9c-1,0.2-1.9,0.4-2.6,0.6c-0.7,0.2-1.2,0.6-1.7,1.2c-0.4,0.6-0.7,1.4-1,2.4
		c-0.2,1.1-0.3,2.6-0.4,4.5c0,0.9-0.1,2-0.2,3.2c-0.1,1.2-0.3,2.5-0.5,3.9c-0.3,1.3-0.6,2.6-1,3.9c-0.4,1.3-1,2.5-1.7,3.5l3.1,5.5
		c0.2,0.3,0.5,0.7,1,1.2c0.5,0.5,1.1,0.7,1.9,0.7c0.7,0,1.2-0.2,1.6-0.7c0.4-0.5,0.7-1,1-1.6c0.2-0.6,0.4-1.2,0.5-1.7
		c0.1-0.5,0.1-0.9,0.1-1.1c0-0.2,0-0.4,0-0.6c0-0.2-0.1-0.4-0.2-0.6h0.9c0,0.1,0.1,0.2,0.1,0.4c0,0.2,0.1,0.4,0.1,0.6
		c0,0.2,0,0.7-0.1,1.7c-0.1,0.9-0.4,1.9-1,3c-0.6,1-1.4,2-2.6,2.8c-1.2,0.8-2.9,1.3-5.1,1.3c-2,0-3.5-0.4-4.6-1.2
		c-1.1-0.8-2-1.7-2.8-2.8c-0.7,0.5-1.3,1.1-2,1.5c-0.7,0.5-1.4,0.9-2.2,1.3c-0.8,0.4-1.8,0.7-2.9,0.9c-1.1,0.2-2.4,0.3-3.8,0.3
		c-3.4,0-6.2-0.6-8.3-1.7c-2.1-1.1-3.8-2.4-5-4c-1.2-1.6-2-3.2-2.4-4.8c-0.4-1.7-0.6-3.1-0.6-4.3c0-2.1,0.4-3.9,1.3-5.6
		c0.8-1.7,1.9-3.1,3.2-4.5c1.3-1.3,2.7-2.5,4.2-3.6c1.5-1.1,3-2,4.5-3c-0.7-1.9-1.3-3.4-1.6-4.6c-0.4-1.2-0.5-2.3-0.5-3.5
		c0-1.4,0.3-2.7,0.8-4c0.6-1.3,1.3-2.4,2.3-3.5c0.9-1,2-1.8,3.3-2.4c1.2-0.6,2.5-0.9,3.7-0.9c0.9,0,1.7,0.1,2.4,0.4
		c0.8,0.2,1.4,0.6,2,1.2c0.6,0.5,1.1,1.3,1.4,2.1c0.3,0.9,0.5,2,0.5,3.2c0,1.4-0.4,2.8-1.1,4.3c-0.7,1.5-2.3,3.1-4.8,4.7l11.4,22.3
		C710,58.4,710.7,56.9,711.3,54.6 M690.5,42c-0.3-0.6-0.5-1-0.6-1.3c-0.9,0.7-1.8,1.4-2.5,2c-0.7,0.6-1.3,1.2-1.8,1.9
		c-0.5,0.7-0.8,1.4-1,2.2c-0.2,0.8-0.3,1.7-0.3,2.8c0,0.8,0.2,1.9,0.5,3.2c0.3,1.3,0.8,2.7,1.3,4.2c0.6,1.5,1.2,3,2,4.5
		c0.8,1.5,1.7,2.8,2.6,4c0.9,1.2,1.9,2.2,3,2.9c1.1,0.8,2.1,1.2,3.2,1.2c1.2,0,2.3-0.3,3.3-0.8c1-0.6,2-1.3,3.2-2.2
		c-0.5-0.6-0.8-1.2-1.1-1.6c-0.2-0.4-0.5-0.9-0.7-1.4l-10.2-19.7C691.1,43.3,690.8,42.6,690.5,42 M702.7,26c-0.2-0.7-0.5-1.4-0.8-2
		c-0.4-0.6-0.8-1.1-1.4-1.4c-0.6-0.4-1.3-0.5-2.1-0.5c-0.1,0-0.4,0-0.9,0.1c-0.5,0-1,0.2-1.5,0.5c-0.5,0.3-1,0.8-1.4,1.4
		c-0.4,0.7-0.6,1.6-0.6,2.7c0,0.7,0.1,1.4,0.3,2.2c0.2,0.8,0.5,1.6,0.8,2.4c0.3,0.8,0.7,1.7,1.2,2.5c0.4,0.8,0.8,1.6,1.3,2.3
		c0.5-0.3,1-0.7,1.6-1.2c0.6-0.5,1.2-1,1.8-1.7c0.6-0.7,1-1.4,1.4-2.3c0.4-0.9,0.6-1.9,0.6-3C703,27.4,702.9,26.7,702.7,26"/>
	<path class="st1" d="M711.3,54.6c0.7-2.2,1-5.1,1-8.5c0-1.9-0.1-3.4-0.4-4.6c-0.3-1.2-0.7-2-1.3-2.7c-0.6-0.6-1.3-1.1-2.2-1.3
		c-0.9-0.2-1.9-0.3-3.1-0.3v-0.9H719v0.9c-1,0.2-1.9,0.4-2.6,0.6c-0.7,0.2-1.2,0.6-1.7,1.2c-0.4,0.6-0.7,1.4-1,2.4
		c-0.2,1.1-0.3,2.6-0.4,4.5c0,0.9-0.1,2-0.2,3.2c-0.1,1.2-0.3,2.5-0.5,3.9c-0.3,1.3-0.6,2.6-1,3.9c-0.4,1.3-1,2.5-1.7,3.5l3.1,5.5
		c0.2,0.3,0.5,0.7,1,1.2c0.5,0.5,1.1,0.7,1.9,0.7c0.7,0,1.2-0.2,1.6-0.7c0.4-0.5,0.7-1,1-1.6c0.2-0.6,0.4-1.2,0.5-1.7
		c0.1-0.5,0.1-0.9,0.1-1.1c0-0.2,0-0.4,0-0.6c0-0.2-0.1-0.4-0.2-0.6h0.9c0,0.1,0.1,0.2,0.1,0.4c0,0.2,0.1,0.4,0.1,0.6
		c0,0.2,0,0.7-0.1,1.7c-0.1,0.9-0.4,1.9-1,3c-0.6,1-1.4,2-2.6,2.8c-1.2,0.8-2.9,1.3-5.1,1.3c-2,0-3.5-0.4-4.6-1.2
		c-1.1-0.8-2-1.7-2.8-2.8c-0.7,0.5-1.3,1.1-2,1.5c-0.7,0.5-1.4,0.9-2.2,1.3c-0.8,0.4-1.8,0.7-2.9,0.9c-1.1,0.2-2.4,0.3-3.8,0.3
		c-3.4,0-6.2-0.6-8.3-1.7c-2.1-1.1-3.8-2.4-5-4c-1.2-1.6-2-3.2-2.4-4.8c-0.4-1.7-0.6-3.1-0.6-4.3c0-2.1,0.4-3.9,1.3-5.6
		c0.8-1.7,1.9-3.1,3.2-4.5c1.3-1.3,2.7-2.5,4.2-3.6c1.5-1.1,3-2,4.5-3c-0.7-1.9-1.3-3.4-1.6-4.6c-0.4-1.2-0.5-2.3-0.5-3.5
		c0-1.4,0.3-2.7,0.8-4c0.6-1.3,1.3-2.4,2.3-3.5c0.9-1,2-1.8,3.3-2.4c1.2-0.6,2.5-0.9,3.7-0.9c0.9,0,1.7,0.1,2.4,0.4
		c0.8,0.2,1.4,0.6,2,1.2c0.6,0.5,1.1,1.3,1.4,2.1c0.3,0.9,0.5,2,0.5,3.2c0,1.4-0.4,2.8-1.1,4.3c-0.7,1.5-2.3,3.1-4.8,4.7l11.4,22.3
		C710,58.4,710.7,56.9,711.3,54.6z M690.5,42c-0.3-0.6-0.5-1-0.6-1.3c-0.9,0.7-1.8,1.4-2.5,2c-0.7,0.6-1.3,1.2-1.8,1.9
		c-0.5,0.7-0.8,1.4-1,2.2c-0.2,0.8-0.3,1.7-0.3,2.8c0,0.8,0.2,1.9,0.5,3.2c0.3,1.3,0.8,2.7,1.3,4.2c0.6,1.5,1.2,3,2,4.5
		c0.8,1.5,1.7,2.8,2.6,4c0.9,1.2,1.9,2.2,3,2.9c1.1,0.8,2.1,1.2,3.2,1.2c1.2,0,2.3-0.3,3.3-0.8c1-0.6,2-1.3,3.2-2.2
		c-0.5-0.6-0.8-1.2-1.1-1.6c-0.2-0.4-0.5-0.9-0.7-1.4l-10.2-19.7C691.1,43.3,690.8,42.6,690.5,42z M702.7,26c-0.2-0.7-0.5-1.4-0.8-2
		c-0.4-0.6-0.8-1.1-1.4-1.4c-0.6-0.4-1.3-0.5-2.1-0.5c-0.1,0-0.4,0-0.9,0.1c-0.5,0-1,0.2-1.5,0.5c-0.5,0.3-1,0.8-1.4,1.4
		c-0.4,0.7-0.6,1.6-0.6,2.7c0,0.7,0.1,1.4,0.3,2.2c0.2,0.8,0.5,1.6,0.8,2.4c0.3,0.8,0.7,1.7,1.2,2.5c0.4,0.8,0.8,1.6,1.3,2.3
		c0.5-0.3,1-0.7,1.6-1.2c0.6-0.5,1.2-1,1.8-1.7c0.6-0.7,1-1.4,1.4-2.3c0.4-0.9,0.6-1.9,0.6-3C703,27.4,702.9,26.7,702.7,26z"/>
	<path class="st0" d="M760.8,23.1c-1.7,0-3.2,0.2-4.5,0.5c-1.3,0.3-2.5,0.9-3.5,1.8c-1,0.8-2,2-2.8,3.5c-0.8,1.5-1.6,3.4-2.2,5.7
		h-0.9V22.2h42.5v12.4h-0.9c-0.7-2.3-1.4-4.2-2.2-5.7c-0.8-1.5-1.7-2.7-2.8-3.5c-1-0.8-2.2-1.4-3.5-1.8c-1.3-0.3-2.8-0.5-4.5-0.5
		h-2.4v46.4h6.2v0.9H757v-0.9h6.2V23.1H760.8z"/>
	<path class="st1" d="M760.8,23.1c-1.7,0-3.2,0.2-4.5,0.5c-1.3,0.3-2.5,0.9-3.5,1.8c-1,0.8-2,2-2.8,3.5c-0.8,1.5-1.6,3.4-2.2,5.7
		h-0.9V22.2h42.5v12.4h-0.9c-0.7-2.3-1.4-4.2-2.2-5.7c-0.8-1.5-1.7-2.7-2.8-3.5c-1-0.8-2.2-1.4-3.5-1.8c-1.3-0.3-2.8-0.5-4.5-0.5
		h-2.4v46.4h6.2v0.9H757v-0.9h6.2V23.1H760.8z"/>
	<path class="st0" d="M797.3,36c1.6-3.1,3.6-5.8,6-8c2.4-2.2,5.2-3.9,8.2-5.1c3-1.2,6-1.8,8.9-1.8c3.1,0,6.2,0.6,9.3,1.8
		c3.1,1.2,5.8,2.8,8.1,5c2.4,2.2,4.3,4.8,5.8,7.9c1.5,3.1,2.2,6.6,2.2,10.5c0,3.4-0.7,6.6-2.1,9.7c-1.4,3.1-3.2,5.7-5.6,8
		c-2.3,2.3-5,4.1-8.1,5.5c-3,1.3-6.3,2-9.7,2c-3.3,0-6.6-0.6-9.6-1.9c-3.1-1.3-5.8-3-8.1-5.3c-2.3-2.2-4.2-4.9-5.6-7.9
		c-1.4-3-2.1-6.3-2.1-9.8C794.9,42.6,795.7,39.1,797.3,36 M806.8,58.2c0.5,3.1,1.4,5.6,2.5,7.4c1.2,1.8,2.6,3.1,4.5,3.8
		c1.8,0.7,4,1.1,6.5,1.1c3.3,0,6-0.6,7.9-1.9c1.9-1.2,3.3-3,4.3-5.2c0.9-2.2,1.5-4.8,1.8-7.8c0.2-3,0.4-6.3,0.4-9.8
		c0-3.2-0.1-6.2-0.3-9.1c-0.2-2.9-0.8-5.4-1.7-7.6c-0.9-2.2-2.4-3.9-4.3-5.2c-1.9-1.3-4.6-1.9-8-1.9c-3.2,0-5.7,0.6-7.6,1.8
		c-1.9,1.2-3.3,2.9-4.3,5.1c-1,2.2-1.7,4.7-2,7.7c-0.3,3-0.5,6.3-0.5,9.8C806,51.2,806.3,55.1,806.8,58.2"/>
	<path class="st1" d="M797.3,36c1.6-3.1,3.6-5.8,6-8c2.4-2.2,5.2-3.9,8.2-5.1c3-1.2,6-1.8,8.9-1.8c3.1,0,6.2,0.6,9.3,1.8
		c3.1,1.2,5.8,2.8,8.1,5c2.4,2.2,4.3,4.8,5.8,7.9c1.5,3.1,2.2,6.6,2.2,10.5c0,3.4-0.7,6.6-2.1,9.7c-1.4,3.1-3.2,5.7-5.6,8
		c-2.3,2.3-5,4.1-8.1,5.5c-3,1.3-6.3,2-9.7,2c-3.3,0-6.6-0.6-9.6-1.9c-3.1-1.3-5.8-3-8.1-5.3c-2.3-2.2-4.2-4.9-5.6-7.9
		c-1.4-3-2.1-6.3-2.1-9.8C794.9,42.6,795.7,39.1,797.3,36z M806.8,58.2c0.5,3.1,1.4,5.6,2.5,7.4c1.2,1.8,2.6,3.1,4.5,3.8
		c1.8,0.7,4,1.1,6.5,1.1c3.3,0,6-0.6,7.9-1.9c1.9-1.2,3.3-3,4.3-5.2c0.9-2.2,1.5-4.8,1.8-7.8c0.2-3,0.4-6.3,0.4-9.8
		c0-3.2-0.1-6.2-0.3-9.1c-0.2-2.9-0.8-5.4-1.7-7.6c-0.9-2.2-2.4-3.9-4.3-5.2c-1.9-1.3-4.6-1.9-8-1.9c-3.2,0-5.7,0.6-7.6,1.8
		c-1.9,1.2-3.3,2.9-4.3,5.1c-1,2.2-1.7,4.7-2,7.7c-0.3,3-0.5,6.3-0.5,9.8C806,51.2,806.3,55.1,806.8,58.2z"/>
	<path class="st0" d="M850.9,23.1v-0.9h10.2c1.9,0,3.8,0,5.6-0.1c1.9-0.1,3.7-0.1,5.6-0.1c1.8,0,3.6,0.2,5.6,0.5
		c2,0.4,3.8,1,5.4,1.9c1.6,0.9,3,2.1,4,3.6c1.1,1.5,1.6,3.4,1.6,5.6c0,1.8-0.4,3.4-1.2,4.6c-0.8,1.3-1.9,2.3-3.2,3.2
		c-1.3,0.8-2.7,1.4-4.3,1.9c-1.6,0.4-3.1,0.7-4.7,0.8v0.3c2.2,0.4,4.2,0.8,5.9,1.2c1.7,0.4,3.2,1,4.5,1.8c1.3,0.8,2.3,1.9,3,3.4
		c0.7,1.4,1.2,3.4,1.4,5.8c0.2,2.8,0.4,5.1,0.5,6.8c0.1,1.7,0.3,3.1,0.6,4c0.2,0.9,0.6,1.6,1,1.9c0.4,0.3,1,0.5,1.9,0.5
		c0.9,0,1.6-0.3,2.2-0.8c0.6-0.5,1.1-1,1.6-1.5l0.7,0.6c-0.5,0.5-0.9,0.9-1.3,1.3c-0.4,0.4-0.9,0.7-1.5,1c-0.6,0.3-1.3,0.5-2.1,0.6
		c-0.8,0.2-1.8,0.2-3,0.2c-2.5,0-4.4-0.4-5.8-1.2c-1.4-0.8-2.4-1.8-3.1-2.9c-0.7-1.2-1.1-2.5-1.3-3.8c-0.2-1.4-0.3-2.7-0.3-3.9
		c-0.1-1.9-0.2-3.6-0.4-5.4c-0.2-1.7-0.5-3.3-1.1-4.6c-0.6-1.4-1.5-2.4-2.6-3.3c-1.2-0.8-2.8-1.2-4.9-1.2H867v24.5h6.2v0.9h-22.3
		v-0.9h6.2V23.1H850.9z M869.8,44.1c2,0,3.6-0.3,4.8-0.8c1.2-0.5,2.1-1.3,2.6-2.2c0.6-0.9,1-2,1.1-3.2c0.2-1.2,0.2-2.4,0.2-3.6
		c0-2-0.1-3.7-0.4-5.1c-0.3-1.4-0.7-2.6-1.4-3.5c-0.6-0.9-1.5-1.6-2.6-2.1c-1.1-0.5-2.5-0.7-4.2-0.7c-0.5,0-1,0-1.5,0.1l-1.5,0.1v21
		H869.8z"/>
	<path class="st1" d="M850.9,23.1v-0.9h10.2c1.9,0,3.8,0,5.6-0.1c1.9-0.1,3.7-0.1,5.6-0.1c1.8,0,3.6,0.2,5.6,0.5
		c2,0.4,3.8,1,5.4,1.9c1.6,0.9,3,2.1,4,3.6c1.1,1.5,1.6,3.4,1.6,5.6c0,1.8-0.4,3.4-1.2,4.6c-0.8,1.3-1.9,2.3-3.2,3.2
		c-1.3,0.8-2.7,1.4-4.3,1.9c-1.6,0.4-3.1,0.7-4.7,0.8v0.3c2.2,0.4,4.2,0.8,5.9,1.2c1.7,0.4,3.2,1,4.5,1.8c1.3,0.8,2.3,1.9,3,3.4
		c0.7,1.4,1.2,3.4,1.4,5.8c0.2,2.8,0.4,5.1,0.5,6.8c0.1,1.7,0.3,3.1,0.6,4c0.2,0.9,0.6,1.6,1,1.9c0.4,0.3,1,0.5,1.9,0.5
		c0.9,0,1.6-0.3,2.2-0.8c0.6-0.5,1.1-1,1.6-1.5l0.7,0.6c-0.5,0.5-0.9,0.9-1.3,1.3c-0.4,0.4-0.9,0.7-1.5,1c-0.6,0.3-1.3,0.5-2.1,0.6
		c-0.8,0.2-1.8,0.2-3,0.2c-2.5,0-4.4-0.4-5.8-1.2c-1.4-0.8-2.4-1.8-3.1-2.9c-0.7-1.2-1.1-2.5-1.3-3.8c-0.2-1.4-0.3-2.7-0.3-3.9
		c-0.1-1.9-0.2-3.6-0.4-5.4c-0.2-1.7-0.5-3.3-1.1-4.6c-0.6-1.4-1.5-2.4-2.6-3.3c-1.2-0.8-2.8-1.2-4.9-1.2H867v24.5h6.2v0.9h-22.3
		v-0.9h6.2V23.1H850.9z M869.8,44.1c2,0,3.6-0.3,4.8-0.8c1.2-0.5,2.1-1.3,2.6-2.2c0.6-0.9,1-2,1.1-3.2c0.2-1.2,0.2-2.4,0.2-3.6
		c0-2-0.1-3.7-0.4-5.1c-0.3-1.4-0.7-2.6-1.4-3.5c-0.6-0.9-1.5-1.6-2.6-2.1c-1.1-0.5-2.5-0.7-4.2-0.7c-0.5,0-1,0-1.5,0.1l-1.5,0.1v21
		H869.8z"/>
	<path class="st0" d="M902.7,36c1.6-3.1,3.6-5.8,6-8c2.4-2.2,5.2-3.9,8.2-5.1c3-1.2,6-1.8,8.9-1.8c3.1,0,6.2,0.6,9.3,1.8
		c3.1,1.2,5.8,2.8,8.1,5c2.4,2.2,4.3,4.8,5.8,7.9c1.5,3.1,2.2,6.6,2.2,10.5c0,3.4-0.7,6.6-2.1,9.7c-1.4,3.1-3.2,5.7-5.6,8
		c-2.3,2.3-5,4.1-8.1,5.5c-3,1.3-6.3,2-9.7,2c-3.3,0-6.6-0.6-9.6-1.9c-3.1-1.3-5.8-3-8.1-5.3c-2.3-2.2-4.2-4.9-5.6-7.9
		c-1.4-3-2.1-6.3-2.1-9.8C900.4,42.6,901.2,39.1,902.7,36 M912.2,58.2c0.5,3.1,1.4,5.6,2.5,7.4c1.2,1.8,2.6,3.1,4.5,3.8
		c1.8,0.7,4,1.1,6.5,1.1c3.3,0,6-0.6,7.9-1.9c1.9-1.2,3.3-3,4.3-5.2c0.9-2.2,1.5-4.8,1.8-7.8c0.2-3,0.4-6.3,0.4-9.8
		c0-3.2-0.1-6.2-0.3-9.1c-0.2-2.9-0.8-5.4-1.7-7.6c-0.9-2.2-2.4-3.9-4.3-5.2c-1.9-1.3-4.6-1.9-8-1.9c-3.2,0-5.7,0.6-7.6,1.8
		c-1.9,1.2-3.3,2.9-4.3,5.1c-1,2.2-1.6,4.7-2,7.7c-0.3,3-0.5,6.3-0.5,9.8C911.4,51.2,911.7,55.1,912.2,58.2"/>
	<path class="st1" d="M902.7,36c1.6-3.1,3.6-5.8,6-8c2.4-2.2,5.2-3.9,8.2-5.1c3-1.2,6-1.8,8.9-1.8c3.1,0,6.2,0.6,9.3,1.8
		c3.1,1.2,5.8,2.8,8.1,5c2.4,2.2,4.3,4.8,5.8,7.9c1.5,3.1,2.2,6.6,2.2,10.5c0,3.4-0.7,6.6-2.1,9.7c-1.4,3.1-3.2,5.7-5.6,8
		c-2.3,2.3-5,4.1-8.1,5.5c-3,1.3-6.3,2-9.7,2c-3.3,0-6.6-0.6-9.6-1.9c-3.1-1.3-5.8-3-8.1-5.3c-2.3-2.2-4.2-4.9-5.6-7.9
		c-1.4-3-2.1-6.3-2.1-9.8C900.4,42.6,901.2,39.1,902.7,36z M912.2,58.2c0.5,3.1,1.4,5.6,2.5,7.4c1.2,1.8,2.6,3.1,4.5,3.8
		c1.8,0.7,4,1.1,6.5,1.1c3.3,0,6-0.6,7.9-1.9c1.9-1.2,3.3-3,4.3-5.2c0.9-2.2,1.5-4.8,1.8-7.8c0.2-3,0.4-6.3,0.4-9.8
		c0-3.2-0.1-6.2-0.3-9.1c-0.2-2.9-0.8-5.4-1.7-7.6c-0.9-2.2-2.4-3.9-4.3-5.2c-1.9-1.3-4.6-1.9-8-1.9c-3.2,0-5.7,0.6-7.6,1.8
		c-1.9,1.2-3.3,2.9-4.3,5.1c-1,2.2-1.6,4.7-2,7.7c-0.3,3-0.5,6.3-0.5,9.8C911.4,51.2,911.7,55.1,912.2,58.2z"/>
	<line class="st2" x1="193.6" y1="33.8" x2="193.6" y2="105"/>
	<path class="st0" d="M142.7,104.4L110,25.6h11.4c1.7,0.1,3.3,0.3,4.7,0.7c1.8,0.5,3.5,1.3,5,2.5c1.5,1.2,2.8,2.8,3.9,4.9
		c1.1,2,2.1,4.5,3,7.5h1V25.6h0l0-0.1l0-3.5H74.5L66.3,3.6h8.4V0H25.5L27,3.6h4.9c6.1,0,11.5,3.8,13.6,9.5l41.6,97.5H70.2l0,0h-3.8
		v0.7c0,1.6,1.3,2.9,2.8,3l0,0h0.1h2.5h38.2h14.6h11.4C141.2,114.2,144.6,109.1,142.7,104.4 M125.3,110.6h-3.1
		c-5.6,0-10.6-3.3-12.8-8.4c-0.1-0.3-6.5-14.7-6.5-14.7L76,25.6h3.8c6.1,0,11.5,3.8,13.6,9.5L112,79.7l13.8,30.9H125.3z"/>
	<path class="st0" d="M54.9,68.8H35l9.8-23.6L42,38.5l-27,64.8l0,0c-1.3,3.1-3.7,5.4-6.7,6.5c-1.3,0.5-2.8,0.8-4.3,0.8H1.8H0v0.7
		c0,1.3,0.8,2.4,1.8,2.9v0h0c0.4,0.2,0.9,0.3,1.4,0.3h24.5v-1.2c0-1.4-1-2.5-2.3-2.7c-0.1,0-0.2,0-0.4,0c-0.9,0-1.7-0.2-2.5-0.6
		c-0.7-0.4-1.3-0.9-1.7-1.6c-0.9-1.3-1.1-3-0.5-4.5l10.7-25.8c1.3-3.1,4.4-5.2,7.8-5.2h17.8L54.9,68.8z"/>
	<g>
		<path class="st3" d="M267.3,91.4c-0.5-0.8-1.2-1.5-1.9-2.1c-0.8-0.6-1.6-1-2.5-1.3c-0.9-0.3-1.9-0.4-2.9-0.4c-1.8,0-3.4,0.3-4.7,1
			c-1.3,0.7-2.4,1.6-3.2,2.8c-0.8,1.1-1.5,2.4-1.9,3.9c-0.4,1.4-0.6,2.9-0.6,4.4c0,1.5,0.2,3,0.6,4.4c0.4,1.5,1,2.8,1.9,3.9
			c0.8,1.1,1.9,2.1,3.2,2.8c1.3,0.7,2.9,1,4.7,1c1.3,0,2.4-0.2,3.5-0.7c1-0.5,1.9-1.1,2.7-1.9c0.7-0.8,1.4-1.7,1.8-2.8
			c0.5-1.1,0.8-2.2,0.9-3.5h2.6c-0.2,1.7-0.6,3.2-1.2,4.6c-0.6,1.4-1.4,2.5-2.4,3.5s-2.1,1.7-3.5,2.2c-1.3,0.5-2.8,0.8-4.4,0.8
			c-2.2,0-4.1-0.4-5.7-1.2c-1.6-0.8-3-1.8-4.1-3.2c-1.1-1.3-1.9-2.8-2.4-4.6c-0.5-1.7-0.8-3.5-0.8-5.5c0-1.9,0.3-3.7,0.8-5.5
			c0.5-1.7,1.4-3.3,2.4-4.6c1.1-1.3,2.4-2.4,4.1-3.2c1.6-0.8,3.5-1.2,5.7-1.2c1.3,0,2.6,0.2,3.8,0.6c1.3,0.4,2.4,1,3.4,1.7
			c1,0.8,1.9,1.7,2.6,2.8c0.7,1.1,1.1,2.4,1.3,3.8h-2.6C268.2,93.2,267.8,92.2,267.3,91.4z"/>
		<path class="st3" d="M288.4,93.8c1.2,0.6,2.2,1.3,3,2.3c0.8,1,1.4,2.1,1.8,3.3c0.4,1.3,0.6,2.6,0.6,4.1c0,1.4-0.2,2.8-0.6,4.1
			c-0.4,1.3-1,2.4-1.8,3.3c-0.8,1-1.8,1.7-3,2.3c-1.2,0.6-2.5,0.8-4,0.8c-1.5,0-2.9-0.3-4-0.8c-1.2-0.6-2.2-1.3-3-2.3
			c-0.8-1-1.4-2.1-1.8-3.3c-0.4-1.3-0.6-2.6-0.6-4.1c0-1.4,0.2-2.8,0.6-4.1c0.4-1.3,1-2.4,1.8-3.3c0.8-1,1.8-1.7,3-2.3
			c1.2-0.6,2.5-0.9,4-0.9C285.9,93,287.2,93.2,288.4,93.8z M281.3,95.7c-0.9,0.5-1.6,1.1-2.2,1.9c-0.6,0.8-1,1.7-1.3,2.7
			c-0.3,1-0.4,2.1-0.4,3.1c0,1.1,0.1,2.1,0.4,3.1c0.3,1,0.7,1.9,1.3,2.7c0.6,0.8,1.3,1.4,2.2,1.9c0.9,0.5,1.9,0.7,3.1,0.7
			c1.2,0,2.2-0.2,3.1-0.7c0.9-0.5,1.6-1.1,2.2-1.9c0.6-0.8,1-1.7,1.3-2.7c0.3-1,0.4-2.1,0.4-3.1c0-1.1-0.1-2.1-0.4-3.1
			c-0.3-1-0.7-1.9-1.3-2.7c-0.6-0.8-1.3-1.4-2.2-1.9c-0.9-0.5-1.9-0.7-3.1-0.7C283.2,95,282.2,95.3,281.3,95.7z"/>
		<path class="st3" d="M300.7,93.5V97h0.1c0.5-1.2,1.3-2.2,2.5-2.9c1.2-0.7,2.5-1.1,3.9-1.1c1.4,0,2.6,0.2,3.5,0.5
			c0.9,0.4,1.7,0.9,2.3,1.5c0.6,0.7,1,1.5,1.2,2.4c0.2,1,0.3,2,0.3,3.2v12.8h-2.4V101c0-0.9-0.1-1.6-0.2-2.4
			c-0.2-0.7-0.4-1.4-0.8-1.9c-0.4-0.5-0.9-1-1.6-1.3c-0.7-0.3-1.5-0.5-2.5-0.5c-1,0-1.9,0.2-2.6,0.5c-0.8,0.3-1.4,0.8-1.9,1.4
			c-0.5,0.6-0.9,1.3-1.2,2.2c-0.3,0.8-0.5,1.7-0.5,2.7v11.6h-2.4v-20H300.7z"/>
		<path class="st3" d="M331.6,97.4c-0.3-0.6-0.7-1-1.1-1.4c-0.5-0.4-1-0.6-1.6-0.8c-0.6-0.2-1.3-0.3-2-0.3c-0.5,0-1.1,0.1-1.6,0.2
			c-0.6,0.1-1.1,0.3-1.5,0.6c-0.5,0.3-0.8,0.6-1.1,1.1c-0.3,0.4-0.4,1-0.4,1.6c0,0.5,0.1,1,0.4,1.4c0.3,0.4,0.6,0.7,1,0.9
			c0.4,0.3,0.9,0.5,1.4,0.6c0.5,0.2,0.9,0.3,1.4,0.4l3.2,0.7c0.7,0.1,1.4,0.3,2.1,0.6c0.7,0.3,1.3,0.6,1.8,1.1c0.5,0.4,1,1,1.3,1.6
			c0.3,0.6,0.5,1.4,0.5,2.3c0,1.1-0.2,2-0.7,2.8c-0.5,0.8-1.1,1.4-1.9,1.9c-0.8,0.5-1.6,0.8-2.6,1c-1,0.2-1.9,0.3-2.8,0.3
			c-2.3,0-4.2-0.6-5.7-1.7c-1.5-1.1-2.3-2.9-2.5-5.3h2.4c0.1,1.6,0.7,2.9,1.8,3.7c1.1,0.8,2.5,1.3,4.1,1.3c0.6,0,1.2-0.1,1.8-0.2
			c0.6-0.1,1.2-0.3,1.8-0.7c0.5-0.3,1-0.7,1.3-1.2c0.3-0.5,0.5-1.1,0.5-1.8c0-0.6-0.1-1.1-0.4-1.5c-0.2-0.4-0.6-0.7-1-1
			c-0.4-0.3-0.9-0.5-1.4-0.7c-0.5-0.2-1.1-0.3-1.6-0.5l-3.1-0.7c-0.8-0.2-1.5-0.4-2.2-0.7c-0.7-0.3-1.3-0.6-1.8-1
			c-0.5-0.4-0.9-0.9-1.2-1.5c-0.3-0.6-0.4-1.3-0.4-2.1c0-1,0.2-1.9,0.7-2.6c0.5-0.7,1-1.3,1.8-1.7c0.7-0.4,1.5-0.8,2.4-1
			c0.9-0.2,1.8-0.3,2.6-0.3c1,0,1.9,0.1,2.8,0.4c0.9,0.3,1.6,0.7,2.3,1.2c0.7,0.5,1.2,1.2,1.6,2c0.4,0.8,0.6,1.7,0.7,2.8H332
			C332,98.6,331.8,98,331.6,97.4z"/>
		<path class="st3" d="M353.6,113.5v-3.6h-0.1c-0.6,1.3-1.6,2.4-2.8,3.1c-1.2,0.7-2.6,1.1-4.1,1.1c-1.3,0-2.3-0.2-3.2-0.5
			c-0.9-0.3-1.6-0.8-2.2-1.5c-0.6-0.6-1-1.4-1.2-2.4c-0.3-0.9-0.4-2-0.4-3.2v-13h2.4v13c0.1,1.8,0.5,3.2,1.3,4.1
			c0.8,0.9,2.1,1.4,4.1,1.4c1.1,0,2-0.2,2.7-0.7c0.7-0.5,1.4-1.1,1.9-1.8c0.5-0.7,0.9-1.6,1.1-2.6c0.2-1,0.3-2,0.3-3V93.5h2.4v20
			H353.6z"/>
		<path class="st3" d="M363.8,85.9v27.6h-2.4V85.9H363.8z"/>
		<path class="st3" d="M377.4,93.5v2.1h-4.1v13.5c0,0.8,0.1,1.4,0.3,1.9c0.2,0.5,0.8,0.7,1.6,0.8c0.7,0,1.4,0,2.1-0.1v2.1
			c-0.4,0-0.7,0-1.1,0c-0.4,0-0.7,0-1.1,0c-1.6,0-2.8-0.3-3.4-0.9c-0.6-0.6-1-1.8-0.9-3.5V95.6h-3.5v-2.1h3.5v-6h2.4v6H377.4z"/>
		<path class="st3" d="M394.3,93.8c1.2,0.6,2.2,1.3,3,2.3c0.8,1,1.4,2.1,1.8,3.3c0.4,1.3,0.6,2.6,0.6,4.1c0,1.4-0.2,2.8-0.6,4.1
			c-0.4,1.3-1,2.4-1.8,3.3c-0.8,1-1.8,1.7-3,2.3c-1.2,0.6-2.5,0.8-4,0.8c-1.5,0-2.9-0.3-4-0.8c-1.2-0.6-2.2-1.3-3-2.3
			c-0.8-1-1.4-2.1-1.8-3.3c-0.4-1.3-0.6-2.6-0.6-4.1c0-1.4,0.2-2.8,0.6-4.1c0.4-1.3,1-2.4,1.8-3.3c0.8-1,1.8-1.7,3-2.3
			c1.2-0.6,2.5-0.9,4-0.9C391.8,93,393.2,93.2,394.3,93.8z M387.2,95.7c-0.9,0.5-1.6,1.1-2.2,1.9c-0.6,0.8-1,1.7-1.3,2.7
			c-0.3,1-0.4,2.1-0.4,3.1c0,1.1,0.1,2.1,0.4,3.1c0.3,1,0.7,1.9,1.3,2.7c0.6,0.8,1.3,1.4,2.2,1.9c0.9,0.5,1.9,0.7,3.1,0.7
			c1.2,0,2.2-0.2,3.1-0.7c0.9-0.5,1.6-1.1,2.2-1.9c0.6-0.8,1-1.7,1.3-2.7c0.3-1,0.4-2.1,0.4-3.1c0-1.1-0.1-2.1-0.4-3.1
			c-0.3-1-0.7-1.9-1.3-2.7c-0.6-0.8-1.3-1.4-2.2-1.9c-0.9-0.5-1.9-0.7-3.1-0.7C389.1,95,388.1,95.3,387.2,95.7z"/>
		<path class="st3" d="M406.6,93.5v4.7h0.1c0.6-1.6,1.6-2.9,2.9-3.8c1.3-0.9,2.9-1.3,4.7-1.2v2.4c-1.1-0.1-2.1,0.1-3,0.4
			c-0.9,0.3-1.7,0.8-2.3,1.5c-0.7,0.6-1.2,1.4-1.5,2.3c-0.4,0.9-0.5,1.9-0.5,2.9v10.6h-2.4v-20H406.6z"/>
		<path class="st3" d="M416.4,90.8l4.1-5.5h3l-5.1,5.5H416.4z M417.5,93.5h2.4v20h-2.4V93.5z"/>
		<path class="st3" d="M426.1,96.6c0.4-0.9,1-1.5,1.7-2.1c0.7-0.5,1.5-0.9,2.5-1.2c1-0.3,2-0.4,3.2-0.4c0.9,0,1.8,0.1,2.6,0.3
			c0.9,0.2,1.7,0.5,2.4,0.9c0.7,0.5,1.3,1.1,1.7,2c0.4,0.8,0.7,1.9,0.7,3.3V110c0,1,0.5,1.5,1.4,1.5c0.3,0,0.5-0.1,0.8-0.2v2.1
			c-0.3,0.1-0.5,0.1-0.8,0.1c-0.2,0-0.5,0-0.8,0c-0.6,0-1.1-0.1-1.5-0.3c-0.4-0.2-0.7-0.4-0.9-0.7c-0.2-0.3-0.3-0.7-0.4-1.1
			c-0.1-0.4-0.1-0.9-0.1-1.4h-0.1c-0.4,0.6-0.9,1.2-1.3,1.7c-0.5,0.5-1,0.9-1.5,1.3c-0.6,0.3-1.2,0.6-1.9,0.8
			c-0.7,0.2-1.6,0.3-2.5,0.3c-0.9,0-1.8-0.1-2.6-0.3c-0.8-0.2-1.5-0.6-2.1-1c-0.6-0.5-1.1-1.1-1.4-1.8c-0.3-0.7-0.5-1.6-0.5-2.6
			c0-1.4,0.3-2.5,0.9-3.3c0.6-0.8,1.4-1.4,2.5-1.8c1-0.4,2.2-0.7,3.4-0.9c1.3-0.2,2.6-0.3,3.9-0.5c0.5-0.1,1-0.1,1.4-0.2
			c0.4-0.1,0.7-0.2,1-0.4c0.3-0.2,0.5-0.5,0.6-0.8c0.1-0.3,0.2-0.8,0.2-1.3c0-0.8-0.1-1.5-0.4-2c-0.3-0.5-0.6-0.9-1.1-1.3
			c-0.5-0.3-1-0.5-1.7-0.6c-0.6-0.1-1.3-0.2-2-0.2c-1.5,0-2.8,0.4-3.8,1.1c-1,0.7-1.5,1.9-1.5,3.5h-2.4
			C425.4,98.5,425.7,97.5,426.1,96.6z M438.3,102.6c-0.2,0.3-0.5,0.5-0.9,0.6c-0.4,0.1-0.8,0.2-1.2,0.3c-1,0.2-2.1,0.3-3.2,0.5
			c-1.1,0.1-2.1,0.4-3,0.6c-0.9,0.3-1.6,0.7-2.2,1.2c-0.6,0.5-0.9,1.3-0.9,2.3c0,0.6,0.1,1.2,0.4,1.6c0.2,0.5,0.6,0.9,1,1.2
			c0.4,0.3,0.9,0.6,1.4,0.8c0.5,0.2,1.1,0.3,1.7,0.3c0.9,0,1.8-0.1,2.7-0.4c0.9-0.3,1.6-0.7,2.2-1.2c0.6-0.5,1.1-1.2,1.5-2
			c0.4-0.8,0.6-1.6,0.6-2.6L438.3,102.6L438.3,102.6z"/>
		<path class="st3" d="M473.6,113.5v-3.8h-0.1c-0.3,0.6-0.6,1.2-1.1,1.8c-0.5,0.5-1.1,1-1.7,1.4c-0.6,0.4-1.3,0.7-2.1,0.9
			c-0.7,0.2-1.5,0.3-2.2,0.3c-1.5,0-2.8-0.3-4-0.8c-1.1-0.6-2.1-1.3-2.8-2.3c-0.7-1-1.3-2.1-1.7-3.4c-0.4-1.3-0.5-2.6-0.5-4
			s0.2-2.8,0.5-4c0.4-1.3,0.9-2.4,1.7-3.4c0.7-1,1.7-1.7,2.8-2.3c1.1-0.6,2.4-0.9,4-0.9c0.7,0,1.5,0.1,2.2,0.3
			c0.7,0.2,1.4,0.5,2,0.8c0.6,0.4,1.2,0.8,1.6,1.4c0.5,0.5,0.8,1.2,1.1,1.9h0.1V85.9h2.4v27.6H473.6z M460.2,106.6
			c0.2,1,0.6,1.9,1.2,2.7c0.5,0.8,1.2,1.5,2,2c0.8,0.5,1.8,0.8,3,0.8c1.3,0,2.4-0.3,3.3-0.8c0.9-0.5,1.6-1.2,2.2-2
			c0.6-0.8,1-1.7,1.2-2.7c0.2-1,0.4-2,0.4-3.1c0-1-0.1-2.1-0.4-3.1c-0.2-1-0.6-1.9-1.2-2.7c-0.6-0.8-1.3-1.5-2.2-2
			c-0.9-0.5-2-0.8-3.3-0.8c-1.2,0-2.2,0.3-3,0.8c-0.8,0.5-1.5,1.2-2,2c-0.5,0.8-0.9,1.7-1.2,2.7c-0.2,1-0.4,2-0.4,3.1
			C459.9,104.6,460,105.6,460.2,106.6z"/>
		<path class="st3" d="M483.3,106.9c0.2,0.9,0.6,1.8,1.2,2.5c0.5,0.7,1.2,1.4,2,1.9c0.8,0.5,1.8,0.7,3,0.7c1.8,0,3.2-0.5,4.2-1.4
			c1-0.9,1.7-2.2,2.1-3.7h2.4c-0.5,2.3-1.5,4-2.8,5.3c-1.4,1.2-3.3,1.9-5.9,1.9c-1.6,0-2.9-0.3-4.1-0.8c-1.1-0.6-2.1-1.3-2.8-2.3
			c-0.7-1-1.3-2.1-1.6-3.4c-0.3-1.3-0.5-2.6-0.5-4c0-1.3,0.2-2.6,0.5-3.9c0.3-1.3,0.9-2.4,1.6-3.4c0.7-1,1.7-1.8,2.8-2.4
			c1.1-0.6,2.5-0.9,4.1-0.9c1.6,0,3,0.3,4.1,1c1.1,0.6,2.1,1.5,2.8,2.5c0.7,1,1.2,2.2,1.5,3.6c0.3,1.4,0.4,2.7,0.4,4.1h-15.4
			C482.9,105.1,483,106,483.3,106.9z M495.3,99.5c-0.3-0.9-0.7-1.6-1.3-2.3c-0.5-0.7-1.2-1.2-2-1.6c-0.8-0.4-1.7-0.6-2.6-0.6
			c-1,0-1.9,0.2-2.7,0.6c-0.8,0.4-1.4,0.9-2,1.6c-0.5,0.7-1,1.4-1.3,2.3c-0.3,0.9-0.5,1.7-0.6,2.6h12.9
			C495.8,101.2,495.6,100.3,495.3,99.5z"/>
		<path class="st3" d="M517.5,85.9l16.1,23.4h0.1V85.9h2.6v27.6h-2.9l-16.1-23.4h-0.1v23.4h-2.6V85.9H517.5z"/>
		<path class="st3" d="M544.1,106.9c0.2,0.9,0.6,1.8,1.2,2.5c0.5,0.7,1.2,1.4,2,1.9c0.8,0.5,1.8,0.7,3,0.7c1.8,0,3.2-0.5,4.2-1.4
			c1-0.9,1.7-2.2,2.1-3.7h2.4c-0.5,2.3-1.5,4-2.8,5.3c-1.4,1.2-3.3,1.9-5.9,1.9c-1.6,0-2.9-0.3-4.1-0.8c-1.1-0.6-2.1-1.3-2.8-2.3
			c-0.7-1-1.3-2.1-1.6-3.4c-0.3-1.3-0.5-2.6-0.5-4c0-1.3,0.2-2.6,0.5-3.9c0.3-1.3,0.9-2.4,1.6-3.4c0.7-1,1.7-1.8,2.8-2.4
			c1.1-0.6,2.5-0.9,4.1-0.9c1.6,0,3,0.3,4.1,1c1.1,0.6,2.1,1.5,2.8,2.5c0.7,1,1.2,2.2,1.5,3.6c0.3,1.4,0.4,2.7,0.4,4.1h-15.4
			C543.8,105.1,543.9,106,544.1,106.9z M556.2,99.5c-0.3-0.9-0.7-1.6-1.3-2.3c-0.5-0.7-1.2-1.2-2-1.6c-0.8-0.4-1.7-0.6-2.6-0.6
			c-1,0-1.9,0.2-2.7,0.6c-0.8,0.4-1.4,0.9-2,1.6c-0.5,0.7-1,1.4-1.3,2.3c-0.3,0.9-0.5,1.7-0.6,2.6h12.9
			C556.6,101.2,556.5,100.3,556.2,99.5z"/>
		<path class="st3" d="M579.7,115.9c-0.3,1.2-0.8,2.2-1.5,3c-0.7,0.8-1.6,1.5-2.7,1.9c-1.1,0.4-2.5,0.7-4.1,0.7c-1,0-2-0.1-2.9-0.3
			c-1-0.2-1.8-0.6-2.6-1.1c-0.8-0.5-1.4-1.1-1.9-1.9c-0.5-0.8-0.8-1.7-0.9-2.7h2.4c0.1,0.7,0.4,1.4,0.8,1.9c0.4,0.5,0.8,0.9,1.4,1.2
			c0.5,0.3,1.1,0.5,1.8,0.7c0.6,0.1,1.3,0.2,2,0.2c2.3,0,3.9-0.6,4.9-1.9c1-1.3,1.5-3.1,1.5-5.6v-2.7h-0.1c-0.6,1.2-1.4,2.2-2.5,3
			c-1.1,0.7-2.4,1.1-3.8,1.1c-1.6,0-3-0.3-4.1-0.8c-1.1-0.5-2.1-1.3-2.8-2.2c-0.7-0.9-1.3-2-1.6-3.3c-0.3-1.3-0.5-2.6-0.5-4
			c0-1.4,0.2-2.7,0.6-3.9c0.4-1.2,1-2.3,1.7-3.2c0.8-0.9,1.7-1.6,2.8-2.2c1.1-0.5,2.4-0.8,3.8-0.8c0.7,0,1.5,0.1,2.1,0.3
			c0.7,0.2,1.3,0.5,1.8,0.9c0.5,0.4,1,0.8,1.5,1.3c0.4,0.5,0.8,1,1,1.5h0.1v-3.4h2.4v18.3C580.2,113.3,580.1,114.7,579.7,115.9z
			 M574.2,110.5c0.8-0.5,1.5-1,2-1.8c0.5-0.7,0.9-1.6,1.2-2.5c0.3-1,0.4-1.9,0.4-2.9c0-1-0.1-2-0.3-2.9c-0.2-1-0.6-1.9-1.1-2.7
			c-0.5-0.8-1.2-1.4-2-1.9c-0.8-0.5-1.8-0.7-3-0.7s-2.2,0.2-3,0.7c-0.8,0.5-1.5,1.1-2,1.9c-0.5,0.8-0.9,1.7-1.2,2.6
			c-0.2,1-0.4,2-0.4,3c0,1,0.1,2,0.4,2.9c0.3,1,0.7,1.8,1.2,2.5c0.5,0.7,1.2,1.3,2,1.8c0.8,0.5,1.8,0.7,2.9,0.7
			C572.4,111.2,573.4,111,574.2,110.5z"/>
		<path class="st3" d="M598.3,93.8c1.2,0.6,2.2,1.3,3,2.3c0.8,1,1.4,2.1,1.8,3.3c0.4,1.3,0.6,2.6,0.6,4.1c0,1.4-0.2,2.8-0.6,4.1
			c-0.4,1.3-1,2.4-1.8,3.3c-0.8,1-1.8,1.7-3,2.3c-1.2,0.6-2.5,0.8-4,0.8c-1.5,0-2.9-0.3-4-0.8c-1.2-0.6-2.2-1.3-3-2.3
			c-0.8-1-1.4-2.1-1.8-3.3c-0.4-1.3-0.6-2.6-0.6-4.1c0-1.4,0.2-2.8,0.6-4.1c0.4-1.3,1-2.4,1.8-3.3c0.8-1,1.8-1.7,3-2.3
			c1.2-0.6,2.5-0.9,4-0.9C595.7,93,597.1,93.2,598.3,93.8z M591.2,95.7c-0.9,0.5-1.6,1.1-2.2,1.9c-0.6,0.8-1,1.7-1.3,2.7
			c-0.3,1-0.4,2.1-0.4,3.1c0,1.1,0.1,2.1,0.4,3.1c0.3,1,0.7,1.9,1.3,2.7c0.6,0.8,1.3,1.4,2.2,1.9c0.9,0.5,1.9,0.7,3.1,0.7
			c1.2,0,2.2-0.2,3.1-0.7c0.9-0.5,1.6-1.1,2.2-1.9c0.6-0.8,1-1.7,1.3-2.7c0.3-1,0.4-2.1,0.4-3.1c0-1.1-0.1-2.1-0.4-3.1
			c-0.3-1-0.7-1.9-1.3-2.7c-0.6-0.8-1.3-1.4-2.2-1.9c-0.9-0.5-1.9-0.7-3.1-0.7C593.1,95,592,95.3,591.2,95.7z"/>
		<path class="st3" d="M620.5,96.3c-0.9-0.9-2.2-1.3-3.8-1.3c-1.2,0-2.2,0.2-3.1,0.7c-0.9,0.5-1.6,1.1-2.2,1.9
			c-0.6,0.8-1,1.7-1.3,2.7c-0.3,1-0.4,2.1-0.4,3.1c0,1.1,0.1,2.1,0.4,3.1c0.3,1,0.7,1.9,1.3,2.7c0.6,0.8,1.3,1.4,2.2,1.9
			c0.9,0.5,1.9,0.7,3.1,0.7c0.7,0,1.5-0.1,2.1-0.4c0.7-0.3,1.3-0.7,1.8-1.2c0.5-0.5,0.9-1.1,1.3-1.8c0.3-0.7,0.5-1.5,0.6-2.3h2.4
			c-0.3,2.4-1.2,4.3-2.7,5.7c-1.4,1.4-3.3,2-5.6,2c-1.5,0-2.9-0.3-4-0.8c-1.2-0.6-2.2-1.3-3-2.3c-0.8-1-1.4-2.1-1.8-3.3
			c-0.4-1.3-0.6-2.6-0.6-4.1c0-1.4,0.2-2.8,0.6-4.1c0.4-1.3,1-2.4,1.8-3.3c0.8-1,1.8-1.7,3-2.3c1.2-0.6,2.5-0.9,4-0.9
			c2.1,0,4,0.6,5.4,1.7c1.5,1.1,2.4,2.8,2.6,5.1h-2.4C622,98.3,621.4,97.1,620.5,96.3z"/>
		<path class="st3" d="M631.7,85.9v3.9h-2.4v-3.9H631.7z M631.7,93.5v20h-2.4v-20H631.7z"/>
		<path class="st3" d="M649.8,93.8c1.2,0.6,2.2,1.3,3,2.3c0.8,1,1.4,2.1,1.8,3.3c0.4,1.3,0.6,2.6,0.6,4.1c0,1.4-0.2,2.8-0.6,4.1
			c-0.4,1.3-1,2.4-1.8,3.3c-0.8,1-1.8,1.7-3,2.3c-1.2,0.6-2.5,0.8-4,0.8c-1.5,0-2.9-0.3-4-0.8c-1.2-0.6-2.2-1.3-3-2.3
			c-0.8-1-1.4-2.1-1.8-3.3c-0.4-1.3-0.6-2.6-0.6-4.1c0-1.4,0.2-2.8,0.6-4.1c0.4-1.3,1-2.4,1.8-3.3c0.8-1,1.8-1.7,3-2.3
			c1.2-0.6,2.5-0.9,4-0.9C647.3,93,648.6,93.2,649.8,93.8z M642.7,95.7c-0.9,0.5-1.6,1.1-2.2,1.9c-0.6,0.8-1,1.7-1.3,2.7
			c-0.3,1-0.4,2.1-0.4,3.1c0,1.1,0.1,2.1,0.4,3.1c0.3,1,0.7,1.9,1.3,2.7c0.6,0.8,1.3,1.4,2.2,1.9c0.9,0.5,1.9,0.7,3.1,0.7
			c1.2,0,2.2-0.2,3.1-0.7c0.9-0.5,1.6-1.1,2.2-1.9c0.6-0.8,1-1.7,1.3-2.7c0.3-1,0.4-2.1,0.4-3.1c0-1.1-0.1-2.1-0.4-3.1
			c-0.3-1-0.7-1.9-1.3-2.7c-0.6-0.8-1.3-1.4-2.2-1.9c-0.9-0.5-1.9-0.7-3.1-0.7C644.6,95,643.6,95.3,642.7,95.7z"/>
		<path class="st3" d="M671.3,97.4c-0.3-0.6-0.7-1-1.1-1.4c-0.5-0.4-1-0.6-1.6-0.8c-0.6-0.2-1.3-0.3-2-0.3c-0.5,0-1.1,0.1-1.6,0.2
			c-0.6,0.1-1.1,0.3-1.5,0.6c-0.5,0.3-0.8,0.6-1.1,1.1c-0.3,0.4-0.4,1-0.4,1.6c0,0.5,0.1,1,0.4,1.4c0.3,0.4,0.6,0.7,1,0.9
			c0.4,0.3,0.9,0.5,1.4,0.6c0.5,0.2,0.9,0.3,1.4,0.4l3.2,0.7c0.7,0.1,1.4,0.3,2.1,0.6c0.7,0.3,1.3,0.6,1.8,1.1c0.5,0.4,1,1,1.3,1.6
			c0.3,0.6,0.5,1.4,0.5,2.3c0,1.1-0.2,2-0.7,2.8c-0.5,0.8-1.1,1.4-1.9,1.9c-0.8,0.5-1.6,0.8-2.6,1c-1,0.2-1.9,0.3-2.8,0.3
			c-2.3,0-4.2-0.6-5.7-1.7c-1.5-1.1-2.3-2.9-2.5-5.3h2.4c0.1,1.6,0.7,2.9,1.8,3.7c1.1,0.8,2.5,1.3,4.1,1.3c0.6,0,1.2-0.1,1.8-0.2
			c0.6-0.1,1.2-0.3,1.8-0.7c0.5-0.3,1-0.7,1.3-1.2c0.3-0.5,0.5-1.1,0.5-1.8c0-0.6-0.1-1.1-0.4-1.5c-0.2-0.4-0.6-0.7-1-1
			c-0.4-0.3-0.9-0.5-1.4-0.7c-0.5-0.2-1.1-0.3-1.6-0.5l-3.1-0.7c-0.8-0.2-1.5-0.4-2.2-0.7c-0.7-0.3-1.3-0.6-1.8-1
			c-0.5-0.4-0.9-0.9-1.2-1.5c-0.3-0.6-0.4-1.3-0.4-2.1c0-1,0.2-1.9,0.7-2.6c0.5-0.7,1-1.3,1.8-1.7c0.7-0.4,1.5-0.8,2.4-1
			c0.9-0.2,1.8-0.3,2.6-0.3c1,0,1.9,0.1,2.8,0.4c0.9,0.3,1.6,0.7,2.3,1.2c0.7,0.5,1.2,1.2,1.6,2c0.4,0.8,0.6,1.7,0.7,2.8h-2.4
			C671.7,98.6,671.6,98,671.3,97.4z"/>
	</g>
</g>
</svg>
