<?xml version="1.0" encoding="utf-8"?>
<!-- Generator: Adobe Illustrator 22.1.0, SVG Export Plug-In . SVG Version: 6.00 Build 0)  -->
<svg version="1.1" id="Capa_1" xmlns="http://www.w3.org/2000/svg" xmlns:xlink="http://www.w3.org/1999/xlink" x="0px" y="0px"
	 viewBox="0 0 143.2 114.5" style="enable-background:new 0 0 143.2 114.5;" xml:space="preserve">
<style type="text/css">
	.st0{fill:#425060;}
</style>
<g>
	<path class="st0" d="M142.7,104.4L110,25.6h11.4c1.7,0.1,3.3,0.3,4.7,0.7c1.8,0.5,3.5,1.3,5,2.5c1.5,1.2,2.8,2.8,3.9,4.9
		c1.1,2,2.1,4.5,3,7.5h1V25.6h0l0-0.1l0-3.5H74.5L66.3,3.6h8.4V0H25.5L27,3.6h4.9c6.1,0,11.5,3.8,13.6,9.5l41.6,97.5H70.2l0,0h-3.8
		v0.7c0,1.6,1.3,2.9,2.8,3l0,0h0.1h2.5h38.2h14.6h11.4C141.2,114.2,144.6,109.1,142.7,104.4 M125.3,110.6h-3.1
		c-5.6,0-10.6-3.3-12.8-8.4c-0.1-0.3-6.5-14.7-6.5-14.7L76,25.6h3.8c6.1,0,11.5,3.8,13.6,9.5L112,79.7l13.8,30.9H125.3z"/>
	<path class="st0" d="M54.9,68.8H35l9.8-23.6L42,38.5l-27,64.8l0,0c-1.3,3.1-3.7,5.4-6.7,6.5c-1.3,0.5-2.8,0.8-4.3,0.8H1.8H0v0.7
		c0,1.3,0.8,2.4,1.8,2.9v0h0c0.4,0.2,0.9,0.3,1.4,0.3h24.5v-1.2c0-1.4-1-2.5-2.3-2.7c-0.1,0-0.2,0-0.4,0c-0.9,0-1.7-0.2-2.5-0.6
		c-0.7-0.4-1.3-0.9-1.7-1.6c-0.9-1.3-1.1-3-0.5-4.5l10.7-25.8c1.3-3.1,4.4-5.2,7.8-5.2h17.8L54.9,68.8z"/>
</g>
</svg>
