<?xml version="1.0" encoding="utf-8"?>
<!-- Generator: Adobe Illustrator 22.1.0, SVG Export Plug-In . SVG Version: 6.00 Build 0)  -->
<svg version="1.1" id="Capa_1" xmlns="http://www.w3.org/2000/svg" xmlns:xlink="http://www.w3.org/1999/xlink" x="0px" y="0px"
	 viewBox="0 0 649.9 82.9" style="enable-background:new 0 0 649.9 82.9;" xml:space="preserve">
<style type="text/css">
	.st0{fill:#EEBD1F;}
	.st1{fill:#FFFFFF;}
</style>
<g>
	<path class="st0" d="M172.3,47.5l13.8-33.6h1.3L202,47.5h4v0.6h-15.6v-0.6h4.3l-5.4-12.4h-11.1l-5.1,12.4h4.1v0.6h-8.8v-0.6H172.3z
		 M178.5,34.4h10.7l-5.5-12.6L178.5,34.4z"/>
	<path class="st0" d="M206.3,48.5H190v-1.4h4.1l-5.1-11.7h-10.6l-4.8,11.7h3.9v1.4h-9.5v-1.4h4l13.8-33.6h1.7l14.6,33.6h4.1V48.5z
		 M195.2,47.8h6.5l-14.6-33.5h-0.8l-2.7,6.7l6,13.9h0L195.2,47.8z M177.9,34.8l-1.4,3.4L177.9,34.8L177.9,34.8z M179,34.1h9.6
		l-4.9-11.4L179,34.1z"/>
	<path class="st0" d="M222.1,15.2v0.6h-4.3v31.7h7.6c1,0,2-0.2,3.1-0.5c1-0.3,2-0.9,2.9-1.7c0.9-0.8,1.7-1.8,2.5-3.1
		c0.7-1.2,1.3-2.8,1.7-4.6h0.6v10.5h-29.4v-0.6h4.3V15.8h-4.3v-0.6H222.1z"/>
	<path class="st0" d="M236.6,48.5h-30.1v-1.4h4.3v-31h-4.3v-1.4h15.9v1.4h-4.3v31h7.3c1,0,2-0.2,3-0.5c1-0.3,1.9-0.9,2.8-1.6
		c0.9-0.8,1.7-1.8,2.4-3c0.7-1.2,1.3-2.7,1.7-4.5l0.1-0.3h1.2V48.5z M226.6,47.8h9.2v-9.6c-0.4,1.6-0.9,3-1.6,4.2
		c-0.7,1.3-1.6,2.3-2.5,3.1c-0.9,0.8-2,1.4-3,1.8C228,47.5,227.3,47.7,226.6,47.8 M211.5,47.8h6V15.5h-6V47.8z"/>
	<path class="st0" d="M268,24.6c-0.3-1-0.7-2.1-1.2-3.2c-0.5-1.1-1.1-2.2-1.9-3.1c-0.8-0.9-1.7-1.7-2.8-2.3
		c-1.1-0.6-2.5-0.9-4.2-0.9c-2.3,0-4,0.4-5.3,1.3c-1.3,0.8-2.3,2-2.9,3.5c-0.7,1.5-1.1,3.2-1.3,5.3c-0.2,2.1-0.3,4.3-0.3,6.7
		c0,3.2,0.2,5.9,0.6,8c0.4,2.1,0.9,3.8,1.7,5c0.8,1.2,1.8,2.1,3.1,2.6c1.3,0.5,2.7,0.7,4.5,0.7c1.4,0,2.6-0.3,3.8-0.8
		c1.1-0.6,2.1-1.3,3-2.2c0.9-0.9,1.6-2,2.2-3.1c0.6-1.2,1-2.4,1.3-3.7h0.7v9.8h-0.7c-0.2-0.4-0.3-0.6-0.6-0.8
		c-0.2-0.1-0.5-0.2-1-0.2c-0.4,0-0.8,0.1-1.4,0.3c-0.6,0.2-1.3,0.4-2,0.6c-0.8,0.2-1.6,0.4-2.5,0.6c-0.9,0.2-1.8,0.3-2.8,0.3
		c-2.3,0-4.4-0.4-6.5-1.3c-2.1-0.9-3.9-2.1-5.5-3.6c-1.6-1.5-2.9-3.3-3.8-5.4c-1-2.1-1.4-4.3-1.4-6.7c0-2.6,0.5-5,1.6-7.1
		c1.1-2.1,2.4-4,4.1-5.5c1.7-1.5,3.5-2.7,5.6-3.5c2.1-0.8,4.1-1.2,6-1.2c1,0,1.9,0.1,2.8,0.3c0.8,0.2,1.6,0.4,2.4,0.6
		c0.7,0.2,1.4,0.4,2,0.6c0.6,0.2,1.1,0.3,1.5,0.3c0.4,0,0.8-0.1,1-0.2c0.2-0.1,0.4-0.4,0.5-0.8h0.7v9.4H268z"/>
	<path class="st0" d="M257.9,49.1c-2.3,0-4.5-0.5-6.7-1.3c-2.1-0.9-4-2.1-5.6-3.7c-1.6-1.6-2.9-3.4-3.9-5.5c-1-2.1-1.5-4.4-1.5-6.9
		c0-2.7,0.5-5.1,1.6-7.3c1.1-2.2,2.5-4,4.2-5.6c1.7-1.5,3.6-2.7,5.7-3.6c2.1-0.8,4.2-1.3,6.2-1.3c1,0,2,0.1,2.8,0.3
		c0.9,0.2,1.7,0.4,2.4,0.6c0.7,0.2,1.4,0.4,2,0.6c0.5,0.2,1,0.3,1.4,0.3c0.5,0,0.7-0.1,0.8-0.1c0,0,0.2-0.1,0.3-0.6l0.1-0.3h1.4V25
		h-1.2l-0.1-0.2c-0.3-1-0.7-2.1-1.2-3.2c-0.5-1.1-1.1-2.1-1.8-3c-0.7-0.9-1.6-1.6-2.7-2.2c-1.1-0.6-2.4-0.9-4-0.9
		c-2.2,0-3.9,0.4-5.1,1.2c-1.2,0.8-2.2,1.9-2.8,3.3c-0.6,1.4-1.1,3.2-1.2,5.2c-0.2,2-0.3,4.3-0.3,6.7c0,3.2,0.2,5.8,0.6,7.9
		c0.4,2,0.9,3.7,1.7,4.9c0.7,1.2,1.7,2,2.9,2.5c1.2,0.5,2.7,0.7,4.3,0.7c1.3,0,2.5-0.3,3.6-0.8c1.1-0.5,2.1-1.2,2.9-2.1
		c0.8-0.9,1.5-1.9,2.1-3c0.6-1.1,1-2.3,1.3-3.6l0.1-0.3h1.4v10.5h-1.3l-0.1-0.2c-0.1-0.3-0.3-0.5-0.4-0.6c-0.2-0.1-0.8-0.3-2.1,0.1
		c-0.6,0.2-1.3,0.4-2,0.6c-0.8,0.2-1.6,0.4-2.5,0.6C259.8,49,258.9,49.1,257.9,49.1 M268.4,38.7c-0.3,1.2-0.7,2.4-1.3,3.5
		c-0.6,1.2-1.4,2.3-2.2,3.2c-0.9,0.9-1.9,1.7-3.1,2.3c-0.6,0.3-1.3,0.5-2,0.7c0.3,0,0.5-0.1,0.8-0.1c0.9-0.2,1.7-0.4,2.5-0.5
		c0.8-0.2,1.4-0.4,2-0.6c1.4-0.4,2.2-0.3,2.7,0c0.2,0.1,0.4,0.4,0.6,0.7h0.2L268.4,38.7L268.4,38.7z M253.5,15.4
		c-0.5,0.2-1.1,0.3-1.6,0.6c-2,0.8-3.8,2-5.5,3.4c-1.6,1.5-3,3.3-4,5.4c-1,2.1-1.6,4.4-1.6,7c0,2.3,0.5,4.6,1.4,6.6
		c0.9,2,2.2,3.8,3.7,5.3c1.5,1.5,3.4,2.7,5.4,3.5c0.8,0.3,1.6,0.6,2.5,0.8c-0.2-0.1-0.4-0.1-0.6-0.2c-1.3-0.5-2.4-1.4-3.2-2.7
		c-0.8-1.3-1.4-3-1.8-5.1c-0.4-2.1-0.6-4.8-0.6-8c0-2.4,0.1-4.7,0.3-6.8c0.2-2.1,0.6-3.9,1.3-5.4c0.7-1.5,1.7-2.8,3.1-3.6
		C252.7,15.8,253.1,15.6,253.5,15.4 M261.2,15.2c0.4,0.1,0.7,0.3,1.1,0.5c1.2,0.6,2.2,1.4,2.9,2.4c0.8,1,1.4,2,1.9,3.2
		c0.4,1,0.8,2,1.1,3v-8.7h-0.1c-0.1,0.4-0.3,0.6-0.6,0.8c-0.5,0.3-1.4,0.3-2.7-0.1c-0.6-0.2-1.2-0.4-2-0.6
		C262.4,15.5,261.8,15.3,261.2,15.2"/>
	<path class="st0" d="M274.3,47.5l13.8-33.6h1.3L304,47.5h4v0.6h-15.6v-0.6h4.3l-5.4-12.4h-11.1l-5.1,12.4h4.1v0.6h-8.8v-0.6H274.3z
		 M280.5,34.4h10.7l-5.5-12.6L280.5,34.4z"/>
	<path class="st0" d="M308.3,48.5H292v-1.4h4.1l-5.1-11.7h-10.6l-4.8,11.7h3.9v1.4h-9.5v-1.4h4l13.8-33.6h1.7l14.6,33.6h4.1V48.5z
		 M297.2,47.8h6.5l-14.6-33.5h-0.8l-2.7,6.7l6,13.9h0L297.2,47.8z M279.9,34.8l-1.4,3.4L279.9,34.8L279.9,34.8z M281,34.1h9.6
		l-4.9-11.4L281,34.1z"/>
	<polygon class="st0" points="321,15.2 321,15.8 317.3,15.8 326.8,32 335.3,15.8 331.2,15.8 331.2,15.2 340.1,15.2 340.1,15.8 
		336.1,15.8 327.1,32.8 327.1,47.5 331.4,47.5 331.4,48.1 316.2,48.1 316.2,47.5 320.4,47.5 320.4,34.6 309.7,15.8 306.1,15.8 
		306.1,15.2 	"/>
	<path class="st0" d="M331.8,48.5h-16v-1.4h4.3V34.7l-10.6-18.5h-3.8v-1.4h15.6v1.4h-3.4l8.8,15.1l7.9-15.1h-3.8v-1.4h9.6v1.4h-4.2
		l-8.8,16.7v14.2h4.3V48.5z M320.8,47.8h6V32.7l0.4-0.7l-0.3,0.7l-10-17.2h-6.8l10.9,18.9V47.8z"/>
	<path class="st0" d="M342.1,47.5l13.8-33.6h1.3l14.6,33.6h4v0.6h-15.6v-0.6h4.3l-5.4-12.4H348l-5.1,12.4h4.1v0.6h-8.8v-0.6H342.1z
		 M348.2,34.4h10.7l-5.5-12.6L348.2,34.4z"/>
	<path class="st0" d="M376.1,48.5h-16.3v-1.4h4.1l-5.1-11.7h-10.6l-4.8,11.7h3.9v1.4h-9.5v-1.4h4l13.8-33.6h1.7L372,47.1h4.1V48.5z
		 M365,47.8h6.5l-14.6-33.5h-0.8l-2.7,6.7l6,13.9h0L365,47.8z M347.7,34.8l-1.4,3.4L347.7,34.8L347.7,34.8z M348.7,34.1h9.6
		l-4.9-11.4L348.7,34.1z"/>
	<path class="st0" d="M388.9,16.3c-1.3,0.8-2.3,1.9-3,3.2c-0.7,1.3-1.2,2.8-1.4,4.5c-0.2,1.7-0.3,3.4-0.3,5.1v4
		c0,2.8,0.2,5.2,0.6,7.1c0.4,1.9,0.9,3.5,1.7,4.6c0.8,1.2,1.8,2,3.1,2.5c1.3,0.5,2.7,0.8,4.5,0.8c1.4,0,2.5-0.3,3.4-0.8
		c0.8-0.5,1.5-1.2,1.9-2.1c0.4-0.9,0.7-1.9,0.9-3.1c0.1-1.2,0.2-2.5,0.2-3.9v-1.8h-4.8v-0.6h14.3v0.6h-3v10.6h-0.8
		c-0.1-0.4-0.2-0.6-0.5-0.8c-0.3-0.2-0.6-0.3-1-0.3c-0.7,0-1.4,0.1-2.1,0.4c-0.7,0.3-1.4,0.6-2.2,1c-0.8,0.3-1.7,0.7-2.7,0.9
		c-1,0.3-2.2,0.4-3.6,0.4c-2.3,0-4.4-0.4-6.5-1.3c-2.1-0.9-3.9-2.1-5.5-3.6c-1.6-1.5-2.9-3.3-3.8-5.4c-1-2.1-1.4-4.3-1.4-6.7
		c0-2.6,0.5-5,1.6-7.1c1.1-2.1,2.4-4,4.1-5.5c1.7-1.5,3.5-2.7,5.6-3.5c2.1-0.8,4.1-1.2,6-1.2c0.9,0,1.8,0.1,2.7,0.3
		c0.9,0.2,1.7,0.4,2.4,0.6c0.7,0.2,1.4,0.4,2,0.6c0.6,0.2,1.1,0.3,1.5,0.3c0.4,0,0.7-0.1,0.9-0.2c0.2-0.1,0.4-0.4,0.5-0.8h0.8v9.4
		h-0.7c-0.8-3-2-5.4-3.6-7.1c-1.6-1.7-3.8-2.5-6.4-2.5C391.9,15.1,390.2,15.5,388.9,16.3"/>
	<path class="st0" d="M394,49.1c-2.3,0-4.5-0.5-6.7-1.3c-2.1-0.9-4-2.1-5.6-3.7c-1.6-1.6-2.9-3.4-3.9-5.5c-1-2.1-1.5-4.4-1.5-6.9
		c0-2.7,0.6-5.1,1.6-7.3c1.1-2.2,2.5-4,4.2-5.6c1.7-1.5,3.6-2.7,5.7-3.6c3.1-1.2,6.2-1.6,8.9-1c0.9,0.2,1.7,0.4,2.4,0.6
		c0.7,0.2,1.4,0.4,2,0.6c0.6,0.2,1,0.3,1.4,0.3c0.5,0,0.6-0.1,0.7-0.1c0.1-0.1,0.2-0.2,0.4-0.6l0.1-0.2h1.4V25h-1.3l-0.1-0.3
		c-0.8-3-2-5.3-3.5-6.9c-1.5-1.6-3.6-2.4-6.2-2.4c-2.1,0-3.7,0.4-5,1.2c-1.2,0.8-2.2,1.8-2.9,3.1c-0.7,1.3-1.1,2.7-1.3,4.4
		c-0.2,1.7-0.3,3.4-0.3,5.1v4c0,2.8,0.2,5.1,0.5,7c0.4,1.9,0.9,3.4,1.7,4.5c0.7,1.1,1.7,1.9,2.9,2.4c1.2,0.5,2.7,0.7,4.3,0.7
		c1.3,0,2.4-0.2,3.2-0.7c0.8-0.5,1.4-1.1,1.8-1.9c0.4-0.8,0.7-1.8,0.8-3c0.1-1.2,0.2-2.5,0.2-3.9v-1.4h-4.8v-1.4h15v1.4h-3v10.6
		h-1.5l0-0.3c0-0.3-0.2-0.4-0.4-0.6c-0.2-0.1-0.5-0.2-0.8-0.2c-0.7,0-1.3,0.1-2,0.4l-2.2,0.9c-0.8,0.3-1.7,0.7-2.7,1
		C396.7,49,395.4,49.1,394,49.1 M400.7,36.2v2c0,1.4-0.1,2.8-0.2,4c-0.1,1.2-0.4,2.3-0.9,3.3c-0.5,0.9-1.2,1.7-2.1,2.2
		c-0.5,0.3-1.1,0.5-1.7,0.6c0.6-0.1,1.1-0.2,1.6-0.3c1-0.3,1.9-0.6,2.6-0.9l2.2-0.9c0.7-0.3,1.5-0.5,2.3-0.5c0.4,0,0.8,0.1,1.2,0.3
		c0.3,0.2,0.5,0.4,0.6,0.8h0.2V36.2H400.7z M390.2,15.3c-0.7,0.2-1.4,0.4-2.1,0.7c-2,0.8-3.8,2-5.5,3.4c-1.6,1.5-3,3.3-4,5.4
		c-1,2.1-1.6,4.4-1.6,7c0,2.3,0.5,4.6,1.4,6.6c0.9,2,2.2,3.8,3.7,5.3c1.5,1.5,3.4,2.7,5.4,3.5c0.9,0.4,1.8,0.7,2.7,0.9
		c-0.3-0.1-0.6-0.2-0.9-0.3c-1.3-0.5-2.4-1.4-3.2-2.7c-0.8-1.2-1.4-2.8-1.8-4.8c-0.4-1.9-0.6-4.3-0.6-7.2v-4c0-1.7,0.1-3.5,0.3-5.2
		c0.2-1.7,0.7-3.3,1.4-4.6c0.7-1.4,1.8-2.5,3.1-3.3h0C389.2,15.7,389.7,15.5,390.2,15.3 M404.4,24.2L404.4,24.2l0.1-8.7h-0.2
		c-0.2,0.3-0.3,0.5-0.5,0.7c-0.5,0.3-1.4,0.4-2.7,0c-0.6-0.2-1.2-0.4-2-0.6c-0.4-0.1-0.9-0.2-1.3-0.3c1.2,0.4,2.2,1.1,3.1,2
		C402.3,19,403.5,21.3,404.4,24.2"/>
	<path class="st0" d="M413.2,47.5L427,13.9h1.3l14.6,33.6h4v0.6h-15.6v-0.6h4.3l-5.4-12.4h-11.1L414,47.5h4.1v0.6h-8.8v-0.6H413.2z
		 M419.4,34.4H430l-5.5-12.6L419.4,34.4z"/>
	<path class="st0" d="M447.2,48.5h-16.3v-1.4h4.1L430,35.4h-10.6l-4.8,11.7h3.9v1.4H409v-1.4h4l13.8-33.6h1.7l14.6,33.6h4.1V48.5z
		 M436.1,47.8h6.5l-14.6-33.5h-0.8l-2.7,6.7l6,13.9h0L436.1,47.8z M418.8,34.8l-1.4,3.4L418.8,34.8L418.8,34.8z M419.9,34.1h9.6
		l-4.9-11.4L419.9,34.1z"/>
	<path class="st0" d="M485.8,37.3c0.5-1.5,0.7-3.5,0.7-5.8c0-1.3-0.1-2.3-0.3-3.1c-0.2-0.8-0.5-1.4-0.9-1.8
		c-0.4-0.4-0.9-0.7-1.5-0.9c-0.6-0.2-1.3-0.2-2.1-0.2v-0.6h9.4v0.6c-0.7,0.1-1.3,0.3-1.8,0.4c-0.5,0.1-0.8,0.4-1.1,0.8
		c-0.3,0.4-0.5,0.9-0.6,1.7c-0.1,0.7-0.2,1.8-0.3,3.1c0,0.6-0.1,1.3-0.2,2.2c-0.1,0.9-0.2,1.7-0.4,2.6c-0.2,0.9-0.4,1.8-0.7,2.7
		c-0.3,0.9-0.7,1.7-1.1,2.4l2.1,3.8c0.1,0.2,0.3,0.5,0.6,0.8c0.3,0.3,0.7,0.5,1.3,0.5c0.5,0,0.8-0.2,1.1-0.5
		c0.3-0.3,0.5-0.7,0.7-1.1c0.2-0.4,0.3-0.8,0.3-1.2c0-0.4,0.1-0.6,0.1-0.7c0-0.2,0-0.3,0-0.4c0-0.1-0.1-0.3-0.1-0.4h0.6
		c0,0.1,0.1,0.2,0.1,0.3c0,0.1,0,0.3,0,0.4c0,0.1,0,0.5-0.1,1.1c-0.1,0.6-0.3,1.3-0.7,2c-0.4,0.7-1,1.4-1.8,1.9
		c-0.8,0.6-2,0.9-3.4,0.9c-1.4,0-2.4-0.3-3.1-0.8c-0.7-0.5-1.4-1.2-1.9-1.9c-0.5,0.4-0.9,0.7-1.4,1c-0.4,0.3-1,0.6-1.5,0.9
		c-0.6,0.2-1.2,0.4-2,0.6c-0.7,0.2-1.6,0.2-2.6,0.2c-2.3,0-4.2-0.4-5.7-1.1c-1.5-0.8-2.6-1.7-3.4-2.7c-0.8-1.1-1.4-2.2-1.7-3.3
		c-0.3-1.1-0.4-2.1-0.4-2.9c0-1.4,0.3-2.7,0.9-3.8c0.6-1.1,1.3-2.1,2.2-3.1c0.9-0.9,1.8-1.7,2.9-2.5c1-0.7,2.1-1.4,3.1-2
		c-0.5-1.3-0.9-2.3-1.1-3.1c-0.2-0.8-0.4-1.6-0.4-2.4c0-1,0.2-1.9,0.6-2.8c0.4-0.9,0.9-1.7,1.6-2.4c0.6-0.7,1.4-1.3,2.2-1.7
		c0.8-0.4,1.7-0.6,2.5-0.6c0.6,0,1.1,0.1,1.7,0.3c0.5,0.2,1,0.4,1.4,0.8c0.4,0.4,0.7,0.9,1,1.5c0.2,0.6,0.3,1.3,0.3,2.2
		c0,0.9-0.3,1.9-0.8,2.9c-0.5,1-1.6,2.1-3.3,3.2l7.8,15.2C484.8,39.9,485.3,38.8,485.8,37.3 M471.5,28.7c-0.2-0.4-0.3-0.7-0.4-0.9
		c-0.6,0.5-1.2,0.9-1.7,1.3c-0.5,0.4-0.9,0.8-1.2,1.3c-0.3,0.4-0.6,0.9-0.7,1.5c-0.2,0.5-0.2,1.2-0.2,1.9c0,0.6,0.1,1.3,0.3,2.2
		c0.2,0.9,0.5,1.9,0.9,2.9c0.4,1,0.8,2,1.4,3.1c0.5,1,1.1,1.9,1.8,2.8c0.6,0.8,1.3,1.5,2,2c0.7,0.5,1.5,0.8,2.2,0.8
		c0.8,0,1.6-0.2,2.2-0.6c0.7-0.4,1.4-0.9,2.2-1.5c-0.3-0.4-0.5-0.8-0.7-1.1c-0.2-0.3-0.3-0.6-0.5-0.9L472.1,30
		C471.9,29.5,471.7,29.1,471.5,28.7 M479.9,17.7c-0.1-0.5-0.3-0.9-0.6-1.3c-0.2-0.4-0.6-0.7-0.9-1c-0.4-0.2-0.9-0.4-1.4-0.4
		c-0.1,0-0.3,0-0.6,0c-0.3,0-0.7,0.1-1,0.3c-0.4,0.2-0.7,0.5-1,1c-0.3,0.4-0.4,1.1-0.4,1.9c0,0.5,0.1,1,0.2,1.5
		c0.1,0.5,0.3,1.1,0.6,1.7c0.2,0.6,0.5,1.1,0.8,1.7c0.3,0.6,0.6,1.1,0.9,1.6c0.3-0.2,0.7-0.5,1.1-0.8c0.4-0.3,0.8-0.7,1.2-1.1
		c0.4-0.4,0.7-1,1-1.6c0.3-0.6,0.4-1.3,0.4-2C480.1,18.7,480,18.2,479.9,17.7"/>
	<path class="st0" d="M485.7,49.1c-1.4,0-2.6-0.3-3.4-0.9c-0.7-0.5-1.3-1.1-1.8-1.7c-0.4,0.3-0.7,0.6-1.1,0.8
		c-0.5,0.3-1,0.6-1.6,0.9c-0.6,0.3-1.3,0.5-2,0.6c-0.8,0.2-1.7,0.2-2.7,0.2c-2.4,0-4.4-0.4-5.9-1.2c-1.5-0.8-2.7-1.7-3.5-2.8
		c-0.8-1.1-1.4-2.3-1.7-3.4c-0.3-1.2-0.5-2.2-0.5-3c0-1.5,0.3-2.8,0.9-4c0.6-1.2,1.3-2.2,2.2-3.1c0.9-0.9,1.9-1.8,2.9-2.5
		c1-0.7,1.9-1.3,2.8-1.9c-0.4-1.2-0.8-2.1-1-2.9c-0.3-0.8-0.4-1.7-0.4-2.5c0-1,0.2-2,0.6-2.9c0.4-0.9,0.9-1.7,1.6-2.5
		c0.7-0.7,1.5-1.3,2.3-1.7c1.5-0.7,3.1-0.8,4.5-0.4c0.6,0.2,1.1,0.5,1.5,0.9c0.4,0.4,0.8,0.9,1,1.6c0.2,0.6,0.4,1.4,0.4,2.3
		c0,1-0.3,2-0.8,3.1c-0.5,1-1.5,2.1-3.1,3.2l7.3,14.4c0.3-0.6,0.6-1.5,1-2.6c0.5-1.5,0.7-3.4,0.7-5.7c0-1.3-0.1-2.3-0.3-3
		c-0.2-0.7-0.5-1.3-0.8-1.7c-0.4-0.4-0.8-0.6-1.3-0.8c-0.6-0.1-1.3-0.2-2-0.2h-0.4v-1.4h10.1v1.3l-0.3,0.1c-0.7,0.1-1.3,0.2-1.7,0.4
		c-0.4,0.1-0.7,0.3-1,0.7c-0.3,0.3-0.5,0.8-0.6,1.5c-0.1,0.7-0.2,1.7-0.3,3c0,0.6-0.1,1.4-0.2,2.2c-0.1,0.9-0.2,1.8-0.4,2.7
		c-0.2,0.9-0.4,1.8-0.7,2.7c-0.3,0.8-0.6,1.6-1.1,2.3l2,3.6c0.1,0.2,0.3,0.4,0.6,0.8c0.2,0.3,0.6,0.4,1,0.4c0.4,0,0.6-0.1,0.8-0.3
		c0.2-0.3,0.5-0.6,0.6-1c0.2-0.4,0.3-0.7,0.3-1.1c0.1-0.4,0.1-0.6,0.1-0.7c0-0.1,0-0.3,0-0.4c0-0.1,0-0.2-0.1-0.3l-0.2-0.5h1.4
		l0.1,0.2c0,0.1,0.1,0.2,0.1,0.4c0,0.2,0.1,0.3,0.1,0.5c0,0.1,0,0.3-0.1,1.2c-0.1,0.7-0.3,1.4-0.7,2.2c-0.4,0.8-1.1,1.4-1.9,2
		C488.4,48.8,487.2,49.1,485.7,49.1 M480.7,45.6l0.2,0.2c0.5,0.7,1.2,1.3,1.9,1.8c0.7,0.5,1.7,0.7,2.9,0.7c1.4,0,2.5-0.3,3.2-0.8
		c0.8-0.5,1.3-1.1,1.7-1.8c0.2-0.4,0.4-0.8,0.5-1.2c0,0.1-0.1,0.2-0.1,0.3c-0.2,0.4-0.4,0.8-0.7,1.2c-0.3,0.4-0.8,0.6-1.4,0.6
		c-0.7,0-1.2-0.2-1.6-0.6c-0.3-0.4-0.6-0.7-0.7-0.9l-2.2-3.9l0.1-0.2c0-0.1,0.1-0.1,0.1-0.2l-0.3,0.4l-8.2-16l0,0l-0.1-0.2
		c-0.3-0.5-0.6-1-0.9-1.6c-0.3-0.6-0.6-1.2-0.8-1.7c-0.2-0.6-0.4-1.2-0.6-1.7c-0.1-0.6-0.2-1.1-0.2-1.6c0-0.9,0.2-1.6,0.5-2.1
		c0.3-0.5,0.7-0.9,1.1-1.1c0.3-0.2,0.7-0.3,1-0.4c-0.7,0-1.5,0.2-2.2,0.6c-0.8,0.4-1.5,0.9-2.1,1.6c-0.6,0.7-1.1,1.4-1.5,2.3
		c-0.4,0.8-0.5,1.7-0.5,2.6c0,0.8,0.1,1.5,0.4,2.3c0.2,0.8,0.6,1.8,1.1,3.1l0.1,0.3l0,0l0.1,0.2c0.1,0.2,0.2,0.5,0.4,0.9
		c0.2,0.4,0.4,0.8,0.6,1.3l6.9,13.5c0.2,0.3,0.3,0.6,0.5,0.9c0.2,0.3,0.4,0.6,0.7,1.1L480.7,45.6L480.7,45.6z M469.6,28.6
		c-0.5,0.3-1,0.7-1.5,1c-1,0.7-2,1.5-2.8,2.4c-0.9,0.9-1.6,1.9-2.1,3c-0.5,1.1-0.8,2.3-0.8,3.7c0,0.8,0.1,1.7,0.4,2.8
		c0.3,1.1,0.8,2.2,1.6,3.2c0.8,1,1.9,1.9,3.3,2.6c1.4,0.7,3.3,1.1,5.5,1.1c1,0,1.8-0.1,2.5-0.2c0.5-0.1,1-0.2,1.4-0.4
		c-0.4,0.1-0.8,0.1-1.2,0.1c-0.8,0-1.6-0.3-2.4-0.9c-0.8-0.5-1.5-1.2-2.1-2.1c-0.6-0.8-1.3-1.8-1.8-2.8c-0.5-1-1-2.1-1.4-3.1
		c-0.4-1-0.7-2-0.9-2.9c-0.2-0.9-0.3-1.7-0.3-2.3c0-0.8,0.1-1.5,0.2-2c0.2-0.6,0.4-1.1,0.8-1.6c0.3-0.5,0.8-0.9,1.3-1.3
		C469.3,28.8,469.4,28.7,469.6,28.6 M471,28.4c-0.5,0.4-1,0.8-1.3,1.1c-0.5,0.4-0.8,0.8-1.1,1.2c-0.3,0.4-0.5,0.9-0.7,1.4
		c-0.1,0.5-0.2,1.1-0.2,1.8c0,0.5,0.1,1.2,0.3,2.1c0.2,0.9,0.5,1.9,0.9,2.8c0.4,1,0.8,2,1.4,3c0.5,1,1.1,1.9,1.7,2.7
		c0.6,0.8,1.3,1.4,2,1.9c0.7,0.5,1.3,0.7,2,0.7c0.8,0,1.5-0.2,2.1-0.5c0.6-0.3,1.2-0.8,1.8-1.3c-0.2-0.3-0.4-0.6-0.5-0.8
		c-0.2-0.3-0.3-0.6-0.5-1l-6.9-13.5c-0.2-0.4-0.4-0.9-0.6-1.3C471.1,28.7,471.1,28.5,471,28.4 M482.9,25.1c0.3,0,0.7,0.1,1,0.2
		c0.7,0.2,1.2,0.5,1.7,1c0.4,0.5,0.8,1.1,1,2c0.2,0.7,0.3,1.6,0.3,2.7c0.1-1.2,0.2-2.1,0.3-2.8c0.2-0.8,0.4-1.4,0.7-1.8
		c0.3-0.4,0.8-0.8,1.3-0.9c0.4-0.1,0.9-0.2,1.4-0.3H482.9z M477,15.4c-0.1,0-0.3,0-0.6,0c-0.3,0-0.6,0.1-0.9,0.3
		c-0.3,0.2-0.6,0.5-0.8,0.8c-0.2,0.4-0.4,1-0.4,1.7c0,0.4,0.1,0.9,0.2,1.4c0.1,0.5,0.3,1.1,0.5,1.6c0.2,0.6,0.5,1.1,0.8,1.7
		c0.2,0.4,0.4,0.8,0.6,1.2c0.2-0.2,0.5-0.4,0.8-0.6c0.4-0.3,0.8-0.7,1.2-1.1c0.4-0.4,0.7-0.9,0.9-1.5c0.2-0.5,0.4-1.2,0.4-1.9
		c0-0.5-0.1-0.9-0.2-1.4c-0.1-0.5-0.3-0.9-0.5-1.2c-0.2-0.4-0.5-0.6-0.8-0.9C477.9,15.5,477.4,15.4,477,15.4"/>
	<path class="st0" d="M519.6,15.8c-1.1,0-2.2,0.1-3.1,0.3c-0.9,0.2-1.7,0.6-2.4,1.2c-0.7,0.6-1.3,1.4-1.9,2.4
		c-0.6,1-1.1,2.3-1.5,3.9h-0.6v-8.5h29v8.5h-0.6c-0.5-1.6-1-2.9-1.5-3.9c-0.6-1-1.2-1.8-1.9-2.4c-0.7-0.6-1.5-1-2.4-1.2
		c-0.9-0.2-1.9-0.3-3.1-0.3h-1.7v31.7h4.3v0.6H517v-0.6h4.3V15.8H519.6z"/>
	<path class="st0" d="M532.6,48.5h-15.9v-1.4h4.3v-31h-1.3c-1.1,0-2.1,0.1-3,0.3c-0.8,0.2-1.6,0.6-2.3,1.1c-0.7,0.5-1.3,1.3-1.8,2.3
		c-0.5,1-1,2.3-1.5,3.8l-0.1,0.3h-1.2v-9.2h29.7V24h-1.2l-0.1-0.3c-0.5-1.5-1-2.8-1.5-3.8c-0.5-1-1.1-1.7-1.8-2.3
		c-0.7-0.5-1.4-0.9-2.3-1.1c-0.9-0.2-1.9-0.3-3-0.3h-1.3v31h4.3V48.5z M521.6,47.8h6V15.5h-6V47.8z M510.4,15.5v7.7
		c0.4-1.4,0.9-2.7,1.5-3.6c0.6-1.1,1.2-1.9,2-2.5c0.7-0.6,1.6-1,2.5-1.3c0.5-0.1,1.1-0.2,1.7-0.3H510.4z M531.1,15.5
		c0.6,0.1,1.2,0.2,1.7,0.3c0.9,0.2,1.8,0.7,2.5,1.3c0.7,0.6,1.4,1.4,2,2.5c0.5,1,1,2.2,1.5,3.6v-7.7H531.1z"/>
	<path class="st0" d="M544.4,24.6c1.1-2.1,2.4-4,4.1-5.5c1.7-1.5,3.5-2.7,5.6-3.5c2.1-0.8,4.1-1.2,6.1-1.2c2.1,0,4.2,0.4,6.3,1.2
		c2.1,0.8,3.9,1.9,5.6,3.4c1.6,1.5,2.9,3.3,3.9,5.4c1,2.1,1.5,4.5,1.5,7.2c0,2.3-0.5,4.5-1.4,6.6c-0.9,2.1-2.2,3.9-3.8,5.5
		c-1.6,1.6-3.4,2.8-5.5,3.7c-2.1,0.9-4.3,1.4-6.6,1.4c-2.3,0-4.5-0.4-6.6-1.3c-2.1-0.9-3.9-2.1-5.5-3.6c-1.6-1.5-2.9-3.3-3.8-5.4
		c-1-2.1-1.4-4.3-1.4-6.7C542.8,29.1,543.4,26.7,544.4,24.6 M551,39.7c0.4,2.1,0.9,3.8,1.7,5c0.8,1.2,1.8,2.1,3.1,2.6
		c1.2,0.5,2.7,0.7,4.5,0.7c2.3,0,4.1-0.4,5.4-1.3c1.3-0.8,2.3-2,2.9-3.5c0.6-1.5,1.1-3.3,1.2-5.3c0.2-2.1,0.3-4.3,0.3-6.7
		c0-2.2-0.1-4.2-0.2-6.2c-0.1-2-0.5-3.7-1.2-5.2c-0.6-1.5-1.6-2.7-2.9-3.6c-1.3-0.9-3.1-1.3-5.4-1.3c-2.2,0-3.9,0.4-5.2,1.2
		c-1.3,0.8-2.3,2-3,3.4c-0.7,1.5-1.1,3.2-1.3,5.3c-0.2,2-0.3,4.3-0.3,6.7C550.4,34.9,550.6,37.6,551,39.7"/>
	<path class="st0" d="M560.2,49.1c-2.3,0-4.6-0.5-6.7-1.3c-2.1-0.9-4-2.1-5.6-3.7c-1.6-1.5-2.9-3.4-3.9-5.5c-1-2.1-1.5-4.4-1.5-6.9
		c0-2.7,0.6-5.1,1.6-7.3c1.1-2.2,2.5-4,4.2-5.6c1.7-1.5,3.6-2.7,5.7-3.6c4.4-1.7,8.6-1.6,12.6,0c2.1,0.8,4,2,5.7,3.5
		c1.6,1.5,3,3.4,4,5.5c1,2.2,1.5,4.6,1.5,7.3c0,2.4-0.5,4.6-1.4,6.7c-1,2.1-2.3,4-3.9,5.6c-1.6,1.6-3.5,2.9-5.6,3.8
		C564.8,48.7,562.6,49.1,560.2,49.1 M563.9,15.2c0.7,0.2,1.4,0.5,1.9,0.9c1.4,0.9,2.4,2.2,3.1,3.7c0.7,1.5,1.1,3.3,1.2,5.3
		c0.1,2,0.2,4,0.2,6.2c0,2.4-0.1,4.7-0.3,6.7c-0.2,2.1-0.6,3.9-1.3,5.4c-0.7,1.6-1.7,2.8-3,3.7c-0.5,0.3-1.1,0.6-1.8,0.8
		c0.9-0.2,1.8-0.5,2.7-0.9c2-0.9,3.9-2.1,5.4-3.7c1.5-1.5,2.8-3.3,3.7-5.4c0.9-2,1.4-4.2,1.4-6.5c0-2.6-0.5-4.9-1.5-7
		c-1-2.1-2.3-3.8-3.9-5.3c-1.6-1.4-3.4-2.6-5.4-3.4C565.6,15.6,564.8,15.4,563.9,15.2 M556.1,15.3c-0.6,0.2-1.2,0.4-1.9,0.6
		c-2,0.8-3.9,2-5.5,3.4c-1.6,1.5-3,3.3-4,5.4c-1,2.1-1.6,4.4-1.6,7c0,2.3,0.5,4.6,1.4,6.6c0.9,2,2.2,3.8,3.7,5.3
		c1.5,1.5,3.4,2.7,5.4,3.5c0.8,0.3,1.6,0.6,2.4,0.8c-0.2-0.1-0.4-0.1-0.6-0.2c-1.3-0.5-2.4-1.4-3.2-2.8c-0.8-1.3-1.4-3-1.8-5.2v0
		c-0.4-2.1-0.6-4.8-0.6-8c0-2.4,0.1-4.7,0.3-6.8c0.2-2.1,0.7-3.9,1.4-5.4c0.7-1.5,1.7-2.8,3.1-3.6C555.2,15.7,555.7,15.5,556.1,15.3
		 M551.3,39.7c0.4,2.1,0.9,3.7,1.7,4.9c0.7,1.2,1.7,2,2.9,2.5c1.2,0.5,2.7,0.7,4.3,0.7c2.2,0,3.9-0.4,5.2-1.2
		c1.2-0.8,2.2-1.9,2.8-3.4c0.6-1.5,1-3.2,1.2-5.2c0.2-2,0.3-4.3,0.3-6.7c0-2.1-0.1-4.2-0.2-6.2c-0.1-1.9-0.5-3.6-1.2-5.1
		c-0.6-1.4-1.6-2.6-2.8-3.4c-1.2-0.8-3-1.3-5.2-1.3c-2.1,0-3.8,0.4-5,1.2c-1.2,0.8-2.2,1.9-2.8,3.3c-0.7,1.4-1.1,3.2-1.3,5.2
		c-0.2,2-0.3,4.3-0.3,6.7C550.8,34.9,550.9,37.6,551.3,39.7L551.3,39.7z"/>
	<path class="st0" d="M581.1,15.8v-0.6h7c1.3,0,2.6,0,3.8-0.1c1.3,0,2.5-0.1,3.8-0.1c1.2,0,2.5,0.1,3.8,0.4c1.3,0.2,2.6,0.7,3.7,1.3
		c1.1,0.6,2,1.4,2.8,2.4c0.7,1,1.1,2.3,1.1,3.8c0,1.2-0.3,2.3-0.8,3.2c-0.6,0.9-1.3,1.6-2.2,2.2c-0.9,0.6-1.9,1-2.9,1.3
		c-1.1,0.3-2.1,0.5-3.2,0.6v0.2c1.5,0.3,2.9,0.6,4.1,0.8c1.2,0.3,2.2,0.7,3.1,1.2c0.9,0.6,1.6,1.3,2.1,2.3c0.5,1,0.8,2.3,0.9,4
		c0.2,1.9,0.3,3.5,0.4,4.7c0.1,1.2,0.2,2.1,0.4,2.7c0.2,0.6,0.4,1.1,0.7,1.3c0.3,0.2,0.7,0.3,1.3,0.3c0.6,0,1.1-0.2,1.5-0.5
		c0.4-0.4,0.8-0.7,1.1-1l0.5,0.4c-0.3,0.3-0.6,0.6-0.9,0.9c-0.3,0.3-0.6,0.5-1,0.7c-0.4,0.2-0.9,0.3-1.4,0.4
		c-0.6,0.1-1.3,0.2-2.1,0.2c-1.7,0-3-0.3-4-0.8c-1-0.5-1.7-1.2-2.1-2c-0.5-0.8-0.7-1.7-0.9-2.6c-0.1-0.9-0.2-1.8-0.2-2.7
		c-0.1-1.3-0.1-2.5-0.3-3.7c-0.1-1.2-0.4-2.2-0.8-3.2c-0.4-0.9-1-1.7-1.8-2.2c-0.8-0.6-1.9-0.8-3.4-0.8h-3.1v16.7h4.3v0.6h-15.2
		v-0.6h4.3V15.8H581.1z M594,30.1c1.4,0,2.5-0.2,3.3-0.6c0.8-0.4,1.4-0.9,1.8-1.5c0.4-0.6,0.7-1.4,0.8-2.2c0.1-0.8,0.2-1.6,0.2-2.5
		c0-1.4-0.1-2.5-0.3-3.5c-0.2-1-0.5-1.8-0.9-2.4c-0.4-0.6-1-1.1-1.8-1.4c-0.8-0.3-1.7-0.5-2.9-0.5c-0.3,0-0.7,0-1,0l-1,0.1v14.3H594
		z"/>
	<path class="st0" d="M608.5,49.1c-1.7,0-3.1-0.3-4.2-0.9c-1-0.6-1.8-1.3-2.3-2.1c-0.5-0.8-0.8-1.8-0.9-2.8
		c-0.1-0.9-0.2-1.9-0.2-2.7c-0.1-1.3-0.1-2.5-0.3-3.7c-0.1-1.1-0.4-2.2-0.7-3.1c-0.4-0.9-0.9-1.6-1.7-2.1c-0.7-0.5-1.8-0.8-3.2-0.8
		h-2.7v16h4.3v1.4h-15.9v-1.4h4.3v-31h-4.3v-1.4h7.3c1.3,0,2.6,0,3.8-0.1c1.3,0,2.6-0.1,3.9-0.1c1.2,0,2.5,0.1,3.9,0.4
		c1.4,0.3,2.7,0.7,3.8,1.3c1.2,0.6,2.1,1.5,2.9,2.5c0.8,1.1,1.2,2.4,1.2,4.1c0,1.3-0.3,2.4-0.9,3.4c-0.6,0.9-1.3,1.7-2.3,2.3
		c-0.9,0.6-1.9,1-3,1.3c-0.6,0.2-1.2,0.3-1.8,0.4c0.9,0.2,1.8,0.4,2.6,0.6c1.2,0.3,2.3,0.7,3.2,1.3c0.9,0.6,1.6,1.4,2.2,2.5
		c0.5,1,0.9,2.4,1,4.1l0.4,4.7c0.1,1.1,0.2,2,0.4,2.7c0.2,0.7,0.4,1,0.6,1.1c0.2,0.2,0.6,0.3,1.1,0.3c0.5,0,1-0.1,1.3-0.4
		c0.4-0.3,0.7-0.7,1-1l0.2-0.2l1,0.9l-0.3,0.3c-0.3,0.3-0.6,0.6-0.9,0.9c-0.3,0.3-0.7,0.5-1.1,0.7c-0.4,0.2-0.9,0.4-1.5,0.5
		C610.1,49.1,609.4,49.1,608.5,49.1 M595.3,30.4c1.4,0,2.6,0.3,3.4,0.9c0.9,0.6,1.5,1.4,1.9,2.4c0.4,1,0.7,2.1,0.8,3.3
		c0.1,1.2,0.2,2.4,0.3,3.7c0,0.8,0.1,1.7,0.2,2.6c0.1,0.9,0.4,1.7,0.8,2.5c0.4,0.7,1.1,1.4,2,1.9c0.9,0.5,2.2,0.8,3.8,0.8
		c0.8,0,1.5-0.1,2-0.2c0.2,0,0.5-0.1,0.7-0.2c-0.1,0-0.2,0-0.3,0c-0.6,0-1.1-0.1-1.5-0.4c-0.4-0.3-0.6-0.8-0.8-1.5
		c-0.2-0.7-0.3-1.6-0.4-2.8l-0.4-4.7c-0.1-1.6-0.4-2.9-0.9-3.8c-0.5-0.9-1.1-1.7-1.9-2.2c-0.8-0.5-1.8-0.9-3-1.2
		c-1.2-0.3-2.6-0.6-4-0.8l-0.3-0.1v-0.9l0.3,0c1-0.1,2.1-0.3,3.1-0.6c1-0.3,2-0.7,2.8-1.2c0.8-0.5,1.5-1.2,2-2
		c0.5-0.8,0.8-1.8,0.8-3c0-1.5-0.3-2.7-1-3.6c-0.7-1-1.6-1.7-2.6-2.3c-1.1-0.6-2.3-1-3.6-1.2c-1.5-0.3-2.8-0.4-4.1-0.4
		c0.7,0.1,1.3,0.2,1.8,0.4c0.8,0.3,1.5,0.9,1.9,1.5c0.5,0.7,0.8,1.5,1,2.5c0.2,1,0.3,2.2,0.3,3.6c0,0.8-0.1,1.7-0.2,2.5
		c-0.1,0.9-0.4,1.6-0.8,2.3c-0.4,0.7-1.1,1.2-2,1.6C596.8,30.1,596.1,30.3,595.3,30.4 M585.7,47.8h6V15.5l0.5,0c-0.1,0-0.1,0-0.2,0
		c-1.3,0-2.6,0.1-3.9,0.1h-2.4V47.8z M592.4,29.8h1.5c1.3,0,2.4-0.2,3.1-0.5c0.7-0.3,1.3-0.8,1.7-1.4c0.4-0.6,0.6-1.3,0.7-2
		c0.1-0.8,0.2-1.6,0.2-2.4c0-1.3-0.1-2.5-0.3-3.4c-0.2-0.9-0.5-1.7-0.9-2.3c-0.4-0.6-0.9-1-1.6-1.3c-0.7-0.3-1.6-0.4-2.8-0.4
		c-0.3,0-0.7,0-1,0l-0.7,0.1V29.8z"/>
	<path class="st0" d="M616.4,24.6c1.1-2.1,2.4-4,4.1-5.5c1.7-1.5,3.5-2.7,5.6-3.5c2.1-0.8,4.1-1.2,6.1-1.2c2.1,0,4.2,0.4,6.3,1.2
		c2.1,0.8,3.9,1.9,5.6,3.4c1.6,1.5,2.9,3.3,3.9,5.4c1,2.1,1.5,4.5,1.5,7.2c0,2.3-0.5,4.5-1.4,6.6c-0.9,2.1-2.2,3.9-3.8,5.5
		c-1.6,1.6-3.4,2.8-5.5,3.7c-2.1,0.9-4.3,1.4-6.6,1.4c-2.3,0-4.5-0.4-6.6-1.3c-2.1-0.9-3.9-2.1-5.5-3.6c-1.6-1.5-2.9-3.3-3.8-5.4
		c-1-2.1-1.4-4.3-1.4-6.7C614.8,29.1,615.4,26.7,616.4,24.6 M623,39.7c0.4,2.1,1,3.8,1.7,5c0.8,1.2,1.8,2.1,3.1,2.6
		c1.2,0.5,2.7,0.7,4.5,0.7c2.3,0,4.1-0.4,5.4-1.3c1.3-0.8,2.3-2,2.9-3.5c0.6-1.5,1.1-3.3,1.2-5.3c0.2-2.1,0.3-4.3,0.3-6.7
		c0-2.2-0.1-4.2-0.2-6.2c-0.1-2-0.5-3.7-1.2-5.2c-0.6-1.5-1.6-2.7-2.9-3.6c-1.3-0.9-3.1-1.3-5.4-1.3c-2.2,0-3.9,0.4-5.2,1.2
		c-1.3,0.8-2.3,2-3,3.4c-0.7,1.5-1.1,3.2-1.3,5.3c-0.2,2-0.3,4.3-0.3,6.7C622.4,34.9,622.6,37.6,623,39.7"/>
	<path class="st0" d="M632.2,49.1c-2.3,0-4.6-0.5-6.7-1.3c-2.1-0.9-4-2.1-5.6-3.7c-1.6-1.5-2.9-3.4-3.9-5.5c-1-2.1-1.5-4.4-1.5-6.9
		c0-2.7,0.6-5.1,1.6-7.3c1.1-2.2,2.5-4,4.2-5.6c1.7-1.5,3.6-2.7,5.7-3.6c4.4-1.7,8.6-1.6,12.6,0c2.1,0.8,4,2,5.7,3.5
		c1.6,1.5,3,3.4,4,5.5c1,2.2,1.5,4.6,1.5,7.3c0,2.4-0.5,4.6-1.4,6.7c-1,2.1-2.3,4-3.9,5.6c-1.6,1.6-3.5,2.9-5.6,3.8
		C636.8,48.7,634.6,49.1,632.2,49.1 M635.9,15.2c0.7,0.2,1.4,0.5,1.9,0.9c1.4,0.9,2.4,2.2,3.1,3.7c0.7,1.5,1.1,3.3,1.2,5.3
		c0.1,2,0.2,4,0.2,6.2c0,2.4-0.1,4.7-0.3,6.7c-0.2,2.1-0.6,3.9-1.3,5.4c-0.7,1.6-1.7,2.8-3.1,3.7c-0.5,0.3-1.1,0.6-1.8,0.8
		c0.9-0.2,1.8-0.5,2.7-0.9c2-0.9,3.9-2.1,5.4-3.7c1.6-1.5,2.8-3.3,3.7-5.4c0.9-2,1.4-4.2,1.4-6.5c0-2.6-0.5-4.9-1.5-7
		c-1-2.1-2.3-3.8-3.9-5.3c-1.6-1.4-3.4-2.6-5.4-3.4C637.6,15.6,636.8,15.4,635.9,15.2 M628.1,15.3c-0.6,0.2-1.2,0.4-1.9,0.6
		c-2,0.8-3.9,2-5.5,3.4c-1.6,1.5-3,3.3-4,5.4c-1,2.1-1.6,4.4-1.6,7c0,2.3,0.5,4.6,1.4,6.6c0.9,2,2.2,3.8,3.7,5.3
		c1.5,1.5,3.4,2.7,5.4,3.5c0.8,0.3,1.6,0.6,2.4,0.8c-0.2-0.1-0.4-0.1-0.6-0.2c-1.3-0.5-2.4-1.4-3.2-2.8c-0.8-1.3-1.4-3-1.8-5.2v0
		c-0.4-2.1-0.6-4.8-0.6-8c0-2.4,0.1-4.7,0.3-6.8c0.2-2.1,0.7-3.9,1.4-5.4c0.7-1.5,1.7-2.8,3.1-3.6C627.2,15.7,627.7,15.5,628.1,15.3
		 M623.3,39.7c0.4,2.1,0.9,3.7,1.7,4.9c0.7,1.2,1.7,2,2.9,2.5c1.2,0.5,2.7,0.7,4.3,0.7c2.2,0,3.9-0.4,5.2-1.2
		c1.2-0.8,2.2-1.9,2.8-3.4c0.6-1.5,1-3.2,1.2-5.2c0.2-2,0.3-4.3,0.3-6.7c0-2.1-0.1-4.2-0.2-6.2c-0.1-1.9-0.5-3.6-1.2-5.1
		c-0.6-1.4-1.6-2.6-2.8-3.4c-1.2-0.8-3-1.3-5.2-1.3c-2.1,0-3.8,0.4-5,1.2c-1.2,0.8-2.2,1.9-2.8,3.3c-0.7,1.4-1.1,3.2-1.3,5.2
		c-0.2,2-0.3,4.3-0.3,6.7C622.8,34.9,622.9,37.6,623.3,39.7"/>
	<rect x="130.6" y="23.1" class="st1" width="3.3" height="48.7"/>
	<path class="st0" d="M97.4,71.3L75.1,17.5h7.8c1.2,0.1,2.2,0.2,3.2,0.5c1.3,0.3,2.4,0.9,3.4,1.7c1,0.8,1.9,1.9,2.7,3.3
		c0.7,1.3,1.4,3.1,2,5.1h0.7V17.5h0l0-0.1l0-2.4h-44L45.3,2.4H51V0H17.4l1,2.4h3.3c4.2,0,7.9,2.6,9.3,6.5l28.4,66.6H47.9l0,0h-2.6
		V76c0,1.1,0.9,2,1.9,2l0,0h0.1h1.7h26.1h10h7.8C96.4,78,98.7,74.5,97.4,71.3 M85.6,75.5h-2.1c-3.8,0-7.3-2.3-8.8-5.8
		c-0.1-0.2-4.4-10.1-4.4-10.1L51.9,17.5h2.6c4.2,0,7.9,2.6,9.3,6.5l12.7,30.4l9.4,21.1H85.6z"/>
	<path class="st0" d="M37.5,47H23.9l6.7-16.1l-1.9-4.6L10.3,70.5l0,0c-0.9,2.1-2.5,3.7-4.5,4.5c-0.9,0.4-1.9,0.5-2.9,0.5H1.3H0V76
		c0,0.9,0.5,1.6,1.3,2v0h0c0.3,0.1,0.6,0.2,0.9,0.2h16.7v-0.8c0-0.9-0.7-1.7-1.6-1.8c-0.1,0-0.2,0-0.3,0c-0.6,0-1.2-0.1-1.7-0.4
		c-0.5-0.3-0.9-0.6-1.2-1.1c-0.6-0.9-0.7-2-0.3-3l7.3-17.6c0.9-2.1,3-3.5,5.3-3.5h12.1L37.5,47z"/>
	<path class="st1" d="M182.5,62.4c-0.4-0.6-0.8-1.1-1.3-1.4c-0.5-0.4-1.1-0.7-1.7-0.9c-0.6-0.2-1.3-0.3-2-0.3
		c-1.3,0-2.3,0.2-3.2,0.7c-0.9,0.5-1.6,1.1-2.2,1.9c-0.6,0.8-1,1.7-1.3,2.7c-0.3,1-0.4,2-0.4,3c0,1,0.1,2,0.4,3
		c0.3,1,0.7,1.9,1.3,2.7c0.6,0.8,1.3,1.4,2.2,1.9c0.9,0.5,2,0.7,3.2,0.7c0.9,0,1.7-0.2,2.4-0.5c0.7-0.3,1.3-0.7,1.8-1.3
		c0.5-0.5,0.9-1.2,1.2-1.9c0.3-0.7,0.5-1.5,0.6-2.4h1.8c-0.1,1.2-0.4,2.2-0.8,3.1c-0.4,0.9-1,1.7-1.6,2.4c-0.7,0.7-1.5,1.2-2.4,1.5
		c-0.9,0.4-1.9,0.5-3,0.5c-1.5,0-2.8-0.3-3.9-0.8c-1.1-0.5-2-1.3-2.8-2.2c-0.7-0.9-1.3-1.9-1.7-3.1c-0.4-1.2-0.6-2.4-0.6-3.7
		c0-1.3,0.2-2.5,0.6-3.7c0.4-1.2,0.9-2.2,1.7-3.1c0.7-0.9,1.7-1.6,2.8-2.2c1.1-0.5,2.4-0.8,3.9-0.8c0.9,0,1.8,0.1,2.6,0.4
		c0.9,0.3,1.6,0.7,2.3,1.2c0.7,0.5,1.3,1.2,1.7,1.9c0.5,0.8,0.8,1.6,0.9,2.6h-1.8C183.1,63.6,182.9,63,182.5,62.4"/>
	<path class="st1" d="M196.9,64.1c0.8,0.4,1.5,0.9,2,1.6c0.5,0.7,1,1.4,1.2,2.3c0.3,0.9,0.4,1.8,0.4,2.8c0,1-0.1,1.9-0.4,2.8
		c-0.3,0.9-0.7,1.6-1.2,2.3c-0.5,0.7-1.2,1.2-2,1.5c-0.8,0.4-1.7,0.6-2.8,0.6c-1,0-2-0.2-2.8-0.6c-0.8-0.4-1.5-0.9-2-1.5
		c-0.5-0.7-1-1.4-1.2-2.3c-0.3-0.9-0.4-1.8-0.4-2.8c0-1,0.1-1.9,0.4-2.8c0.3-0.9,0.7-1.6,1.2-2.3c0.5-0.7,1.2-1.2,2-1.6
		c0.8-0.4,1.7-0.6,2.8-0.6C195.2,63.5,196.1,63.7,196.9,64.1 M192.1,65.4c-0.6,0.3-1.1,0.8-1.5,1.3c-0.4,0.5-0.7,1.2-0.9,1.9
		c-0.2,0.7-0.3,1.4-0.3,2.1c0,0.7,0.1,1.4,0.3,2.1c0.2,0.7,0.5,1.3,0.9,1.9c0.4,0.5,0.9,1,1.5,1.3c0.6,0.3,1.3,0.5,2.1,0.5
		c0.8,0,1.5-0.2,2.1-0.5c0.6-0.3,1.1-0.8,1.5-1.3c0.4-0.5,0.7-1.2,0.9-1.9c0.2-0.7,0.3-1.4,0.3-2.1c0-0.7-0.1-1.4-0.3-2.1
		c-0.2-0.7-0.5-1.3-0.9-1.9c-0.4-0.5-0.9-1-1.5-1.3c-0.6-0.3-1.3-0.5-2.1-0.5C193.4,64.9,192.7,65,192.1,65.4"/>
	<path class="st1" d="M205.4,63.9v2.3h0.1c0.3-0.8,0.9-1.5,1.7-2c0.8-0.5,1.7-0.8,2.7-0.8c0.9,0,1.7,0.1,2.4,0.4
		c0.6,0.2,1.2,0.6,1.5,1c0.4,0.5,0.7,1,0.8,1.7c0.2,0.7,0.2,1.4,0.2,2.2v8.8h-1.7V69c0-0.6-0.1-1.1-0.2-1.6
		c-0.1-0.5-0.3-0.9-0.6-1.3c-0.3-0.4-0.6-0.7-1.1-0.9c-0.4-0.2-1-0.3-1.7-0.3c-0.7,0-1.3,0.1-1.8,0.4c-0.5,0.2-1,0.6-1.3,1
		c-0.4,0.4-0.6,0.9-0.8,1.5c-0.2,0.6-0.3,1.2-0.3,1.9v8h-1.7V63.9H205.4z"/>
	<path class="st1" d="M226.5,66.5c-0.2-0.4-0.5-0.7-0.8-0.9c-0.3-0.2-0.7-0.4-1.1-0.5c-0.4-0.1-0.9-0.2-1.3-0.2
		c-0.4,0-0.7,0-1.1,0.1c-0.4,0.1-0.7,0.2-1,0.4c-0.3,0.2-0.6,0.4-0.8,0.7c-0.2,0.3-0.3,0.7-0.3,1.1c0,0.4,0.1,0.7,0.3,0.9
		c0.2,0.3,0.4,0.5,0.7,0.6c0.3,0.2,0.6,0.3,0.9,0.4c0.3,0.1,0.6,0.2,0.9,0.3L225,70c0.5,0.1,0.9,0.2,1.4,0.4
		c0.5,0.2,0.9,0.4,1.2,0.7c0.4,0.3,0.7,0.7,0.9,1.1c0.2,0.4,0.3,1,0.3,1.6c0,0.7-0.2,1.4-0.5,1.9s-0.8,0.9-1.3,1.3
		c-0.5,0.3-1.1,0.6-1.8,0.7c-0.7,0.1-1.3,0.2-1.9,0.2c-1.6,0-2.9-0.4-3.9-1.1c-1-0.8-1.6-2-1.7-3.6h1.7c0.1,1.1,0.5,2,1.2,2.5
		c0.7,0.6,1.7,0.9,2.8,0.9c0.4,0,0.8,0,1.3-0.1c0.4-0.1,0.8-0.2,1.2-0.4c0.4-0.2,0.7-0.5,0.9-0.8c0.2-0.3,0.4-0.7,0.4-1.2
		c0-0.4-0.1-0.7-0.3-1c-0.2-0.3-0.4-0.5-0.7-0.7c-0.3-0.2-0.6-0.3-1-0.5c-0.4-0.1-0.7-0.2-1.1-0.3l-2.1-0.5c-0.5-0.1-1-0.3-1.5-0.5
		c-0.5-0.2-0.9-0.4-1.2-0.7c-0.3-0.3-0.6-0.6-0.8-1c-0.2-0.4-0.3-0.9-0.3-1.5c0-0.7,0.2-1.3,0.5-1.8c0.3-0.5,0.7-0.9,1.2-1.2
		c0.5-0.3,1-0.5,1.7-0.7c0.6-0.1,1.2-0.2,1.8-0.2c0.7,0,1.3,0.1,1.9,0.3c0.6,0.2,1.1,0.4,1.6,0.8c0.4,0.4,0.8,0.8,1.1,1.4
		c0.3,0.5,0.4,1.2,0.4,1.9h-1.7C226.8,67.4,226.7,66.9,226.5,66.5"/>
	<path class="st1" d="M241.5,77.5v-2.5h-0.1c-0.4,0.9-1.1,1.6-1.9,2.1c-0.8,0.5-1.8,0.7-2.8,0.7c-0.9,0-1.6-0.1-2.2-0.4
		c-0.6-0.2-1.1-0.6-1.5-1c-0.4-0.4-0.7-1-0.8-1.6c-0.2-0.6-0.3-1.4-0.3-2.2v-8.8h1.7v8.9c0,1.2,0.3,2.2,0.9,2.8c0.5,0.6,1.5,1,2.8,1
		c0.7,0,1.3-0.2,1.8-0.5c0.5-0.3,0.9-0.7,1.3-1.2c0.3-0.5,0.6-1.1,0.7-1.8c0.2-0.7,0.2-1.3,0.2-2v-7.2h1.7v13.6H241.5z"/>
	<rect x="246.9" y="58.6" class="st1" width="1.7" height="18.9"/>
	<path class="st1" d="M257.8,63.9v1.4H255v9.2c0,0.5,0.1,1,0.2,1.3c0.1,0.3,0.5,0.5,1.1,0.5c0.5,0,1,0,1.4-0.1v1.4
		c-0.2,0-0.5,0-0.7,0c-0.2,0-0.5,0-0.7,0c-1.1,0-1.9-0.2-2.3-0.6c-0.4-0.4-0.7-1.2-0.6-2.4v-9.3H251v-1.4h2.4v-4.1h1.7v4.1H257.8z"
		/>
	<path class="st1" d="M269.4,64.1c0.8,0.4,1.5,0.9,2,1.6c0.5,0.7,1,1.4,1.2,2.3c0.3,0.9,0.4,1.8,0.4,2.8c0,1-0.1,1.9-0.4,2.8
		c-0.3,0.9-0.7,1.6-1.2,2.3c-0.5,0.7-1.2,1.2-2,1.5c-0.8,0.4-1.7,0.6-2.8,0.6c-1,0-2-0.2-2.8-0.6c-0.8-0.4-1.5-0.9-2-1.5
		c-0.5-0.7-1-1.4-1.2-2.3c-0.3-0.9-0.4-1.8-0.4-2.8c0-1,0.1-1.9,0.4-2.8c0.3-0.9,0.7-1.6,1.2-2.3c0.5-0.7,1.2-1.2,2-1.6
		c0.8-0.4,1.7-0.6,2.8-0.6C267.6,63.5,268.6,63.7,269.4,64.1 M264.5,65.4c-0.6,0.3-1.1,0.8-1.5,1.3c-0.4,0.5-0.7,1.2-0.9,1.9
		c-0.2,0.7-0.3,1.4-0.3,2.1c0,0.7,0.1,1.4,0.3,2.1c0.2,0.7,0.5,1.3,0.9,1.9c0.4,0.5,0.9,1,1.5,1.3c0.6,0.3,1.3,0.5,2.1,0.5
		c0.8,0,1.5-0.2,2.1-0.5c0.6-0.3,1.1-0.8,1.5-1.3c0.4-0.5,0.7-1.2,0.9-1.9c0.2-0.7,0.3-1.4,0.3-2.1c0-0.7-0.1-1.4-0.3-2.1
		c-0.2-0.7-0.5-1.3-0.9-1.9c-0.4-0.5-0.9-1-1.5-1.3c-0.6-0.3-1.3-0.5-2.1-0.5C265.8,64.9,265.1,65,264.5,65.4"/>
	<path class="st1" d="M277.7,63.9v3.2h0.1c0.4-1.1,1.1-2,2-2.6c0.9-0.6,1.9-0.9,3.2-0.8v1.7c-0.8,0-1.4,0.1-2.1,0.3
		c-0.6,0.2-1.1,0.6-1.6,1c-0.4,0.4-0.8,1-1,1.6c-0.2,0.6-0.4,1.3-0.4,2v7.3h-1.7V63.9H277.7z"/>
	<path class="st1" d="M284.5,62l2.8-3.7h2.1l-3.5,3.7H284.5z M285.2,63.9h1.7v13.6h-1.7V63.9z"/>
	<path class="st1" d="M291.1,66c0.3-0.6,0.7-1.1,1.1-1.4c0.5-0.4,1.1-0.6,1.7-0.8c0.7-0.2,1.4-0.3,2.2-0.3c0.6,0,1.2,0.1,1.8,0.2
		c0.6,0.1,1.1,0.3,1.6,0.6c0.5,0.3,0.9,0.8,1.2,1.3c0.3,0.6,0.4,1.3,0.4,2.2v7.2c0,0.7,0.3,1,1,1c0.2,0,0.4,0,0.5-0.1v1.4
		c-0.2,0-0.4,0.1-0.5,0.1c-0.1,0-0.3,0-0.6,0c-0.4,0-0.8-0.1-1-0.2c-0.3-0.1-0.5-0.3-0.6-0.5c-0.1-0.2-0.2-0.5-0.3-0.8
		c0-0.3-0.1-0.6-0.1-1h-0.1c-0.3,0.4-0.6,0.8-0.9,1.2c-0.3,0.3-0.7,0.6-1,0.9c-0.4,0.2-0.8,0.4-1.3,0.5c-0.5,0.1-1.1,0.2-1.7,0.2
		c-0.6,0-1.2-0.1-1.8-0.2c-0.6-0.1-1-0.4-1.5-0.7c-0.4-0.3-0.7-0.7-1-1.2c-0.2-0.5-0.4-1.1-0.4-1.8c0-1,0.2-1.7,0.6-2.2
		c0.4-0.5,1-0.9,1.7-1.2c0.7-0.3,1.5-0.5,2.4-0.6c0.9-0.1,1.8-0.2,2.7-0.3c0.4,0,0.7-0.1,0.9-0.1c0.3-0.1,0.5-0.1,0.7-0.3
		c0.2-0.1,0.3-0.3,0.4-0.5c0.1-0.2,0.1-0.5,0.1-0.9c0-0.6-0.1-1-0.3-1.4c-0.2-0.4-0.4-0.6-0.8-0.9c-0.3-0.2-0.7-0.4-1.1-0.4
		c-0.4-0.1-0.9-0.1-1.4-0.1c-1.1,0-1.9,0.3-2.6,0.8c-0.7,0.5-1,1.3-1.1,2.4h-1.7C290.6,67.3,290.8,66.6,291.1,66 M299.4,70.1
		c-0.1,0.2-0.3,0.3-0.6,0.4c-0.3,0.1-0.6,0.2-0.8,0.2c-0.7,0.1-1.4,0.2-2.2,0.3c-0.7,0.1-1.4,0.2-2,0.4c-0.6,0.2-1.1,0.5-1.5,0.8
		c-0.4,0.4-0.6,0.9-0.6,1.5c0,0.4,0.1,0.8,0.3,1.1c0.2,0.3,0.4,0.6,0.7,0.8c0.3,0.2,0.6,0.4,1,0.5c0.4,0.1,0.7,0.2,1.1,0.2
		c0.6,0,1.2-0.1,1.8-0.3c0.6-0.2,1.1-0.5,1.5-0.8c0.4-0.4,0.8-0.8,1-1.3c0.3-0.5,0.4-1.1,0.4-1.8L299.4,70.1L299.4,70.1z"/>
	<path class="st1" d="M323.5,77.5v-2.6h-0.1c-0.2,0.4-0.4,0.8-0.8,1.2c-0.3,0.4-0.7,0.7-1.2,0.9c-0.4,0.3-0.9,0.5-1.4,0.6
		c-0.5,0.1-1,0.2-1.5,0.2c-1,0-1.9-0.2-2.7-0.6c-0.8-0.4-1.4-0.9-1.9-1.6c-0.5-0.7-0.9-1.4-1.1-2.3c-0.2-0.9-0.4-1.8-0.4-2.8
		c0-1,0.1-1.9,0.4-2.8c0.2-0.9,0.6-1.6,1.1-2.3c0.5-0.7,1.1-1.2,1.9-1.6c0.8-0.4,1.7-0.6,2.7-0.6c0.5,0,1,0.1,1.5,0.2
		c0.5,0.1,0.9,0.3,1.4,0.6c0.4,0.3,0.8,0.6,1.1,0.9c0.3,0.4,0.6,0.8,0.8,1.3h0.1v-7.8h1.7v18.9H323.5z M314.4,72.8
		c0.2,0.7,0.4,1.3,0.8,1.9c0.4,0.5,0.8,1,1.4,1.3c0.6,0.3,1.2,0.5,2,0.5c0.9,0,1.6-0.2,2.2-0.5c0.6-0.3,1.1-0.8,1.5-1.3
		c0.4-0.5,0.7-1.2,0.8-1.9c0.2-0.7,0.3-1.4,0.3-2.1c0-0.7-0.1-1.4-0.3-2.1c-0.2-0.7-0.4-1.3-0.8-1.9c-0.4-0.5-0.9-1-1.5-1.3
		c-0.6-0.3-1.4-0.5-2.2-0.5c-0.8,0-1.5,0.2-2,0.5c-0.6,0.3-1,0.8-1.4,1.3c-0.4,0.5-0.6,1.2-0.8,1.9c-0.2,0.7-0.3,1.4-0.3,2.1
		C314.2,71.4,314.3,72.1,314.4,72.8"/>
	<path class="st1" d="M330.1,73c0.2,0.6,0.4,1.2,0.8,1.7c0.4,0.5,0.8,0.9,1.4,1.3c0.6,0.3,1.2,0.5,2,0.5c1.2,0,2.2-0.3,2.9-1
		c0.7-0.6,1.2-1.5,1.4-2.5h1.7c-0.4,1.5-1,2.7-1.9,3.6c-0.9,0.8-2.3,1.3-4,1.3c-1.1,0-2-0.2-2.8-0.6c-0.8-0.4-1.4-0.9-1.9-1.6
		c-0.5-0.7-0.9-1.4-1.1-2.3c-0.2-0.9-0.4-1.8-0.4-2.8c0-0.9,0.1-1.8,0.4-2.6c0.2-0.9,0.6-1.6,1.1-2.3c0.5-0.7,1.1-1.2,1.9-1.6
		c0.8-0.4,1.7-0.6,2.8-0.6c1.1,0,2,0.2,2.8,0.7c0.8,0.4,1.4,1,1.9,1.7c0.5,0.7,0.8,1.5,1,2.5c0.2,0.9,0.3,1.9,0.3,2.8h-10.5
		C329.9,71.7,330,72.4,330.1,73 M338.4,67.9c-0.2-0.6-0.5-1.1-0.9-1.5c-0.4-0.4-0.8-0.8-1.3-1.1c-0.5-0.3-1.1-0.4-1.8-0.4
		c-0.7,0-1.3,0.1-1.8,0.4c-0.5,0.3-1,0.6-1.3,1.1c-0.4,0.4-0.7,1-0.9,1.6c-0.2,0.6-0.4,1.2-0.4,1.8h8.8
		C338.7,69.1,338.6,68.5,338.4,67.9"/>
	<polygon class="st1" points="353.6,58.6 364.6,74.6 364.6,74.6 364.6,58.6 366.4,58.6 366.4,77.5 364.4,77.5 353.4,61.6 
		353.4,61.6 353.4,77.5 351.6,77.5 351.6,58.6 	"/>
	<path class="st1" d="M371.8,73c0.2,0.6,0.4,1.2,0.8,1.7c0.4,0.5,0.8,0.9,1.4,1.3c0.6,0.3,1.2,0.5,2,0.5c1.2,0,2.2-0.3,2.9-1
		c0.7-0.6,1.2-1.5,1.4-2.5h1.7c-0.4,1.5-1,2.7-1.9,3.6c-0.9,0.8-2.3,1.3-4,1.3c-1.1,0-2-0.2-2.8-0.6c-0.8-0.4-1.4-0.9-1.9-1.6
		c-0.5-0.7-0.9-1.4-1.1-2.3c-0.2-0.9-0.4-1.8-0.4-2.8c0-0.9,0.1-1.8,0.4-2.6c0.2-0.9,0.6-1.6,1.1-2.3c0.5-0.7,1.1-1.2,1.9-1.6
		c0.8-0.4,1.7-0.6,2.8-0.6c1.1,0,2,0.2,2.8,0.7c0.8,0.4,1.4,1,1.9,1.7c0.5,0.7,0.8,1.5,1,2.5c0.2,0.9,0.3,1.9,0.3,2.8h-10.5
		C371.5,71.7,371.6,72.4,371.8,73 M380,67.9c-0.2-0.6-0.5-1.1-0.9-1.5c-0.4-0.4-0.8-0.8-1.3-1.1c-0.5-0.3-1.1-0.4-1.8-0.4
		c-0.7,0-1.3,0.1-1.8,0.4c-0.5,0.3-1,0.6-1.3,1.1c-0.4,0.4-0.7,1-0.9,1.6c-0.2,0.6-0.4,1.2-0.4,1.8h8.8
		C380.3,69.1,380.2,68.5,380,67.9"/>
	<path class="st1" d="M396.1,79.1c-0.2,0.8-0.6,1.5-1,2.1c-0.5,0.6-1.1,1-1.9,1.3c-0.8,0.3-1.7,0.4-2.8,0.4c-0.7,0-1.4-0.1-2-0.2
		c-0.7-0.2-1.2-0.4-1.8-0.7c-0.5-0.3-1-0.8-1.3-1.3c-0.3-0.5-0.5-1.1-0.6-1.9h1.7c0.1,0.5,0.3,0.9,0.5,1.3c0.3,0.3,0.6,0.6,0.9,0.8
		c0.4,0.2,0.8,0.4,1.2,0.5c0.4,0.1,0.9,0.1,1.3,0.1c1.5,0,2.7-0.4,3.4-1.3c0.7-0.9,1-2.1,1-3.8v-1.8h-0.1c-0.4,0.8-1,1.5-1.7,2
		c-0.7,0.5-1.6,0.8-2.6,0.8c-1.1,0-2-0.2-2.8-0.5c-0.8-0.4-1.4-0.9-1.9-1.5c-0.5-0.6-0.9-1.4-1.1-2.2c-0.2-0.9-0.3-1.8-0.3-2.7
		c0-0.9,0.1-1.8,0.4-2.7c0.3-0.8,0.7-1.6,1.2-2.2c0.5-0.6,1.2-1.1,1.9-1.5c0.8-0.4,1.6-0.5,2.6-0.5c0.5,0,1,0.1,1.4,0.2
		c0.4,0.1,0.9,0.3,1.2,0.6c0.4,0.3,0.7,0.5,1,0.9c0.3,0.3,0.5,0.7,0.7,1.1h0.1v-2.4h1.7v12.5C396.4,77.4,396.3,78.3,396.1,79.1
		 M392.3,75.5c0.5-0.3,1-0.7,1.4-1.2c0.4-0.5,0.6-1.1,0.8-1.7c0.2-0.7,0.3-1.3,0.3-2c0-0.7-0.1-1.3-0.2-2c-0.2-0.7-0.4-1.3-0.8-1.8
		c-0.4-0.5-0.8-1-1.4-1.3c-0.6-0.3-1.2-0.5-2-0.5c-0.8,0-1.5,0.2-2,0.5c-0.6,0.3-1,0.8-1.4,1.3c-0.4,0.5-0.6,1.1-0.8,1.8
		c-0.2,0.7-0.3,1.4-0.3,2.1c0,0.7,0.1,1.4,0.3,2c0.2,0.7,0.4,1.2,0.8,1.7c0.4,0.5,0.8,0.9,1.4,1.2c0.6,0.3,1.2,0.5,2,0.5
		C391.1,75.9,391.7,75.8,392.3,75.5"/>
	<path class="st1" d="M408.8,64.1c0.8,0.4,1.5,0.9,2,1.6c0.5,0.7,1,1.4,1.2,2.3c0.3,0.9,0.4,1.8,0.4,2.8c0,1-0.1,1.9-0.4,2.8
		c-0.3,0.9-0.7,1.6-1.2,2.3c-0.5,0.7-1.2,1.2-2,1.5c-0.8,0.4-1.7,0.6-2.8,0.6c-1,0-2-0.2-2.8-0.6c-0.8-0.4-1.5-0.9-2-1.5
		c-0.5-0.7-1-1.4-1.2-2.3c-0.3-0.9-0.4-1.8-0.4-2.8c0-1,0.1-1.9,0.4-2.8c0.3-0.9,0.7-1.6,1.2-2.3c0.5-0.7,1.2-1.2,2-1.6
		c0.8-0.4,1.7-0.6,2.8-0.6C407,63.5,408,63.7,408.8,64.1 M403.9,65.4c-0.6,0.3-1.1,0.8-1.5,1.3c-0.4,0.5-0.7,1.2-0.9,1.9
		c-0.2,0.7-0.3,1.4-0.3,2.1c0,0.7,0.1,1.4,0.3,2.1c0.2,0.7,0.5,1.3,0.9,1.9c0.4,0.5,0.9,1,1.5,1.3c0.6,0.3,1.3,0.5,2.1,0.5
		c0.8,0,1.5-0.2,2.1-0.5c0.6-0.3,1.1-0.8,1.5-1.3c0.4-0.5,0.7-1.2,0.9-1.9c0.2-0.7,0.3-1.4,0.3-2.1c0-0.7-0.1-1.4-0.3-2.1
		c-0.2-0.7-0.5-1.3-0.9-1.9c-0.4-0.5-0.9-1-1.5-1.3c-0.6-0.3-1.3-0.5-2.1-0.5C405.2,64.9,404.5,65,403.9,65.4"/>
	<path class="st1" d="M423.9,65.8c-0.6-0.6-1.5-0.9-2.6-0.9c-0.8,0-1.5,0.2-2.1,0.5c-0.6,0.3-1.1,0.8-1.5,1.3
		c-0.4,0.5-0.7,1.2-0.9,1.9c-0.2,0.7-0.3,1.4-0.3,2.1c0,0.7,0.1,1.4,0.3,2.1c0.2,0.7,0.5,1.3,0.9,1.9c0.4,0.5,0.9,1,1.5,1.3
		c0.6,0.3,1.3,0.5,2.1,0.5c0.5,0,1-0.1,1.5-0.3c0.5-0.2,0.9-0.5,1.2-0.8c0.4-0.3,0.6-0.8,0.9-1.2c0.2-0.5,0.4-1,0.4-1.6h1.7
		c-0.2,1.7-0.8,2.9-1.8,3.9c-1,0.9-2.3,1.4-3.8,1.4c-1,0-2-0.2-2.8-0.6c-0.8-0.4-1.5-0.9-2-1.5c-0.5-0.7-1-1.4-1.2-2.3
		c-0.3-0.9-0.4-1.8-0.4-2.8c0-1,0.1-1.9,0.4-2.8c0.3-0.9,0.7-1.6,1.2-2.3c0.5-0.7,1.2-1.2,2-1.6c0.8-0.4,1.7-0.6,2.8-0.6
		c1.5,0,2.7,0.4,3.7,1.2c1,0.8,1.6,1.9,1.8,3.5h-1.7C425,67.1,424.5,66.3,423.9,65.8"/>
	<path class="st1" d="M431.6,61.3H430v-2.7h1.7V61.3z M431.6,77.5H430V63.9h1.7V77.5z"/>
	<path class="st1" d="M444,64.1c0.8,0.4,1.5,0.9,2,1.6c0.5,0.7,1,1.4,1.2,2.3c0.3,0.9,0.4,1.8,0.4,2.8c0,1-0.1,1.9-0.4,2.8
		c-0.3,0.9-0.7,1.6-1.2,2.3c-0.5,0.7-1.2,1.2-2,1.5c-0.8,0.4-1.7,0.6-2.8,0.6c-1,0-2-0.2-2.8-0.6c-0.8-0.4-1.5-0.9-2-1.5
		c-0.5-0.7-1-1.4-1.2-2.3c-0.3-0.9-0.4-1.8-0.4-2.8c0-1,0.1-1.9,0.4-2.8c0.3-0.9,0.7-1.6,1.2-2.3c0.5-0.7,1.2-1.2,2-1.6
		c0.8-0.4,1.7-0.6,2.8-0.6C442.3,63.5,443.2,63.7,444,64.1 M439.2,65.4c-0.6,0.3-1.1,0.8-1.5,1.3c-0.4,0.5-0.7,1.2-0.9,1.9
		c-0.2,0.7-0.3,1.4-0.3,2.1c0,0.7,0.1,1.4,0.3,2.1c0.2,0.7,0.5,1.3,0.9,1.9c0.4,0.5,0.9,1,1.5,1.3c0.6,0.3,1.3,0.5,2.1,0.5
		c0.8,0,1.5-0.2,2.1-0.5c0.6-0.3,1.1-0.8,1.5-1.3c0.4-0.5,0.7-1.2,0.9-1.9c0.2-0.7,0.3-1.4,0.3-2.1c0-0.7-0.1-1.4-0.3-2.1
		c-0.2-0.7-0.5-1.3-0.9-1.9c-0.4-0.5-0.9-1-1.5-1.3c-0.6-0.3-1.3-0.5-2.1-0.5C440.5,64.9,439.8,65,439.2,65.4"/>
	<path class="st1" d="M458.7,66.5c-0.2-0.4-0.5-0.7-0.8-0.9c-0.3-0.2-0.7-0.4-1.1-0.5c-0.4-0.1-0.9-0.2-1.3-0.2
		c-0.4,0-0.7,0-1.1,0.1c-0.4,0.1-0.7,0.2-1,0.4c-0.3,0.2-0.6,0.4-0.8,0.7c-0.2,0.3-0.3,0.7-0.3,1.1c0,0.4,0.1,0.7,0.3,0.9
		c0.2,0.3,0.4,0.5,0.7,0.6c0.3,0.2,0.6,0.3,0.9,0.4c0.3,0.1,0.6,0.2,0.9,0.3l2.2,0.5c0.5,0.1,0.9,0.2,1.4,0.4
		c0.5,0.2,0.9,0.4,1.2,0.7c0.4,0.3,0.7,0.7,0.9,1.1c0.2,0.4,0.3,1,0.3,1.6c0,0.7-0.2,1.4-0.5,1.9c-0.3,0.5-0.8,0.9-1.3,1.3
		c-0.5,0.3-1.1,0.6-1.8,0.7c-0.7,0.1-1.3,0.2-1.9,0.2c-1.6,0-2.9-0.4-3.9-1.1c-1-0.8-1.6-2-1.7-3.6h1.7c0.1,1.1,0.5,2,1.2,2.5
		c0.7,0.6,1.7,0.9,2.8,0.9c0.4,0,0.8,0,1.3-0.1c0.4-0.1,0.8-0.2,1.2-0.4c0.4-0.2,0.7-0.5,0.9-0.8c0.2-0.3,0.4-0.7,0.4-1.2
		c0-0.4-0.1-0.7-0.3-1c-0.2-0.3-0.4-0.5-0.7-0.7c-0.3-0.2-0.6-0.3-1-0.5c-0.4-0.1-0.7-0.2-1.1-0.3l-2.1-0.5c-0.5-0.1-1-0.3-1.5-0.5
		c-0.5-0.2-0.9-0.4-1.2-0.7c-0.3-0.3-0.6-0.6-0.8-1c-0.2-0.4-0.3-0.9-0.3-1.5c0-0.7,0.2-1.3,0.5-1.8c0.3-0.5,0.7-0.9,1.2-1.2
		c0.5-0.3,1-0.5,1.7-0.7c0.6-0.1,1.2-0.2,1.8-0.2c0.7,0,1.3,0.1,1.9,0.3c0.6,0.2,1.1,0.4,1.6,0.8c0.4,0.4,0.8,0.8,1.1,1.4
		c0.3,0.5,0.4,1.2,0.4,1.9H459C459,67.4,458.9,66.9,458.7,66.5"/>
</g>
</svg>
