<?xml version="1.0" encoding="utf-8"?>
<!-- Generator: Adobe Illustrator 22.1.0, SVG Export Plug-In . SVG Version: 6.00 Build 0)  -->
<svg version="1.1" id="Capa_1" xmlns="http://www.w3.org/2000/svg" xmlns:xlink="http://www.w3.org/1999/xlink" x="0px" y="0px"
	 viewBox="0 0 281.7 27.1" style="enable-background:new 0 0 281.7 27.1;" xml:space="preserve">
<style type="text/css">
	.st0{fill:#425060;}
</style>
<g>
	<path class="st0" d="M89.2,16.3c-0.2,0.8-0.4,1.5-0.7,2.1c-0.3,0.5-0.7,1-1.1,1.4c-0.4,0.3-0.8,0.7-1.2,0.8
		c-0.4,0.1-0.9,0.3-1.3,0.3h-3.7v-14h2v-1h-7v1h2v14h-2.1h-0.2h-1.7l-6.8-16h-1l-6.4,16h-1.8v1h5v-1h-2.1l2.1-5h4.7l2.2,5h-1.9v1
		h7.7h0.2h14.1v-6h-0.9L89.2,16.3z M63.6,14.9l1.9-4.7l2,4.7H63.6z"/>
	<path class="st0" d="M104.3,17c-0.1,0.6-0.3,1-0.6,1.5c-0.3,0.5-0.6,0.9-1,1.3c-0.4,0.4-0.8,0.7-1.3,0.9c-0.5,0.2-1,0.3-1.6,0.3
		c-0.8,0-1.4-0.1-1.9-0.3c-0.5-0.2-0.9-0.6-1.3-1.1c-0.3-0.5-0.6-1.3-0.8-2.2c-0.2-0.9-0.3-2.2-0.3-3.6c0-1.1,0-2.2,0.1-3.1
		c0.1-0.9,0.3-1.7,0.6-2.4c0.3-0.6,0.7-1.1,1.2-1.5c0.5-0.3,1.3-0.5,2.3-0.5c0.7,0,1.3,0.1,1.8,0.4c0.5,0.3,0.9,0.6,1.2,1
		c0.3,0.4,0.6,0.9,0.8,1.4c0.2,0.5,0.4,1.1,0.6,1.5l0.1,0.3h0.9v-5h-1l-0.1,0.2c0,0.1,0,0.1,0,0.1c0,0-0.3,0.1-0.9-0.1
		c-0.3-0.1-0.6-0.2-0.9-0.3c-0.3-0.1-0.7-0.2-1.1-0.3C100,5.3,98.4,5.4,97,6c-1,0.4-1.9,1-2.7,1.7c-0.8,0.7-1.5,1.6-2,2.6
		c-0.5,1-0.8,2.2-0.8,3.5c0,1.2,0.2,2.3,0.7,3.3c0.5,1,1.1,1.9,1.8,2.6c0.8,0.7,1.7,1.3,2.7,1.7c1,0.4,2.1,0.6,3.2,0.6
		c0.5,0,0.9,0,1.4-0.1c0.4-0.1,0.8-0.2,1.2-0.3c0.4-0.1,0.7-0.2,0.9-0.3c0.3-0.1,0.5-0.1,0.6-0.1c0.2,0,0.3,0,0.3,0
		c0,0,0.1,0.2,0.1,0.3l0.1,0.3h0.8v-5L104.3,17L104.3,17z"/>
	<path class="st0" d="M114.7,4.9h-1l-6.4,16h-2.1v1h5v-1h-1.8l2.1-5h4.7l2.2,5h-2.2v1h8v-1h-1.7L114.7,4.9z M110.8,14.9l1.9-4.7
		l2,4.7H110.8z"/>
	<polygon class="st0" points="136.3,6.9 138.2,6.9 138.2,5.9 133.2,5.9 133.2,6.9 135.2,6.9 131.8,13.4 128,6.9 129.2,6.9 
		129.2,5.9 122.2,5.9 122.2,6.9 123.7,6.9 128.2,15.2 128.2,20.9 126.2,20.9 126.2,21.9 134.2,21.9 134.2,20.9 132.2,20.9 
		132.2,14.3 	"/>
	<path class="st0" d="M146.1,4.9h-1l-6.4,16h-1.5v1h4v-1h-1.4l2.1-5h4.7l2.2,5h-1.6v1h8v-1h-2.3L146.1,4.9z M142.2,14.9l1.9-4.7
		l2,4.7H142.2z"/>
	<path class="st0" d="M170.2,14.9h-7v1h2v0.8c0,0.6,0.2,1.2,0.1,1.8c-0.1,0.5-0.1,1-0.3,1.3c-0.2,0.4-0.4,0.6-0.7,0.8
		c-0.3,0.2-0.8,0.3-1.4,0.3c-0.8,0-1.4-0.1-1.9-0.3c-0.5-0.2-0.9-0.6-1.3-1c-0.3-0.5-0.4-1.2-0.5-2c-0.2-0.9,0-1.9,0-3.2v-1.9
		c0-0.8-0.2-1.6-0.1-2.3c0.1-0.7,0.2-1.4,0.5-2c0.3-0.6,0.7-1,1.2-1.4c0.5-0.3,1.3-0.5,2.2-0.5c1.2,0,2,0.3,2.7,1
		c0.7,0.7,1.2,1.9,1.6,3.2l0.1,0.3h0.8v-5h-0.8l-0.1,0.1c-0.1,0.2-0.1,0.2-0.1,0.2c0,0-0.3,0.1-0.8-0.1c-0.3-0.1-0.6-0.2-0.9-0.3
		c-0.3-0.1-0.7-0.2-1.1-0.3C163,5.3,161.5,5.4,160,6c-1,0.4-1.9,1-2.7,1.7c-0.8,0.7-1.5,1.6-2,2.6c-0.5,1-0.8,2.2-0.8,3.5
		c0,1.2,0.2,2.3,0.7,3.3c0.5,1,1.1,1.9,1.8,2.6c0.8,0.7,1.7,1.3,2.7,1.7c1,0.4,2.1,0.6,3.2,0.6c0.7,0,1.3-0.1,1.8-0.2
		c0.5-0.1,0.9-0.3,1.3-0.5l1-0.4c0.3-0.1,0.5-0.2,0.8-0.2c0.1,0,0.2,0,0.3,0.1c0,0,0.1-0.1,0.1,0l0,0.2h0.9v-5h1V14.9z"/>
	<path class="st0" d="M179.1,4.9h-1l-6.4,16h-1.5v1h4v-1h-1.5l2.1-5h4.7l2.2,5h-1.6v1h8v-1h-2.4L179.1,4.9z M175.2,14.9l1.9-4.7
		l2,4.7H175.2z"/>
	<path class="st0" d="M208.5,18.3l-0.1-0.3h-1l0.2,0.6c0,0.1,0,0.2,0,0.2c0,0,0,0.1,0,0.2c0,0.1,0,0.2,0,0.3c0,0.1-0.1,0.3-0.1,0.5
		c-0.1,0.2-0.2,0.3-0.3,0.4c0,0-0.1,0.1-0.3,0.1c-0.2,0-0.3-0.1-0.4-0.1c-0.2-0.2-0.2-0.3-0.3-0.3l-0.9-1.6c0.2-0.3,0.3-0.6,0.5-1
		c0.1-0.4,0.3-0.9,0.3-1.3c0.1-0.4,0.1-0.9,0.2-1.3c0-0.4,0.1-0.7,0.1-1c0-0.6,0.1-1.1,0.1-1.4c0.1-0.3,0.1-0.5,0.2-0.6
		c0.1-0.1,0.2-0.2,0.4-0.2c0.2-0.1,0.4-0.1,0.7-0.2l0.2,0V9.9h-5v1h0.4c0.3,0,0.6,0.1,0.9,0.2c0.2,0.1,0.4,0.2,0.5,0.4
		c0.1,0.2,0.3,0.4,0.3,0.7c0.1,0.3,0.1,0.8,0.1,1.4c0,1-0.1,1.9-0.3,2.6c-0.1,0.4-0.2,0.6-0.3,0.9l-3.2-6.2c0.7-0.5,1.1-1,1.4-1.5
		c0.3-0.5,0.4-1,0.4-1.5c0-0.4-0.1-0.8-0.2-1.1c-0.1-0.3-0.3-0.6-0.5-0.8c-0.2-0.2-0.5-0.4-0.8-0.4c-0.7-0.2-1.5-0.2-2.2,0.2
		c-0.4,0.2-0.8,0.5-1.1,0.8c-0.3,0.3-0.6,0.7-0.8,1.2c-0.2,0.4-0.3,0.9-0.3,1.4c0,0.4,0.1,0.8,0.2,1.2c0.1,0.3,0.2,0.7,0.4,1.2
		c-0.4,0.2-0.8,0.5-1.2,0.8c-0.5,0.3-1,0.7-1.4,1.2c-0.4,0.4-0.8,0.9-1.1,1.5c-0.3,0.6-0.4,1.2-0.4,1.9c0,0.4,0.1,0.9,0.2,1.4
		c0.1,0.6,0.4,1.1,0.8,1.7c0.4,0.5,1,1,1.7,1.4c0.7,0.4,1.7,0.6,2.8,0.6c0.5,0,0.9,0,1.3-0.1c0.4-0.1,0.7-0.2,1-0.3
		c0.3-0.1,0.5-0.3,0.8-0.4c0.1-0.1,0.3-0.2,0.4-0.3c0.2,0.3,0.5,0.5,0.8,0.7c0.4,0.3,1,0.4,1.7,0.4c0.8,0,1.4-0.2,1.8-0.5
		c0.4-0.3,0.7-0.6,0.9-1c0.2-0.4,0.3-0.7,0.3-1.1c0-0.3,0-0.5,0-0.6c0-0.1,0-0.3,0-0.3C208.5,18.5,208.5,18.3,208.5,18.3
		 M199.2,19.6c-0.3-0.4-0.5-0.8-0.8-1.2c-0.2-0.5-0.5-0.9-0.6-1.4c-0.2-0.5-0.3-0.9-0.4-1.3c-0.1-0.4-0.1-0.7-0.1-0.9
		c0-0.3,0-0.6,0.1-0.8c0.1-0.2,0.2-0.4,0.3-0.6c0.1-0.2,0.3-0.4,0.5-0.5c0.1-0.1,0.3-0.2,0.4-0.4c0,0,0,0,0,0
		c0.1,0.2,0.2,0.4,0.3,0.6l3.2,6.2c0.1,0.2,0.2,0.3,0.2,0.5c0,0.1,0.1,0.2,0.2,0.3c-0.3,0.2-0.5,0.4-0.7,0.5
		c-0.5,0.3-1.1,0.4-1.7-0.1C199.8,20.2,199.5,19.9,199.2,19.6 M201.4,6.4c0.2,0,0.3,0,0.5,0.1c0.1,0.1,0.2,0.2,0.3,0.3
		c0.1,0.2,0.2,0.3,0.2,0.5c0.1,0.2,0.1,0.4,0.1,0.6c0,0.3-0.1,0.6-0.2,0.8c-0.1,0.2-0.2,0.5-0.4,0.6c-0.2,0.2-0.3,0.3-0.5,0.5
		l-0.2,0.2c-0.1-0.1-0.1-0.3-0.2-0.4c-0.1-0.3-0.2-0.5-0.4-0.8c-0.1-0.3-0.2-0.5-0.2-0.7c-0.1-0.2-0.1-0.4-0.1-0.6
		c0-0.3,0-0.5,0.1-0.7c0.1-0.2,0.2-0.3,0.3-0.3c0.1-0.1,0.2-0.1,0.3-0.1C201.3,6.4,201.4,6.4,201.4,6.4"/>
	<path class="st0" d="M216.2,9.9h1.1l0.1,0c0.2-0.7,0.4-1.2,0.7-1.6c0.2-0.4,0.5-0.7,0.8-1c0.3-0.2,0.6-0.3,1-0.4
		c0.4-0.1,0.8,0,1.3,0h0v14h-2v1h8v-1h-2v-14h0.6c0.5,0,0.9-0.1,1.3,0c0.4,0.1,0.7,0.2,1,0.4c0.3,0.2,0.6,0.5,0.8,1
		c0.2,0.5,0.5,0.8,0.7,1.5l0.1,0h0.5v-4h-14V9.9z"/>
	<path class="st0" d="M245.7,7.6c-0.8-0.7-1.7-1.3-2.7-1.7c-1.9-0.7-3.9-0.8-6,0c-1,0.4-1.9,1-2.7,1.7c-0.8,0.7-1.5,1.6-2,2.6
		c-0.5,1-0.8,2.2-0.8,3.5c0,1.2,0.2,2.3,0.7,3.3c0.5,1,1.1,1.9,1.8,2.6c0.8,0.7,1.7,1.3,2.7,1.7c1,0.4,2.1,0.6,3.2,0.6
		c1.1,0,2.2-0.2,3.2-0.7c1-0.4,1.9-1,2.7-1.8c0.8-0.8,1.4-1.6,1.8-2.6c0.5-1,0.7-2.1,0.7-3.2c0-1.3-0.2-2.4-0.7-3.5
		C247.2,9.2,246.5,8.3,245.7,7.6 M240,21c-0.8,0-1.4-0.1-1.9-0.3c-0.5-0.2-0.9-0.6-1.3-1.1c-0.3-0.5-0.6-1.3-0.8-2.2
		c-0.2-1-0.3-2.2-0.3-3.6c0-1.1,0-2.1,0.1-3.1c0.1-0.9,0.3-1.7,0.6-2.3c0.3-0.6,0.7-1.1,1.2-1.5c0.5-0.3,1.3-0.5,2.2-0.5
		c1,0,1.8,0.2,2.3,0.6c0.6,0.4,1,0.9,1.2,1.5c0.3,0.7,0.5,1.4,0.5,2.3c0.1,0.9,0.1,1.9,0.1,2.8c0,1.1,0,2.1-0.1,3.1
		c-0.1,0.9-0.3,1.7-0.5,2.4c-0.3,0.6-0.7,1.1-1.2,1.5C241.8,20.8,241,21,240,21"/>
	<path class="st0" d="M264.5,20.2c-0.1,0.1-0.3,0.3-0.5,0.4c-0.1,0.1-0.3,0.2-0.5,0.2c-0.2,0-0.3,0-0.4-0.1c0,0-0.1-0.1-0.2-0.4
		c-0.1-0.3-0.1-0.7-0.2-1.2l-0.2-2.2c-0.1-0.8-0.2-1.5-0.5-2c-0.3-0.5-0.6-0.9-1.1-1.2c-0.4-0.3-0.9-0.5-1.5-0.6
		c-0.1,0-0.3-0.1-0.4-0.1c0,0,0,0,0.1,0c0.5-0.1,1-0.4,1.5-0.6c0.4-0.3,0.8-0.7,1.1-1.1c0.3-0.5,0.4-1,0.4-1.6c0-0.8-0.2-1.4-0.6-2
		c-0.4-0.5-0.8-0.9-1.4-1.2c-0.5-0.3-1.2-0.5-1.8-0.6c-1.3-0.2-2.5-0.1-3.6,0c-0.6,0-1.2,0.1-1.8,0.1h-3.7v1h2v14h-2v1h8v-1h-2v-7h1
		c0.6,0,1.1,0,1.4,0.2c0.3,0.2,0.6,0.4,0.7,0.8c0.2,0.4,0.3,0.8,0.3,1.3c0,0.5,0.1,1.1,0.1,1.7c0,0.4,0,0.8,0.1,1.2
		c0.1,0.5,0.2,0.9,0.4,1.3c0.2,0.4,0.6,0.8,1.1,1.1c0.5,0.3,1.2,0.4,2,0.4c0.4,0,0.7,0,1-0.1c0.3-0.1,0.5-0.1,0.7-0.2
		c0.2-0.1,0.4-0.2,0.5-0.4c0.1-0.1,0.3-0.3,0.4-0.4l0.2-0.2l-0.7-0.6L264.5,20.2z M255.2,12.9V6.7l0.1,0c0.6-0.1,1.2,0,1.6,0.2
		c0.3,0.1,0.5,0.3,0.7,0.5c0.2,0.3,0.3,0.6,0.4,1c0.1,0.4,0.1,1,0.1,1.6c0,0.4,0,0.7-0.1,1.1c0,0.3-0.1,0.6-0.3,0.9
		c-0.2,0.2-0.4,0.6-0.7,0.7c-0.3,0.1-0.8,0.4-1.4,0.4H255.2z"/>
	<path class="st0" d="M281,10.2c-0.5-1-1.1-1.9-1.9-2.6c-0.8-0.7-1.7-1.3-2.7-1.7c-1.9-0.7-3.9-0.8-6,0c-1,0.4-1.9,1-2.7,1.7
		c-0.8,0.7-1.5,1.6-2,2.6c-0.5,1-0.8,2.2-0.8,3.5c0,1.2,0.2,2.3,0.7,3.3c0.5,1,1.1,1.9,1.8,2.6c0.8,0.7,1.7,1.3,2.7,1.7
		c1,0.4,2.1,0.6,3.2,0.6c1.1,0,2.2-0.2,3.2-0.7c1-0.4,1.9-1,2.7-1.8c0.8-0.8,1.4-1.6,1.8-2.6c0.5-1,0.7-2.1,0.7-3.2
		C281.7,12.4,281.5,11.3,281,10.2 M269.2,13.8c0-1.1,0-2.1,0.1-3.1c0.1-0.9,0.3-1.7,0.6-2.3c0.3-0.6,0.7-1.1,1.2-1.5
		c0.5-0.3,1.3-0.5,2.2-0.5c1,0,1.8,0.2,2.3,0.6c0.6,0.4,1,0.9,1.2,1.5c0.3,0.7,0.5,1.4,0.5,2.3c0.1,0.9,0.1,1.9,0.1,2.8
		c0,1.1,0,2.1-0.1,3.1c-0.1,0.9-0.3,1.7-0.5,2.4c-0.3,0.6-0.7,1.1-1.2,1.5c-0.5,0.4-1.3,0.5-2.3,0.5c-0.8,0-1.4-0.1-1.9-0.3
		c-0.5-0.2-0.9-0.6-1.3-1.1c-0.3-0.5-0.6-1.3-0.8-2.2C269.3,16.4,269.2,15.2,269.2,13.8"/>
	<rect x="45.5" y="5.1" class="st0" width="0.7" height="16.9"/>
	<path class="st0" d="M33.8,24.7L26.1,6.1h2.7c0.4,0,0.8,0.1,1.1,0.2c0.4,0.1,0.8,0.3,1.2,0.6C31.4,7.1,31.7,7.5,32,8
		c0.3,0.5,0.5,1.1,0.7,1.8h0.2V6.1h0l0,0l0-0.8H17.6l-1.9-4.4h2V0H6l0.4,0.8h1.2c1.4,0,2.7,0.9,3.2,2.3l9.8,23.1h-4l0,0h-0.9v0.2
		c0,0.4,0.3,0.7,0.7,0.7l0,0h0H17h9.1h3.5h2.7C33.4,27.1,34.3,25.8,33.8,24.7 M29.7,26.2H29c-1.3,0-2.5-0.8-3-2
		c0-0.1-1.5-3.5-1.5-3.5L18,6.1h0.9c1.4,0,2.7,0.9,3.2,2.3l4.4,10.6l3.3,7.3H29.7z"/>
	<path class="st0" d="M13,16.3H8.3l2.3-5.6L9.9,9.1L3.6,24.5l0,0C3.3,25.2,2.7,25.7,2,26c-0.3,0.1-0.7,0.2-1,0.2H0.4H0v0.2
		c0,0.3,0.2,0.6,0.4,0.7v0h0c0.1,0,0.2,0.1,0.3,0.1h5.8v-0.3c0-0.3-0.2-0.6-0.5-0.6c0,0-0.1,0-0.1,0c-0.2,0-0.4,0-0.6-0.1
		C5.2,26,5,25.9,4.9,25.7c-0.2-0.3-0.3-0.7-0.1-1.1l2.5-6.1c0.3-0.7,1-1.2,1.8-1.2h4.2L13,16.3z"/>
</g>
</svg>
