<?xml version="1.0" encoding="utf-8"?>
<!-- Generator: Adobe Illustrator 22.1.0, SVG Export Plug-In . SVG Version: 6.00 Build 0)  -->
<svg version="1.1" id="Capa_1" xmlns="http://www.w3.org/2000/svg" xmlns:xlink="http://www.w3.org/1999/xlink" x="0px" y="0px"
	 viewBox="0 0 211.4 211.4" style="enable-background:new 0 0 211.4 211.4;" xml:space="preserve">
<style type="text/css">
	.st0{fill:#FCFCFC;}
</style>
<path class="st0" d="M26.1,211.4c-14.5,0-24.5-10.8-25.8-21.2c0-0.2-0.1-0.4-0.3-0.5c0,0,0,0,0-0.1V184c1.2-5,2.9-8.8,5.4-11.9
	c4.9-6.1,12.3-9.6,20.3-9.6c10.3,0,19.3,5.6,23.6,14.6c0.7,1.4,1.6,1.7,3,2c0.8,0.2,1.5,0.3,2.3,0.3c2.9,0,5.1-1.6,7.3-3.5
	c4.1-3.5,9-5.2,14.3-5.2c2.1,0,4.2,0.3,6.5,0.8l0.2,0.1c0.5,0.1,1,0.3,1.6,0.4l0,0l0.1,0c0.1,0,0.2,0,0.3-0.1c0.1,0,0.1,0,0.2-0.1
	l0.3-0.1v-0.3c0-2.2,0-4.4,0.1-6.6c0.1-5.4,0.2-10.9-0.3-16.3c-0.2-2.3-1.4-4.4-2.7-6.7c-0.6-1-1.2-2.1-1.7-3.2l-0.2-0.5l-12,17.9
	c-0.3,0.5-0.6,1-1,1.4c-0.9,1.2-1.9,1.8-3.1,1.8c-0.2,0-0.4,0-0.7-0.1c-1.7-0.3-2.8-1.4-3.2-3.2c-0.6-2.6-1.2-5.1-1.8-7.7
	c-0.4-1.7-0.8-3.5-1.2-5.2c-0.4-1.8-0.8-3.5-1.2-5.3c-0.8-3.4-1.6-6.9-2.4-10.4c-2.8-13.6,3.6-26.5,15.8-31.4c1.8-0.7,2-1.7,1.7-3.3
	c-1.4-8.5-2.9-19.8-2-31.4c0.6-8.3,2.8-16.5,6.6-25.1C81.8,23,90.7,11.4,102.4,1.6c0.5-0.4,1-0.8,1.5-1.2c0.2-0.2,0.4-0.3,0.7-0.5
	h2.3c15.9,12.3,26.5,27.7,31.6,45.6c3.1,11.1,4.2,22.7,3.1,34.5c-0.4,3.9-0.9,7.8-1.5,11.6l-0.2,1.5c-0.2,1.3,0.2,2,1.5,2.5
	c12.5,5,19.2,18.6,15.9,32.4c-2,8.3-3.9,16.7-5.7,24.9l-0.5,2.3c-0.5,2.3-1.5,3.4-3.3,3.8c-0.2,0-0.5,0.1-0.7,0.1
	c-1.4,0-2.5-0.8-3.6-2.4c-2.9-4.3-5.8-8.7-8.7-13.1l-3.7-5.5l-0.2,0.5c-0.5,1.2-1.1,2.3-1.6,3.4c-1.8,3.6-3.5,6.9-3.2,11.3
	c0.3,4.2,0.3,8.5,0.2,12.6c0,1.9-0.1,3.7-0.1,5.6v0.4l0.4-0.1c0.6-0.1,1.2-0.2,1.8-0.3c1.2-0.2,2.4-0.5,3.6-0.6
	c1.1-0.1,2.2-0.2,3.3-0.2c6.6,0,12.5,2.6,17.4,7.7c0.7,0.7,1.3,1.1,2.2,1.1c0.2,0,0.5,0,0.8-0.1c0.7-0.2,1.5-0.2,2.2-0.2
	c1.2,0,2.5-0.1,3.5-0.7c0.9-0.6,1.5-1.8,2-2.9c0.3-0.7,0.7-1.4,1.1-2c5.4-7.4,12.5-11.1,21-11.1c0.9,0,1.9,0,2.9,0.1
	c10.4,1,18,6.7,21.8,16.4c2.2,5.6,2,11.8-0.6,17.5c-2.8,6.1-8.1,10.9-14.6,13.2c-3.1,1.1-6.3,1.7-9.4,1.7
	c-36.6,0.1-73.9,0.1-109.9,0.1C59,211.4,42.6,211.4,26.1,211.4L26.1,211.4z M25.7,170c-4,0-7.7,1.2-10.8,3.6
	c-7.8,5.9-9.5,14.5-4.3,22.1c3.7,5.3,9,8,15.8,8c27,0,54.1,0,81.1,0l77.3,0c3.6,0,7-0.9,10.1-2.6c5.8-3.2,9.5-10.1,8.7-15.9
	c-1.2-8.6-9-15.3-17.7-15.3c-0.8,0-1.6,0.1-2.4,0.2c-6.8,1-11.7,4.5-14.6,10.4l-0.1,0.2l0.2,0.2c0.6,0.4,1.1,0.9,1.6,1.3
	c1.2,0.9,2.3,1.7,3.3,2.7c1.5,1.4,1.5,3.6,0.2,5.2c-0.7,0.8-1.7,1.2-2.7,1.2c-0.8,0-1.6-0.3-2.3-0.7c-0.4-0.3-0.8-0.6-1.2-0.9
	c-0.3-0.2-0.6-0.5-1-0.7c-2.4-1.7-4.7-2.5-6.9-2.5c-0.9,0-1.8,0.1-2.7,0.4c-2.1,0.7-4,1.8-5.8,2.9c-0.4,0.3-0.9,0.5-1.3,0.8
	c-0.8,0.5-1.6,0.7-2.4,0.7c-1,0-1.9-0.4-2.6-1.2c-1.3-1.4-1.3-3.5,0-5.1c0.3-0.3,0.6-0.7,0.9-1c0.2-0.2,0.3-0.3,0.5-0.5l0.2-0.2
	l-0.2-0.2c-3.2-3.1-7.4-4.9-11.8-4.9c-2.2,0-4.3,0.4-6.4,1.3c-1.4,0.6-2.3,1.3-2.2,3.2c0.1,2.4,0.1,5.1,0,8.2
	c-0.1,2.2-1.7,3.8-3.8,3.8c-2,0-3.6-1.6-3.8-3.8c0-0.4,0-0.9,0-1.3l0-0.5l0-38.1H92.9v12.5c0,8.8,0,17.5,0,26.3c0,3-1.4,4.8-3.7,4.9
	h0c-2.5,0-3.9-1.9-3.9-5c0-0.8,0-1.6,0-2.5c0-1.7,0-3.5-0.1-5.2c0-0.7-0.4-1.7-1-2.1c-2-1.2-4.5-1.8-7.2-1.8c-4.7,0-9.3,1.9-12,4.9
	l-0.2,0.2l0.2,0.2c0.2,0.2,0.3,0.4,0.5,0.6c0.4,0.4,0.8,0.8,1.1,1.3c1,1.5,0.9,3.4-0.4,4.7c-0.7,0.7-1.7,1.1-2.6,1.1
	c-0.7,0-1.3-0.2-1.9-0.5c-0.5-0.3-0.9-0.6-1.4-1c-0.2-0.1-0.4-0.3-0.6-0.4c-2.5-1.9-5-2.8-7.7-2.8c-1.2,0-2.4,0.2-3.5,0.6
	c-1.7,0.5-3.2,1.6-4.7,2.5c-0.4,0.3-0.8,0.5-1.2,0.8c-0.9,0.6-1.8,0.9-2.7,0.9c-1.1,0-2-0.4-2.7-1.3c-1.4-1.6-1.2-3.9,0.6-5.4
	c1-0.9,2.1-1.7,3.1-2.5c0.5-0.4,1-0.7,1.4-1.1l0.2-0.2l-0.1-0.2C39.7,174.2,33.1,170,25.7,170 M72.2,103.2c-0.3,0.1-0.5,0.1-0.6,0.2
	c-6.4,3.2-10,8.7-10.4,15.9c-0.2,3.1,0.5,6.3,1.1,9.4c0.1,0.5,0.2,1.1,0.3,1.6c0.6,3.3,1.4,6.5,2.2,10c0.4,1.5,0.7,3,1.1,4.6
	l0.2,0.7l1-1.4c0.3-0.5,0.6-0.8,0.8-1.2c0.8-1.1,1.5-2.3,2.3-3.5c1.7-2.6,3.5-5.3,5.3-7.9c1-1.5,1.4-2.9,1-4.9
	c-0.5-3-0.9-6.1-1.4-9.1c-0.2-1.5-0.4-2.9-0.6-4.4c-0.3-2.3-0.7-4.6-1-6.9l-0.5-3.2l-0.2,0c-0.1,0-0.2,0-0.2,0c-0.1,0-0.1,0-0.2,0
	L72.2,103.2L72.2,103.2z M138.7,103.3c-0.1,0.1-0.1,0.2-0.1,0.3c-0.1,0.2-0.2,0.3-0.2,0.5l-0.5,3.4c-1,6.9-2.1,14.1-3.1,21.1
	c-0.1,1,0.5,2.1,0.7,2.5c2.5,3.8,5.1,7.7,7.6,11.4l0.8,1.2c0.2,0.3,0.4,0.5,0.7,0.8c0.1,0.1,0.3,0.3,0.4,0.5l0.4,0.5
	c0,0,1-4.3,1.4-6.1c1-4.3,1.9-8.3,2.9-12.4c1-4,0.9-7.9-0.2-11.6c-1.7-5.8-5.2-9.9-10.5-12.1l-0.3-0.1L138.7,103.3z M81.7,42.4
	c-4.6,11.2-6,23.7-4.2,38.2c1.1,8.6,2.4,17.4,3.7,25.9c0.5,3.5,1.1,7,1.6,10.6c0.5,3.1,1.4,9.4,1.4,9.4l3.1,8.3
	c0,0.1,2.5,5.2,3.8,7.5c0.3,0.6,1.3,0.9,1.9,0.9c3.9,0,7.8,0,11.6,0c4.5,0,9.1,0,13.6,0h0c1.4,0,2-0.6,2.4-1.6
	c0.7-1.4,1.4-2.9,2.1-4.3c0.9-1.8,1.8-3.7,2.7-5.5c0.6-1.3,1.3-2.9,1.5-4.5c0.7-4.8,1.4-9.5,2.1-14.3c0.9-5.9,1.7-12,2.7-18
	c1.7-10.9,3.4-23.6,1.4-36.3c-1.1-6.8-2.4-12.3-4.3-17.2l-0.1-0.4l-0.3,0.2c-7.6,5.2-15.3,7.8-22.9,7.8c-7.6,0-15.4-2.7-23.1-7.9
	l-0.3-0.2L81.7,42.4z M105.6,9C99,14.2,88.4,27.4,86.1,33.4L86,33.6l0.2,0.2c5.2,4.9,12.1,7.6,19.5,7.6c7.7,0,15-2.9,19.6-7.9
	l0.2-0.2l-0.1-0.2c-5-9.2-11.7-17.5-19.3-24.1l-0.2-0.2L105.6,9z"/>
</svg>
