<?xml version="1.0" encoding="utf-8"?>
<!-- Generator: Adobe Illustrator 22.1.0, SVG Export Plug-In . SVG Version: 6.00 Build 0)  -->
<svg version="1.1" id="Capa_1" xmlns="http://www.w3.org/2000/svg" xmlns:xlink="http://www.w3.org/1999/xlink" x="0px" y="0px"
	 viewBox="0 0 211.9 212" style="enable-background:new 0 0 211.9 212;" xml:space="preserve">
<style type="text/css">
	.st0{fill:#FCFCFC;}
</style>
<g>
	<path class="st0" d="M0,205c70.2,0,140.3,0,210.5,0c0.4,0,0.8,0,1.4,0.1v7H0V205z"/>
	<path class="st0" d="M188.4,0c0.9,1.2,2.1,2.2,2.8,3.5c4.3,8.4,8.5,16.9,12.7,25.3c0.1,0.1,0.1,0.2,0.2,0.4
		c1.3,2.7,0.9,4.7-1.1,5.7c-2,1-3.9,0.2-5.2-2.5c-2.9-5.8-5.9-11.7-8.8-17.6c-0.3-0.6-0.6-1.2-1.1-2.1c-1.5,4.4-3,8.5-4.4,12.5
		c-9,26.8-22.9,50.7-42.1,71.5c-26.6,28.7-58.9,47.7-96.9,57.3c-9.8,2.5-19.7,4.1-30,5c-0.2-2.3-0.4-4.5-0.6-6.9
		c49.4-5.1,91.1-25.7,124.4-62.5c20.6-22.7,33.9-49.4,42.4-78.8c-6.1,3-12,6-18,9c-0.9,0.4-1.7,0.9-2.6,1.2
		c-1.7,0.6-3.5-0.2-4.2-1.7c-0.7-1.5-0.3-3.4,1.2-4.4c0.6-0.4,1.3-0.8,2-1.1c9.1-4.6,18.2-9.1,27.3-13.7H188.4z"/>
	<path class="st0" d="M201.4,132.5c0,19.9,0,39.9,0,59.8c0,4.6-0.9,5.6-5.6,5.6c-7.1,0-14.2,0-21.3,0c-3.7,0-4.9-1.2-4.9-4.8
		c0-40.4,0-80.9,0-121.3c0-3.5,1.2-4.7,4.7-4.7c7.2,0,14.3,0,21.5,0c4.5,0,5.5,1,5.5,5.4C201.4,92.5,201.4,112.5,201.4,132.5
		 M194.3,74.3h-17.4v116.4h17.4V74.3z"/>
	<path class="st0" d="M130.8,157.4c0-11.9,0-23.9,0-35.8c0-3.9,1-4.9,4.9-4.9c7.4,0,14.8,0,22.1,0c3.6,0,4.7,1.1,4.7,4.7
		c0,23.9,0,47.9,0,71.8c0,3.5-1.2,4.8-4.7,4.8c-7.4,0-14.9,0-22.3,0c-3.5,0-4.7-1.2-4.7-4.7C130.8,181.2,130.8,169.3,130.8,157.4
		 M137.9,190.7h17.3v-66.8h-17.3V190.7z"/>
	<path class="st0" d="M91.9,169.6c0-7.9,0-15.7,0-23.6c0-3.4,1.2-4.6,4.6-4.6c7.5,0,15,0,22.6,0c3.3,0,4.6,1.3,4.6,4.7
		c0,15.7,0,31.5,0,47.2c0,3.5-1.3,4.7-4.8,4.7c-7.4,0-14.9,0-22.3,0c-3.5,0-4.7-1.2-4.7-4.8C91.9,185.3,91.9,177.4,91.9,169.6
		 M116.5,190.8c0.1-0.4,0.2-0.7,0.2-0.9c0-13.3,0-26.6,0-39.9c0-1.4-0.6-1.6-1.8-1.5c-4.8,0-9.6,0-14.5,0c-0.5,0-0.9,0.1-1.3,0.2
		v42.1H116.5z"/>
	<path class="st0" d="M53,178.4c0-5,0-9.9,0-14.9c0-3.2,1.3-4.5,4.5-4.5c7.6,0,15.2,0,22.8,0c3.2,0,4.5,1.3,4.5,4.6
		c0,9.9,0,19.9,0,29.8c0,3.2-1.4,4.5-4.6,4.5c-7.6,0-15.2,0-22.8,0c-3.2,0-4.5-1.3-4.5-4.6C53,188.4,53,183.4,53,178.4 M77.7,166.2
		H60.2v24.5h17.5V166.2z"/>
	<path class="st0" d="M30,169.7c3.8,0,7.6,0,11.4,0c3.3,0,4.5,1.3,4.6,4.5c0,6.4,0,12.8,0,19.2c0,3.2-1.3,4.5-4.5,4.5
		c-7.6,0-15.2,0-22.8,0c-3.2,0-4.5-1.3-4.6-4.5c0-6.4,0-12.8,0-19.2c0-3.2,1.3-4.5,4.5-4.5C22.4,169.6,26.2,169.7,30,169.7
		 M38.8,176.8H21.3v13.9h17.5V176.8z"/>
</g>
</svg>
