<?xml version="1.0" encoding="utf-8"?>
<!-- Generator: Adobe Illustrator 22.1.0, SVG Export Plug-In . SVG Version: 6.00 Build 0)  -->
<svg version="1.1" id="Capa_1" xmlns="http://www.w3.org/2000/svg" xmlns:xlink="http://www.w3.org/1999/xlink" x="0px" y="0px"
	 viewBox="0 0 123 175" style="enable-background:new 0 0 123 175;" xml:space="preserve">
<style type="text/css">
	.st0{fill:#FFFFFF;}
	.st1{fill:none;stroke:#CC9C11;stroke-width:4;stroke-miterlimit:10;}
</style>
<path class="st0" d="M103.5,26.5c1.1,0.7,1.4,1.7,1.4,2.9c0,1.6,0,3.3,0,5.1c0.4,0,0.8,0,1.2,0c1.3,0,2.3,0.2,2.8,1.6
	c0.1,0.2,0.5,0.4,0.8,0.4c0.9,0.1,1.9,0,2.8,0c2.8,0,4.4,1.6,4.4,4.4c0,6.3,0,12.7,0,19v6.5h-4V40.6h-4v33.9h-4V38.6h-12v35.9h-4V73
	c0-11.8,0-23.5,0-35.3c0-2.7,0.4-3.2,3.2-3.2c0.2,0,0.5,0,0.8-0.1c0-1.8,0-3.5,0-5.3c0-1.2,0.4-2.1,1.5-2.6H103.5z M96.9,34.4h3.8
	v-3.8h-3.8V34.4z"/>
<path class="st0" d="M120.8,112.6c0,9,0,18,0,27.1c0,4.4-2.4,6.8-6.8,6.8c-12.8,0-25.6,0-38.4,0c-4.4,0-6.8-2.4-6.8-6.8
	c0-18.1,0-36.2,0-54.4c0-4.4,2.4-6.8,6.8-6.8c12.8,0,25.6,0,38.4,0c4.4,0,6.8,2.4,6.8,6.8C120.8,94.4,120.8,103.5,120.8,112.6
	 M72.9,102.4h44c0-5.7,0-11.3,0-17c0-2.3-0.6-2.9-2.9-2.9c-12.7,0-25.5,0-38.2,0c-2.3,0-2.9,0.6-2.9,2.9c0,5.3,0,10.5,0,15.8
	C72.8,101.6,72.9,102,72.9,102.4 M116.8,106.6H96.9v15.9h19.9V106.6z M96.9,142.5c0.4,0,0.7,0.1,1.1,0.1c5.4,0,10.8,0,16.2,0
	c2,0,2.7-0.7,2.7-2.7c0-4.1,0-8.2,0-12.3c0-0.3,0-0.6-0.1-0.9H96.9V142.5z M92.8,106.6H72.9v15.9h19.9V106.6z M92.8,142.5v-15.9
	H72.9c0,4.7,0,9.4,0,14.1c0,1.1,0.9,1.8,2.1,1.8C80.9,142.5,86.7,142.5,92.8,142.5"/>
<path class="st0" d="M59.3,72.6c7.4,7.6,8.1,21.6-2.3,29.9c1.8,0.4,1.9,1.7,1.9,3.1c0,2.7,0,5.3,0,8c0,2.4-0.6,3-2.9,3
	c-1,0-1.9,0-3,0v6c1.1,0,2.2,0,3.3,0c1.9,0,2.6,0.7,2.6,2.5c0,3,0,6,0,9c0,1.7-0.7,2.4-2.4,2.4c-1.1,0-2.3,0-3.5,0v3v3h11.9v4h-1.3
	c-19.1,0-38.3,0-57.4,0c-2.5,0-4.2-0.7-5.2-3.1V48.1c0.4-0.6,0.8-1.2,1.3-1.6C8.3,40.2,14.5,34,20.8,27.8c0.5-0.5,1.1-0.9,1.6-1.3
	h59.3c2.3,0.9,3.2,2.5,3.2,5c-0.1,13.9,0,27.7,0,41.6v1.3h-4V30.6h-56c0,0.5,0,0.9,0,1.3c0,4.6,0,9.2,0,13.8c0,3.3-1.4,4.8-4.8,4.8
	c-4.6,0-9.2,0-13.8,0H4.9v92h3.9c0-1.7,0-3.4,0-5.1c0-0.8,0-1.6,0-2.3c0-1.7,0.8-2.5,2.5-2.5c1.1,0,2.1,0,3.2,0
	c0.1,0,0.1-0.1,0.3-0.1c0-0.3,0.1-0.6,0.1-0.9c0-1.6,0-3.2,0-4.9c-1.2,0-2.4,0-3.5,0c-1.8,0-2.5-0.8-2.6-2.6c0-3,0-5.9,0-8.9
	c0-1.8,0.7-2.5,2.5-2.5c1.1,0,2.3,0,3.5,0v-4v-2.3c0-3.3,0.3-3.6,3.6-3.6h12.2h2.2c-6-5-8.6-11.1-7.8-18.6c0.6-5.2,3.1-9.5,7.1-12.9
	C40.1,64.4,52.1,65.2,59.3,72.6 M44.9,70.5c-8.8,0-16,7.1-16,16c0,8.8,7.1,15.9,15.9,16c8.8,0.1,16-7.1,16.1-15.9
	C60.9,77.7,53.7,70.5,44.9,70.5 M12.9,142.4h35.9v-5.8H12.9V142.4z M12.9,122.4h35.9v-5.8H12.9V122.4z M54.8,106.6H19v5.9h35.8
	V106.6z M54.8,126.6H18.9v5.8h35.9V126.6z M20.8,34c-4.1,4.1-8.4,8.4-12.4,12.4h12.4V34z"/>
<g>
	<rect x="8.9" y="54.6" class="st0" width="67.9" height="3.8"/>
	<rect x="30.9" y="42.6" class="st0" width="33.9" height="3.8"/>
	<rect x="8.9" y="62.6" class="st0" width="23.9" height="3.8"/>
	<rect x="58.9" y="62.6" class="st0" width="17.9" height="3.9"/>
</g>
<path class="st0" d="M38.9,92.5c1.8,0,3.6,0.1,5.4,0c0.7,0,1.6-0.3,2.1-0.8c1-1,0.4-2.7-1-3c-0.7-0.2-1.4-0.2-2.1-0.3
	c-2.5-0.7-4-2.4-4.4-5c-0.3-2.4,0.6-4.5,2.6-5.7c1-0.6,1.4-1.3,1.3-2.4c0-0.2,0-0.4,0-0.6h3.9c0,0.6,0.1,1.1,0.1,1.8h3.9v4.1
	c-1.3,0-2.5,0-3.8,0c-0.8,0-1.6,0-2.3,0.1c-1.1,0.1-1.7,0.9-1.7,1.9c0,1,0.5,1.8,1.6,2c0.3,0.1,0.7,0.1,1,0.2c2.4,0.3,4.4,1.9,5,4.3
	c0.6,2.4-0.1,4.8-2,6.3c-0.5,0.4-1.3,0.7-1.6,1.2c-0.3,0.5-0.1,1.3-0.1,2h-4c0-0.6-0.1-1.2-0.1-1.9h-3.8V92.5z"/>
<path class="st0" d="M94.8,98.5c-5.1,0-10.1,0-15.2,0c-2.1,0-2.8-0.6-2.8-2.8c0-2.2,0-4.4,0-6.6c0-1.9,0.7-2.6,2.6-2.6
	c10.3,0,20.5,0,30.8,0c1.8,0,2.6,0.7,2.6,2.5c0,2.3,0,4.7,0,7c0,1.7-0.8,2.4-2.5,2.4C105.2,98.5,100,98.5,94.8,98.5 M108.8,90.6
	H80.9v3.8h27.9V90.6z"/>
<rect x="104.9" y="129.6" class="st0" width="3.9" height="1.9"/>
<rect x="104.9" y="137.6" class="st0" width="3.9" height="1.8"/>
<rect x="100.9" y="112.6" class="st0" width="11.9" height="3.8"/>
<rect x="100.9" y="132.6" class="st0" width="11.9" height="3.8"/>
<polygon class="st0" points="76.9,116.5 76.9,112.5 80.8,112.5 80.8,108.6 84.8,108.6 84.8,112.5 88.8,112.5 88.8,116.5 84.9,116.5 
	84.9,120.4 80.9,120.4 80.9,116.5 "/>
<path class="st0" d="M80.4,134.9c-1.3-1.1-2.2-1.9-3.1-2.7c1.1-1,2-1.9,3-3c0.7,0.8,1.5,1.8,2.5,3c1-1.3,1.9-2.3,2.6-3.2
	c1.1,1.1,2,2.1,3,3.1c-0.8,0.7-1.8,1.5-3,2.5c1.2,1,2.2,1.8,3.2,2.7c-1.1,1.1-2,2-3,3c-0.9-0.9-1.7-1.9-2.8-3
	c-1,1.1-1.8,2.1-2.6,3.1c-1-1.1-1.9-1.9-2.9-3C78.2,136.7,79.1,135.9,80.4,134.9"/>
<line class="st1" x1="123" y1="2" x2="0" y2="2"/>
<line class="st1" x1="123" y1="173" x2="0" y2="173"/>
</svg>
