<?xml version="1.0" encoding="utf-8"?>
<!-- Generator: Adobe Illustrator 22.1.0, SVG Export Plug-In . SVG Version: 6.00 Build 0)  -->
<svg version="1.1" id="Capa_1" xmlns="http://www.w3.org/2000/svg" xmlns:xlink="http://www.w3.org/1999/xlink" x="0px" y="0px"
	 viewBox="0 0 123 175" style="enable-background:new 0 0 123 175;" xml:space="preserve">
<style type="text/css">
	.st0{fill:none;stroke:#CC9C11;stroke-width:4;stroke-miterlimit:10;}
	.st1{fill:#FFFFFF;}
</style>
<line class="st0" x1="123" y1="2" x2="0" y2="2"/>
<g>
	<path class="st1" d="M99.5,24.9c2.2,0.5,4.3,1.3,5.9,3c1.9,2,2.9,4.4,2.9,7.2c0,11.7,0,23.5,0,35.2c0,1.8-0.9,2.8-2.4,2.8
		c-1.5,0-2.4-1-2.4-2.8c0-8.8,0-17.6,0-26.3v-1.5H28.1V45c0,3.9,0,7.8,0,11.6c0,1.7-0.9,2.8-2.3,2.9c-1.4,0-2.4-1.1-2.4-2.9
		c0-4.7,0-9.3,0-14.1h-4.7v62.2c1.2-0.7,2.3-1.6,3.6-2c2.9-1.1,6-0.1,7.8,2.4c1.8,2.4,1.8,5.8-0.1,8.2c-2.6,3.2-5.3,6.2-7.9,9.3
		c-0.7,0.9-1.4,1.8-2.3,2.6c-1.1,1-1.3,2.3-1,3.7h47.4c-1.7-1.6-2.5-3.4-2.6-5.6h-1.4c-7.6,0-15.3,0-22.9,0c-2.6,0-3.3-0.7-3.3-3.3
		c0-3.3,0-6.6,0-9.8c0-2.2,0.8-3,3-3c8,0,16,0,24,0h1.5c-0.3-0.3-0.4-0.6-0.6-0.8c-0.5-0.5-1-1-1.5-1.5c-1.1-1.1-2.1-2.6-3.4-3.2
		c-1.3-0.6-3-0.3-4.5-0.4c-9.7-0.6-18.7-8.9-20.2-18.6c-1.7-10.6,3.4-20.4,13.1-24.9c2.8-1.3,5.8-1.9,9-2c1.8-0.1,2.7,1,2.7,3
		c0,5.3,0,10.7,0,16V76h1.5c5.2,0,10.4,0,15.7,0c2.6,0,3.4,0.9,3.3,3.5C79,85.1,77,89.9,73.2,94c-0.2,0.3-0.5,0.5-0.7,0.8
		c0,0.1-0.1,0.1-0.1,0.2c0.9,0.9,1.8,1.8,2.8,2.7c1-1.5,2.2-2.9,4.1-3.3c1.3-0.3,1.8-0.9,2.1-2.1c1-3.5,4.7-5.5,8.2-4.6
		c0.7,0.2,1,0,1.4-0.6c2.1-3.8,7-4.7,10.4-2c0.4,0.3,0.8,0.7,1.1,1c6,6,12,12,18,18c1.6,1.6,1.8,2.9,0.7,4c-1.1,1.2-2.5,1-4.1-0.7
		c-5.9-5.9-11.7-11.7-17.6-17.6c-0.3-0.3-0.5-0.5-0.8-0.8c-1.1-1-2.4-1-3.3-0.1c-0.9,0.9-0.8,2.2,0.2,3.3c0.6,0.7,1.3,1.3,2,2
		c1,1,2,1.9,2.9,2.9c1.1,1.2,1.1,2.5,0.1,3.5c-0.9,0.9-2.4,0.9-3.5-0.2c-2.4-2.3-4.7-4.7-7.1-7c-0.3-0.3-0.6-0.6-1-0.9
		c-0.9-0.6-2.1-0.5-2.8,0.2c-0.7,0.7-0.9,2-0.2,2.8c0.7,0.8,1.4,1.6,2.2,2.3c1.8,1.9,3.7,3.7,5.5,5.5c1.2,1.2,1.3,2.7,0.3,3.7
		c-1,1-2.4,0.9-3.7-0.3c-2.4-2.4-4.7-4.8-7.2-7.1c-0.6-0.5-1.4-1-2.1-1c-1.7,0-2.6,2-1.6,3.4c0.6,0.8,1.3,1.5,2,2.2
		c2,2,3.9,3.9,5.9,5.9c1,1,1.1,2,0.5,3c-0.6,1-1.5,1.4-2.5,1.1c-0.6-0.2-1.2-0.7-1.7-1.2c-6.6-6.6-13.3-13.2-19.9-19.9
		c-0.3-0.3-0.7-0.7-1.1-0.9c-0.9-0.6-2-0.4-2.7,0.3c-0.7,0.7-0.9,1.8-0.3,2.7c0.3,0.4,0.6,0.8,1,1.2c7.4,7.4,14.8,14.8,22.2,22.2
		c0.3,0.3,0.6,0.6,0.8,0.9c0.7,0.8,0.8,1.8,0.3,2.8c-0.5,1-1.4,1.4-2.5,1.1c-3-0.7-5.9-1.4-8.9-2.1c-0.7-0.2-1.4-0.3-2.1-0.4
		c-1.1-0.1-1.8,0.5-2.2,1.5c-0.4,1-0.1,1.9,0.7,2.6c0.1,0.1,0.3,0.3,0.5,0.4c10.7,6.4,21.7,12.1,33.7,15.4c1.1,0.3,2.2,0.6,3.3,0.9
		c1.5,0.5,2.3,1.7,1.9,3.1c-0.4,1.3-1.7,1.9-3.2,1.5c-1.6-0.5-3.2-0.9-4.9-0.1c-0.8,0.4-1.9,0.3-2.8,0.3c-24.4,0-48.7,0-73.1,0
		c-6.5,0-10.7-4.2-10.7-10.7c0-3.1,0-6.2,0-9.4c0-1.2,0.4-2.1,1.1-3c3.6-4.1,7.2-8.2,10.7-12.4c0.5-0.6,0.9-1.5,0.8-2.2
		c-0.2-1.7-2.1-2.2-3.6-1.1c-1.6,1.2-3.1,2.4-4.6,3.7c-0.9,0.7-1.9,1.3-3,0.7c-1.2-0.6-1.4-1.7-1.4-2.9c0-5.8,0-11.6,0-17.4v-1.5
		c-0.8,1-1.5,1.8-2.1,2.6c-1.8,2.5-3.7,5-5.3,7.7c-1.2,2-1.4,4.4-1.4,6.8c0,11.9,0,23.7,0,35.6c0,0.4,0,0.7,0,1.1
		c-0.1,1.2-0.6,2-1.8,2.4c-1.1,0.3-2-0.2-2.7-1.3c-0.1-0.2-0.2-0.3-0.3-0.5v-40.1c0.1-0.1,0.2-0.3,0.2-0.4c0.5-3.7,2-7,4.3-10
		c2.7-3.5,5.4-7,8.2-10.4c0.6-0.8,0.8-1.5,0.8-2.5c0-15.2,0-30.4,0-45.5c0-2.8,0.8-5.4,2.7-7.5c1.6-1.8,3.8-2.7,6.1-3.2H99.5z
		 M103.6,37.7c0-0.6,0-1.1,0-1.5c0.4-4.2-2.3-6.6-6.5-6.5c-24,0.1-48.1,0-72.1,0.1c-0.5,0-1,0-1.5,0c-1.7,0.1-3.1,0.9-4,2.4
		c-1.1,1.7-0.8,3.7-0.8,5.6H103.6z M18.6,133.6c0,0.7,0,1.2,0,1.8c0,4.3,2,6.3,6.3,6.3c21.5,0,42.9,0,64.4,0h1.2
		c-0.3-0.3-0.5-0.5-0.8-0.6c-4.8-2.3-9.7-4.7-14.5-7c-0.6-0.3-1.3-0.5-1.9-0.5c-17.7,0-35.5,0-53.2,0H18.6z M74.5,80.8h-1.5
		c-4,0-7.9,0-11.9,0c-6.9-0.1-4.6,0.9-9.5-4c-3.1-3.1-6.2-6.2-9.3-9.3c-4.3,4.6-5,13-1.8,19.2c3.2,6.2,9.9,9.7,14.4,9.5
		c0-0.1,0-0.2,0-0.2c-0.7-3.4,0.6-6.4,3.4-7.9c2.8-1.6,6-1,8.6,1.4c0.7,0.7,1.3,1.4,2,2.1C72,88.6,73.8,85.1,74.5,80.8 M74,116.7
		c0.1-0.1,0.2-0.2,0.2-0.3c-1.4-1.3-2.8-2.6-4.1-3.9c-0.6-0.6-1.1-0.8-2-0.8c-8.7,0-17.5,0-26.2,0h-1.2v6.6c0.2,0,0.3,0.1,0.5,0.1
		c7.9,0,15.7,0,23.6,0c0.5,0,1-0.3,1.4-0.5c1.7-1.4,3.7-1.9,5.9-1.5C72.7,116.4,73.3,116.6,74,116.7 M46,63.8
		c2.8,2.8,5.5,5.6,8.1,8.2V60.6C51.4,60.7,47.9,62.2,46,63.8"/>
	<path class="st1" d="M76.2,72.4c-3.2,0-6.4,0-9.6,0c-2.1,0-2.9-0.8-2.9-3c0-6.4,0-12.8,0-19.2c0-2.2,0.9-3.1,3.2-3
		c11.9,0.4,21.6,10.1,22,22c0.1,2.2-0.8,3.1-3,3.1C82.6,72.4,79.4,72.4,76.2,72.4 M68.5,52.2v15.3h15.3
		C83.7,60.5,75.6,52.4,68.5,52.2"/>
	<path class="st1" d="M25.8,68.1c-1.3,0-2.4-1-2.4-2.3c0-1.2,1.1-2.4,2.3-2.4c1.2,0,2.4,1.1,2.4,2.3C28.1,67,27,68.1,25.8,68.1"/>
	<path class="st1" d="M108.3,79.9c0,1.3-1.1,2.3-2.4,2.3c-1.3,0-2.3-1.1-2.3-2.4c0-1.3,1.1-2.3,2.4-2.3
		C107.3,77.6,108.3,78.6,108.3,79.9"/>
</g>
<line class="st0" x1="123" y1="173" x2="0" y2="173"/>
</svg>
