<?xml version="1.0" encoding="utf-8"?>
<!-- Generator: Adobe Illustrator 22.1.0, SVG Export Plug-In . SVG Version: 6.00 Build 0)  -->
<svg version="1.1" id="Capa_1" xmlns="http://www.w3.org/2000/svg" xmlns:xlink="http://www.w3.org/1999/xlink" x="0px" y="0px"
	 viewBox="0 0 140 250.3" style="enable-background:new 0 0 140 250.3;" xml:space="preserve">
<style type="text/css">
	.st0{fill:#FFFFFF;}
	.st1{fill:none;stroke:#CC9C11;stroke-width:4;stroke-miterlimit:10;}
</style>
<path class="st0" d="M115.4,163.9v15.1h-3.9c0-2.3,0-4.5,0-6.8c0-4.1,0-8.2,0-12.3c0-4.9-1.7-9.1-5.8-11.7
	c-6.7-4.1-13.6-7.8-20.7-11.8c-2.7,7.8-7.4,12.3-15.4,12.1c-7.5-0.2-11.9-4.6-14.3-11.7c-1,0.4-1.9,0.8-2.7,1.2
	c-5.4,2.8-10.8,5.5-16.1,8.5c-5.5,3.1-8.2,7.9-8,14.4c0.2,5.9,0,11.8,0,17.8h-3.9c0-3.3,0-6.6,0-9.9c0-0.8-0.1-1.6,0-2.4
	c0.4-2.5-0.8-3.3-3.2-3.4c-7-0.5-13.5-2.7-19.7-5.9c-0.6-0.3-1.2-0.9-1.3-1.5c-1.6-7.3,1.1-12.9,7.8-16.2c3.2-1.6,6.3-3.1,9.5-4.8
	c2.5-1.3,3.1-3.6,1.4-5.8c-4.1-5.7-4.3-12-2.8-18.5c1.3-5.4,7.3-9.5,12.8-9.1c6,0.4,11.3,4.9,12,10.7c0.8,6,0.6,11.9-3.3,17.1
	c-1.5,2-0.8,4.3,1.4,5.5c0.1,0,0.2,0.1,0.2,0.1c3.4,2.4,6.9,2.9,10.4,0.2c0.1-0.1,0.3-0.2,0.5-0.2c7.5-3.8,6.7-1.8,6.6-11
	c0-1.1-0.7-2.3-1.2-3.4c-1.5-3.3-3.2-6.6-4.7-10c-0.7-1.6-1.4-3.2-2-4.9c-0.2-0.6-0.6-1.2-0.6-1.8c0.1-5.3-0.3-10.8,0.6-16
	c1.8-10.8,11.8-17.7,23-16.6c10.9,1,19.1,9.8,19.3,20.6c0,3.1,0,6.2,0,9.3c0,2.2,0.1,4.4-1.8,6c-0.2,0.2-0.4,0.6-0.4,1
	c-0.6,5.1-3,9.3-5.7,13.6c-1.4,2.1-0.8,5.8-0.4,8.7c0.2,1.1,2.2,2.1,3.4,3c1,0.7,2.4,1,3.4,1.7c3.8,3,7.3,1.8,10.9-0.5
	c2-1.2,2.6-3.5,1.2-5.3c-4.3-5.4-4.1-11.7-3.2-18c0.9-6,7.3-10.5,13.2-9.9c6.6,0.7,11.7,5.6,12,12c0.3,5.7,0.2,11.2-3.7,16
	c-1.4,1.7-0.6,4.1,1.5,5.2c3.4,1.8,7,3.5,10.4,5.3c6.3,3.2,9.2,9.2,7.4,16.1c-0.2,0.7-1.3,1.4-2.1,1.8
	C130.6,161.1,123.4,163.3,115.4,163.9 M74.7,92.8c-1.1,1.8-3.5,1.9-6.1,1.8c-3.9-0.1-7.8-0.3-11.7,0.1c-1.5,0.2-3.6,1.4-4.2,2.7
	c-0.7,1.7-0.4,4-0.1,6c0.3,1.5,1.3,2.9,1.8,4.5c0.7,2.1,1,4.5,1.9,6.5c2.7,5.7,7.2,8.9,13.8,8.7c6.3-0.2,10.6-3.5,12.9-9.1
	c1-2.4,1.3-5.1,2-7.6c0.2-0.8,0.4-1.9,1-2.4c2.3-1.9,1.3-4.2,0.8-6.2c-0.5-2-2.1-2.9-4.2-3.2C80.3,94.2,77.8,93.5,74.7,92.8
	 M99.9,139.7c3.8,2.9,7.5,5.3,10.8,8.2c3.5,3.1,4.4,7.5,4.7,12.1c6.7-0.4,12.7-2.3,18.5-5c0.4-0.2,0.9-0.6,1.1-1
	c1.3-3.1-0.4-8.1-3.4-9.8c-2.9-1.6-5.9-3.1-9-4.5c-3.1-1.4-6.1-2.9-6.8-6.3h-9.7C105.8,137.1,102.5,138,99.9,139.7 M39.2,140
	c-2.2-2.1-4.4-4.3-6.8-6.7h-8.6c-0.7,3.1-3.2,4.6-6,5.9c-2.6,1.2-5.1,2.8-7.8,3.8c-4.3,1.7-5.8,4.7-5.6,9.2c0.1,1.5,0.4,2.4,1.9,2.9
	c4.2,1.3,8.4,2.8,12.6,4c1.7,0.5,3.5,0.5,5.3,0.7c0.2-4.9,1.4-9.2,4.8-12.2C32.3,144.7,35.9,142.4,39.2,140 M87.2,91.2
	c-0.3-6.2-3.3-10.7-8.5-13.8c-6.2-3.6-14.1-3.2-19.7,1.2c-4.1,3.2-6.4,7.3-6.5,11.9c4.5,0,8.7-0.1,12.8,0c3.6,0.1,6.9,0.1,9.4-3.3
	c1.3-1.7,2.6-1.1,3.6,0.9c0.5,1,1.5,2,2.5,2.3C82.8,91,84.9,91,87.2,91.2 M120.5,117c-0.2-0.1-0.3-0.1-0.5-0.2
	c-0.1-1.4-0.1-2.7-0.4-4.1c-0.7-3.7-4-6.8-7.6-7.2c-3.8-0.4-8,1.8-9.2,5.4c-1.5,5-1.5,10.1,1.3,14.7c3.3,5.4,10.5,5.5,13.6-0.1
	C119.3,123,119.7,119.9,120.5,117 M19.8,116.7c0,1.3-0.1,2.6,0,3.8c0.5,5.1,4,8.9,8.2,9.1c4.4,0.3,8-2.8,8.9-8.2
	c0.5-2.7,0.6-5.6,0.3-8.4c-0.4-3.6-2.7-6.1-6.2-7.2c-3.4-1.1-6.2,0-8.7,2.3C19.7,110.6,19.5,113.6,19.8,116.7 M61,125.1
	c-0.1,2.2,0,3.8-0.3,5.4c-0.3,1.5-1.2,3-1.7,4.5c-0.2,0.6,0,1.4,0.2,2.1c1.3,4.2,5.4,7.5,9.8,7.8c4.5,0.3,8.9-2.3,10.8-6.4
	c0.8-1.8,1.3-3.4-0.1-5.3c-0.8-1.1-0.8-2.7-1-4.1c-0.2-1.2-0.2-2.4-0.3-4C72.5,127.8,66.9,127.7,61,125.1"/>
<rect x="41.9" y="166.9" class="st0" width="3.6" height="12.1"/>
<path class="st0" d="M94,166.8h3.8c0,3.8,0.1,7.4-0.1,11.1c0,0.5-1.2,1.3-1.8,1.2c-0.6,0-1.8-0.8-1.8-1.3
	C93.9,174.3,94,170.7,94,166.8"/>
<line class="st1" x1="131.9" y1="2" x2="8.9" y2="2"/>
<line class="st1" x1="131.9" y1="248.3" x2="8.9" y2="248.3"/>
</svg>
