<?xml version="1.0" encoding="utf-8"?>
<!-- Generator: Adobe Illustrator 22.1.0, SVG Export Plug-In . SVG Version: 6.00 Build 0)  -->
<svg version="1.1" id="Capa_1" xmlns="http://www.w3.org/2000/svg" xmlns:xlink="http://www.w3.org/1999/xlink" x="0px" y="0px"
	 viewBox="0 0 123 206.3" style="enable-background:new 0 0 123 206.3;" xml:space="preserve">
<style type="text/css">
	.st0{fill:#FFFFFF;}
	.st1{fill:none;stroke:#CC9C11;stroke-width:4;stroke-miterlimit:10;}
</style>
<path class="st0" d="M47.4,155.9c2.5,3.7,5.7,5.6,10,5.5c4.3-0.2,7.4-2.4,9.6-6.4c-0.9,0-1.6,0-2.2,0c-1.3,0-2-0.7-2.1-1.7
	c0-1.1,0.7-1.8,2-1.9c0.8,0,1.6,0,2.4,0c0.5,0,0.8-0.2,0.8-0.7c0-4,0-7.9,0-11.9c0-0.5-0.2-0.7-0.7-0.7c-1.7,0-3.4-0.1-5,0
	c-3.1,0.2-5.1,2.2-5.5,5.3c-0.2,1.6-1.1,2.4-2.4,2c-1-0.3-1.3-1.1-1.2-2.1c0.2-5.1,4.2-8.8,9.5-8.9c1.5,0,3,0,4.4,0
	c0.6,0,0.9-0.2,0.9-0.8c0-7.7,0-15.5,0-23.2c0-0.9-0.5-0.9-1.1-0.9c-9.1,0-18.1,0-27.2,0c-0.4,0-0.7,0-1.1,0c-1-0.1-1.7-0.7-1.8-1.6
	c-0.1-0.8,0.5-1.7,1.5-1.9c0.4-0.1,0.7-0.1,1.1-0.1c9.1,0,18.3,0,27.4,0h1.1V75.4c-0.4,0-0.7-0.1-1.1-0.1c-4.4,0-8.7,0-13.1,0
	c-4.1,0-7.2-1.7-9-5.5c-0.6-1.3-0.8-2.8-0.9-4.2c-0.1-0.9,0.6-1.6,1.5-1.7c1-0.1,1.7,0.4,1.9,1.3c0.1,0.6,0.1,1.1,0.3,1.7
	c0.6,2.5,2.7,4.5,5.2,4.6c4.7,0.2,9.3,0.1,14,0.1c0.4,0,0.7,0,1.2,0V59.6c-1.1,0-2.1,0-3.2,0c-0.8,0-1.5-0.3-1.9-1.1
	c-0.5-1.2,0.3-2.4,1.8-2.5c1.1,0,2.1,0,3.2,0c0.5-3.8-2.4-9.1-7.7-10.7c-4.7-1.4-10.6,0.9-12.5,5.1c1.1,0.6,2.2,1.1,3.2,1.7
	c4.6,3,7,7.2,7.2,12.7c0,1.1-0.7,1.9-1.7,2c-0.9,0.1-1.7-0.6-1.9-1.7c-0.4-1.7-0.5-3.4-1.2-5c-2.1-4.6-5.9-6.9-10.9-6.8
	c-4.9,0.1-8.5,2.5-10.5,7c-0.7,1.5-0.7,3.3-1,5c-0.1,0.4,0,0.9,0,1.3c0,1.6-0.8,2.3-2.5,2.1c-1.8-0.2-3.6-0.6-5.3-0.3
	c-7,0.9-11.8,8.7-9.3,15.1c1.5-0.3,3-0.7,4.6-1c1-0.2,1.9-0.2,2.9-0.2c1,0,1.7,0.7,1.7,1.6c0.1,0.9-0.5,1.7-1.5,1.9
	c-1.7,0.3-3.5,0.3-5.1,0.9c-6.9,2.1-11.2,6.9-12.2,14c-1,7.1,1.7,12.7,7.6,16.8c0.2,0.1,0.4,0.2,0.4,0c1.7-1.4,3.3-2.8,5-4.1
	c1.1-0.8,2.2-0.6,2.8,0.4c0.6,0.9,0.2,2-0.9,2.7c-3.1,2-5.1,4.7-5.7,8.4c-0.5,3,0.2,5.7,1.9,8.3c0.3,0.4,0.6,0.9,0.9,1.3
	c0.6,0.9,0.5,1.9-0.3,2.5c-0.8,0.6-1.8,0.5-2.5-0.3c-1.6-1.8-2.7-3.9-3.3-6.2c-0.7-2.9-0.7-5.8,0.3-8.6c0.2-0.7-0.1-0.9-0.5-1.2
	c-4.1-2.7-7-6.3-8.4-10.9c-2-6.1-1.3-11.9,2-17.4c1.6-2.7,3.7-4.8,6.4-6.5c0.5-0.3,0.7-0.7,0.5-1.3c-3-9.9,4.1-19.7,14.4-19.9
	c0.8,0,1.5,0.1,2.3,0.1c0.2-1.2,0.4-2.4,0.7-3.5c1.8-6.8,7.8-11.4,14.8-11.4c0.9,0,1.3-0.2,1.7-1c3-5.5,9.8-8.6,15.8-7.2
	c6.5,1.5,11.2,6.9,11.5,13.4c0,1,0.4,1.3,1.3,1.1c0.2,0,0.5,0,0.7,0c1.5,0.2,2.4-0.2,3.2-1.6c1.3-2.4,4.4-3.2,7.2-2.3
	c2.4,0.8,4.1,3.5,4,6c-0.2,2.9-2.1,5.2-4.9,5.8c-2.6,0.6-5.5-0.7-6.7-3.2c-0.4-0.9-0.9-1.2-1.8-1.1c-0.9,0.1-2.2-0.3-2.6,0.2
	c-0.5,0.5-0.3,1.8-0.3,2.7c0,3,0,6,0,9.1c0.4,0,0.7,0.1,1.1,0.1c4.4,0,8.8,0,13.2,0c0.7,0,1.5-0.4,2-0.8c1.9-1.7,3.6-3.6,5.5-5.4
	c0.5-0.5,0.6-0.9,0.3-1.6c-1.3-2.7-0.4-5.8,2-7.6c2.3-1.7,5.5-1.4,7.7,0.5c2.1,1.9,2.6,5.1,1.1,7.6c-1.4,2.3-4.1,3.5-6.8,2.8
	c-0.6-0.2-1,0-1.4,0.4c-2,2-4,3.9-5.9,5.9c-1.2,1.2-2.7,1.8-4.4,1.8c-4.5,0-8.9,0-13.4,0c-0.7,0-1,0.2-1,0.9c0.1,1.9,0.1,3.8,0,5.6
	c0,0.8,0.3,0.9,1,0.9c5.9,0,11.9,0,17.8,0c2,0,3.6,0.6,4.9,2.1c0.9,1,1.9,1.9,2.9,2.8c0.9,0.9,0.9,2,0.2,2.8
	c-0.8,0.8-1.8,0.7-2.8-0.2c-1-1-2-2.1-3.1-3c-0.5-0.4-1.2-0.8-1.9-0.8c-6-0.1-12.1,0-18.1,0c-0.8,0-1,0.2-1,1c0,2.9,0,5.7,0,8.6
	c0,0.7,0.2,1,0.9,0.9c0.3,0,0.6,0,0.9,0c1.6,0.2,2.8,0,3.7-1.7c1.4-2.4,4.5-3.1,7.1-2.2c2.5,0.9,4.2,3.6,3.9,6.2
	c-0.3,2.8-2.2,5-4.9,5.6c-2.7,0.6-5.5-0.8-6.7-3.3c-0.3-0.7-0.7-1-1.5-0.9c-0.9,0.1-1.7,0-2.6,0c-0.6,0-0.8,0.2-0.8,0.8
	c0,3.9,0,7.9,0,11.8c0,0.5,0.2,0.7,0.7,0.7c5.8,0,11.7,0,17.5,0c0.3,0,0.8-0.5,0.9-0.8c2.2-4.3,8.1-4.7,10.7-0.7
	c1.9,2.9,1,6.9-2,8.7c-3,1.8-7,0.7-8.6-2.4c-0.4-0.8-0.9-1-1.8-1c-5.4,0-10.8,0-16.2,0h-1.3c0,0.4-0.1,0.7-0.1,1c0,3.3,0,6.7,0,10
	c0,0.9,0.3,1.1,1.2,1.1c4.6,0,9.1,0,13.7,0c0.7,0,1-0.2,1.3-0.8c1.2-2.7,4.1-4,6.9-3.4c2.7,0.6,4.8,3.2,4.8,6c0,2.9-2,5.3-4.9,6
	c-2.7,0.6-5.6-0.8-6.8-3.4c-0.3-0.6-0.6-0.8-1.3-0.8c-4.6,0-9.3,0-13.9,0c-0.7,0-0.9,0.2-0.9,0.9c0,2.6,0,5.1,0,7.7
	c0,0.9,0.2,1.2,1.1,1.2c2.6-0.1,5.2,0,7.9,0c1.8,0,3.3,0.6,4.5,1.9c1.1,1.2,2.3,2.4,3.5,3.5c0.3,0.2,0.9,0.4,1.2,0.3
	c3.4-0.9,6.7,0.9,7.7,4.2c1,3.2-0.9,6.6-4.1,7.6c-3.2,1-6.7-0.8-7.7-4.1c-0.4-1.4-0.5-2.8,0.2-4.1c0.3-0.6,0.3-1.1-0.3-1.6
	c-1.1-1-2.1-2.2-3.3-3.2c-0.5-0.4-1.2-0.8-1.9-0.8c-2.7-0.1-5.4,0-8.1-0.1c-0.7,0-0.9,0.2-0.9,0.9c-0.1,2.3,0,4.8-0.6,7
	c-2.4,9.5-14.1,13.8-22.2,8.1c-1.9-1.4-3.5-3-4.6-5.1c-0.3-0.6-0.6-0.8-1.3-0.8c-8.5,0-14.8-5.9-15.6-14.4c0-0.1,0-0.2-0.1-0.3
	c-1,0-2,0-3,0c-1.3,0-2.1-0.7-2.1-1.8c0-1.1,0.8-1.8,2-1.8c3.1,0.1,5.9-0.8,8.4-2.6c1.1-0.8,2.2-0.6,2.7,0.4
	c0.6,0.9,0.3,1.9-0.7,2.6c-0.9,0.6-1.9,1.3-2.9,1.8c-0.6,0.3-0.8,0.7-0.8,1.3c0.1,6.1,5.6,11.3,11.8,11.3c2.9,0,5.4-1,7.6-2.8
	c0.2-0.2,0.4-0.3,0.6-0.5c0.9-0.6,1.9-0.5,2.5,0.2c0.6,0.8,0.7,1.9-0.2,2.5c-1.4,1.1-3,2-4.5,3C48.4,155.6,48,155.7,47.4,155.9
	 M93.1,133.9c1.4,0.1,2.6-1,2.6-2.4c0.1-1.3-1-2.5-2.4-2.6c-1.3-0.1-2.5,1-2.6,2.4C90.7,132.6,91.7,133.8,93.1,133.9 M82,101.3
	c1.4,0,2.5-1.1,2.5-2.5c0-1.4-1.2-2.5-2.6-2.5c-1.4,0-2.5,1.2-2.5,2.5C79.5,100.2,80.6,101.3,82,101.3 M94.1,154.4
	c0-1.4-1.1-2.5-2.5-2.5c-1.3,0-2.5,1.1-2.6,2.4c0,1.4,1.1,2.6,2.5,2.6C92.9,156.8,94,155.8,94.1,154.4 M98.9,115.5
	c0-1.4-1.2-2.5-2.5-2.5c-1.3,0-2.5,1.2-2.5,2.5c0,1.4,1.2,2.6,2.6,2.5C97.8,118,98.9,116.9,98.9,115.5 M99.1,63.8
	c1.4,0.1,2.5-1,2.6-2.4c0.1-1.3-1.1-2.5-2.4-2.6c-1.3-0.1-2.5,1.1-2.6,2.4C96.6,62.5,97.7,63.7,99.1,63.8 M81.7,60.4
	c1.4,0,2.5-1.2,2.5-2.5c0-1.3-1.2-2.5-2.5-2.5c-1.4,0-2.5,1.2-2.5,2.5C79.2,59.3,80.3,60.4,81.7,60.4"/>
<g>
	<path class="st0" d="M118,104.3c-0.1,2.2-1.3,4.1-3.7,5.2c-2.2,1-4.9,0.6-6.7-1.2c-1.8-1.8-2.4-4-1.5-6.4c0.2-0.7,0.1-1.1-0.4-1.6
		c-0.9-0.8-1.8-1.7-2.6-2.6c-0.8-0.9-0.9-2-0.2-2.7c0.8-0.8,1.8-0.7,2.8,0.2c0.9,0.9,1.8,1.7,2.6,2.6c0.5,0.5,0.9,0.6,1.6,0.4
		C113.8,96.7,118,99.6,118,104.3 M111.8,106.4c1.4,0,2.5-1.1,2.5-2.4c0-1.4-1-2.5-2.4-2.6c-1.4-0.1-2.6,1.1-2.6,2.5
		C109.3,105.2,110.4,106.4,111.8,106.4"/>
	<path class="st0" d="M121.8,125.6c0,3.4-2.7,6.2-6.1,6.2c-3.4,0-6.2-2.7-6.2-6.1c0-3.4,2.8-6.2,6.1-6.2
		C119,119.4,121.8,122.2,121.8,125.6 M118.2,125.7c0-1.4-1.1-2.5-2.5-2.5c-1.4,0-2.6,1.2-2.6,2.5c0,1.3,1.2,2.5,2.5,2.5
		C117,128.1,118.1,127,118.2,125.7"/>
	<path class="st0" d="M113.9,144.7c-0.1,3.4-2.9,6.1-6.3,6c-3.5-0.1-6.1-2.9-6.1-6.2c0.1-3.4,2.9-6.1,6.4-6
		C111.3,138.5,114,141.3,113.9,144.7 M107.7,142.1c-1.4,0-2.5,1.1-2.5,2.5c0,1.4,1.2,2.5,2.6,2.4c1.4,0,2.5-1.2,2.5-2.5
		C110.3,143.1,109.1,142,107.7,142.1"/>
	<path class="st0" d="M115.8,79.2c0,3.4-2.7,6.1-6.1,6.2c-3.4,0-6.2-2.7-6.2-6.1c0-3.4,2.7-6.1,6.1-6.2
		C112.9,73,115.7,75.8,115.8,79.2 M112.1,79.2c0-1.4-1.1-2.5-2.5-2.5c-1.4,0-2.5,1.1-2.5,2.5c0,1.3,1.1,2.5,2.5,2.5
		C111,81.7,112.1,80.6,112.1,79.2"/>
</g>
<g>
	<path class="st0" d="M35.5,84.2c0,5.9-4.9,10.9-10.9,11c-1.1,0-1.9-0.6-2-1.6c-0.1-1,0.5-1.9,1.7-2c1.8-0.2,3.4-0.6,4.8-1.8
		c2.3-1.9,3.3-5,2.5-7.7c-1-3.1-3.1-4.9-6.3-5.4c-0.4-0.1-0.7,0-1.1-0.1c-1.1-0.2-1.7-1-1.6-2c0.1-1,0.9-1.6,2-1.6
		c2.2,0,4.2,0.7,6,1.9C33.7,77.2,35.3,80.4,35.5,84.2"/>
	<path class="st0" d="M37,122.9c-2.3,0-4.6,0-6.9,0c-3.5,0-5.6,1.8-6.1,5.3c0,0.2-0.1,0.3-0.1,0.5c-0.3,1.1-1,1.7-2,1.5
		c-1-0.1-1.5-0.9-1.5-1.9c0-4.5,3.7-8.5,8.2-9c1.6-0.1,3.3-0.1,4.9-0.1c3.8,0,7.5,0,11.3,0c1.3,0,2.1,0.7,2.1,1.8
		c0,1.1-0.8,1.7-2,1.8c-0.2,0-0.4,0-0.6,0C41.9,122.9,39.4,122.9,37,122.9"/>
	<path class="st0" d="M46.8,137.1c0,4.1-4,8.2-8.9,8.3c-1.1,0-1.9-0.7-2-1.6c-0.1-1,0.6-1.8,1.7-1.9c2.2-0.2,4-1.1,5-3.2
		c1.4-3.2-0.4-6.8-3.9-7.5c-0.4-0.1-0.8-0.1-1.2-0.2c-1.1-0.2-1.7-1-1.7-1.9c0.1-1,0.9-1.7,1.9-1.7c3.2,0.2,5.7,1.5,7.4,4.1
		C46.3,133,46.7,134.6,46.8,137.1"/>
	<path class="st0" d="M56.9,84.7c4.2,0.3,7.5,3.9,7.4,8c-0.1,4.1-3.4,7.6-7.5,7.8c-1.3,0.1-2.1-0.5-2.2-1.6c-0.1-1.1,0.6-1.8,1.9-2
		c2-0.2,3.3-1.2,4-3c0.8-2.4-0.8-5.1-3.4-5.5c-0.2,0-0.4,0-0.6-0.1c-1.4-0.2-2.1-1-1.9-2.1C54.7,85.1,55.5,84.6,56.9,84.7"/>
	<path class="st0" d="M36.7,98.8c-0.4,0-0.7,0-1,0c-0.9-0.1-1.6-0.7-1.6-1.6c-0.1-0.9,0.5-1.6,1.4-1.8c0.8-0.2,1.7-0.2,2.5-0.4
		c4.3-1.1,6.7-4,7.3-8.6c0.2-1.7,0.9-2.5,2-2.4c1.2,0.1,1.8,1.1,1.6,2.8C48.4,93.4,43.1,98.5,36.7,98.8"/>
	<path class="st0" d="M25,109.4c-2.4,0.1-4.8,0-6.9-1.3c-3.1-1.9-4.6-4.6-4.8-8.1C13.2,99,14,98.2,15,98.1c1-0.1,1.8,0.6,1.9,1.7
		c0.2,1.9,0.8,3.7,2.4,4.8c0.9,0.6,2.1,1.1,3.2,1.2c1.6,0.2,3.3,0.1,4.9,0.1c0.4,0,0.8,0,1.2,0.2c0.9,0.3,1.3,0.9,1.3,1.8
		c0,0.9-0.7,1.6-1.6,1.6C27.2,109.5,26.1,109.4,25,109.4"/>
	<path class="st0" d="M43.2,56.4c0.6,0.3,1.4,0.5,1.9,1c0.8,0.9,0.2,2.4-1,2.7c-0.3,0.1-0.7,0.1-1,0.1c-2.3,0.2-3.6,1.5-4.1,3.7
		c-0.3,1.5-1.4,2.2-2.6,1.7c-0.9-0.4-1.2-1.2-1-2.2c0.5-3.9,3.6-6.7,7.6-6.8L43.2,56.4z"/>
	<path class="st0" d="M56.1,122.9c-1.1,0-2.3,0-3.4,0c-1.3,0-2.1-0.8-2-1.9c0-1,0.8-1.7,2.1-1.7c2.3,0,4.6,0,7,0c1.3,0,2,0.7,2,1.8
		c0,1.1-0.8,1.8-2.1,1.9c-0.1,0-0.1,0-0.2,0C58.3,122.9,57.2,122.9,56.1,122.9"/>
</g>
<line class="st1" x1="123" y1="2" x2="0" y2="2"/>
<line class="st1" x1="123" y1="204.3" x2="0" y2="204.3"/>
</svg>
