<?xml version="1.0" encoding="utf-8"?>
<!-- Generator: Adobe Illustrator 22.1.0, SVG Export Plug-In . SVG Version: 6.00 Build 0)  -->
<svg version="1.1" id="Capa_1" xmlns="http://www.w3.org/2000/svg" xmlns:xlink="http://www.w3.org/1999/xlink" x="0px" y="0px"
	 viewBox="0 0 167.2 40" style="enable-background:new 0 0 167.2 40;" xml:space="preserve">
<style type="text/css">
	.st0{fill:#EEBD1F;}
	.st1{fill:#FFFFFF;}
</style>
<g>
	<path class="st0" d="M132.2,1.9c10,0,18.1,8.1,18.1,18.1s-8.1,18.1-18.1,18.1c-10,0-18.1-8.1-18.1-18.1S122.3,1.9,132.2,1.9
		 M132.2,0c-11,0-20,9-20,20c0,11,9,20,20,20c11,0,20-9,20-20C152.2,9,143.3,0,132.2,0"/>
	<g>
		<path class="st1" d="M136.8,13.8c-0.7,0-1.2,0.5-1.2,1.2c0,0.7,0.5,1.2,1.2,1.2c0.7,0,1.2-0.5,1.2-1.2
			C138,14.3,137.5,13.8,136.8,13.8"/>
		<path class="st1" d="M136,18.4l-0.1-0.1c-0.3-0.7-0.9-1.3-1.5-1.7c-0.1,0-0.2-0.1-0.2-0.1c-0.1,0-0.2-0.1-0.3-0.1l-0.1,0
			c-0.1,0-0.2-0.1-0.2-0.1l-0.1,0c-0.1,0-0.2-0.1-0.3-0.1l-0.1,0c-0.1,0-0.1,0-0.2,0l-0.1,0c-0.1,0-0.2,0-0.3,0l-0.1,0
			c-0.2,0-0.4,0-0.6,0l-0.2,0c-0.2,0-0.3,0-0.5,0.1l0,0c-0.1,0-0.1,0-0.2,0l-0.1,0c0,0-0.1,0-0.1,0l-0.2,0.1
			c-0.2,0.1-0.3,0.1-0.5,0.2c0,0-0.1,0-0.2,0.1c-0.5,0.3-1,0.8-1.3,1.3c-0.3,0.5-0.5,1-0.6,1.5c0,0,0,0.1,0,0.1c0,0.2,0,0.3,0,0.5
			l0,0.1c0,0.1,0,0.1,0,0.2c0,0.4,0.1,0.8,0.3,1.2c0.1,0.3,0.3,0.6,0.4,0.8l0.1,0.2c0.1,0.1,0.1,0.2,0.2,0.2l0.1,0.2
			c0.2,0.2,0.4,0.4,0.7,0.6c0.7,0.5,1.5,0.7,2.3,0.7c1,0,2-0.4,2.8-1.1C136.1,22.2,136.9,20.3,136,18.4 M134.3,21.9
			c-0.5,0.6-1.2,0.9-1.9,0.9c-1.4,0.1-2.6-1-2.8-2.4c-0.1-0.7,0.1-1.4,0.6-2c0.4-0.6,1.1-0.9,1.8-1c1.6-0.2,2.9,1.1,3,2.4
			C135,20.6,134.8,21.3,134.3,21.9"/>
		<path class="st1" d="M141.3,19.1v-3.2c0-2.1-1.3-3.9-3.3-4.6c-0.2-0.1-0.4-0.1-0.6-0.1c-0.1,0-0.2,0-0.3-0.1c0,0,0,0-0.1,0l0,0
			l-9.6,0l-0.2,0c-0.1,0-0.3,0.1-0.4,0.1c-1.7,0.4-2.8,1.5-3.4,3.1c-0.1,0.2-0.1,0.4-0.1,0.6c0,0.1,0,0.2,0,0.3l0,0.1l0,9.6l0,0.2
			c0,0.1,0.1,0.3,0.1,0.4c0.4,1.7,1.5,2.8,3.1,3.4c0.4,0.1,0.9,0.2,1.3,0.2c1.8,0,3.5,0,5.1,0c1.3,0,2.6,0,3.9,0
			c1.8,0,3.6-1.3,4.2-3c0.2-0.6,0.3-1.1,0.3-1.8C141.3,22.6,141.3,20.8,141.3,19.1 M128,27.7c-1.4,0-2.5-0.7-3.1-1.9
			c-0.2-0.4-0.3-0.9-0.3-1.4l0-7.8c0-0.2,0-0.5,0-0.7c0-1,0.4-1.9,1.1-2.5c0.6-0.5,1.2-0.8,1.9-0.8c0.7,0,1.4,0,2.1,0h0.4
			c0.9,0,1.8,0,2.7,0h1.8l1.8,0c0.6,0,1.2,0.1,1.6,0.3c1,0.5,1.6,1.4,1.8,2.4c0,0.4,0.1,0.7,0.1,1.1c0,0.2,0,0.4,0,0.5l0,2.7
			c0,1.6,0,3.1,0,4.7c0,1.4-0.7,2.5-1.9,3.1c-0.4,0.2-0.9,0.3-1.4,0.3l-2.3,0C132.2,27.7,130.1,27.7,128,27.7"/>
	</g>
</g>
<g>
	<path class="st0" d="M76.1,1.9c10,0,18.1,8.1,18.1,18.1s-8.1,18.1-18.1,18.1S58,30,58,20S66.1,1.9,76.1,1.9 M76.1,0
		c-11,0-20,9-20,20c0,11,9,20,20,20s20-9,20-20C96.1,9,87.2,0,76.1,0"/>
	<path class="st1" d="M83.7,15.3C83.7,15.3,83.6,15.3,83.7,15.3c0.7-0.6,1.3-1.2,1.6-2.1c-0.1,0.1-0.2,0.1-0.2,0.1
		c-0.6,0.3-1.3,0.6-2,0.8c-0.2,0-0.3,0-0.4-0.1c-1.2-1.1-2.9-1.4-4.3-0.7c-1.4,0.7-2.3,2.2-2.2,3.8c0,0.2,0,0.4,0.1,0.6
		c-3.2-0.2-5.8-1.6-7.9-4c-0.9,2-0.5,3.7,1.1,5.1c0,0,0,0,0,0.1c-0.5-0.1-1.1-0.3-1.6-0.4c-0.2,1.5,1.1,3.1,3,3.7
		c-0.5,0.2-1.1,0.1-1.6,0.1c0.2,0.8,0.7,1.4,1.3,1.9c0.6,0.5,1.4,0.7,2.2,0.8c-1.7,1.3-3.5,1.8-5.6,1.6c0,0,0.1,0,0.1,0.1
		c3,1.8,6.1,2.1,9.4,1c2.3-0.8,4.1-2.3,5.4-4.3c1.2-1.9,1.8-3.9,1.8-6.1c0-0.3,0.1-0.4,0.3-0.6c0.6-0.5,1.1-1,1.6-1.7
		C85,15,84.3,15.2,83.7,15.3"/>
</g>
<g>
	<path class="st0" d="M20,1.9C30,1.9,38.1,10,38.1,20S30,38.1,20,38.1S1.9,30,1.9,20S10,1.9,20,1.9 M20,0C9,0,0,9,0,20
		c0,11,9,20,20,20s20-9,20-20C40,9,31,0,20,0"/>
	<g>
		<path class="st1" d="M20.9,27.7h-3.2V17.4h3.2v1.4c1.1-1.5,2.5-1.9,4.1-1.5c1.8,0.5,2.6,1.9,2.7,3.5c0.1,2.2,0,4.5,0,6.8h-3.3
			c0-0.4,0-0.7,0-1.1c0-1.6,0-3.2,0-4.8c0-1.2-0.6-1.9-1.6-1.9c-1,0-1.8,0.8-1.8,2c0,1.7,0,3.4,0,5.1C20.9,27.2,20.9,27.4,20.9,27.7
			"/>
		<path class="st1" d="M12.3,27.7V17.4c1,0,2,0,3,0c0.1,0,0.3,0.4,0.3,0.6c0,2.6,0,5.2,0,7.8v1.9H12.3z"/>
		<path class="st1" d="M15.9,14.1c0,1-0.7,1.7-1.8,1.8c-1,0-1.8-0.8-1.8-1.8c0-1,0.8-1.8,1.8-1.8C15.1,12.3,15.9,13.1,15.9,14.1"/>
	</g>
</g>
</svg>
